<svg width="60" height="60" viewBox="0 0 60 60" fill="none" xmlns="http://www.w3.org/2000/svg">
<path d="M29.2586 37.5402V53.1197C29.2586 53.9136 28.8249 54.49 28.2271 54.49H22.9554C22.3559 54.49 21.9207 53.9138 21.9207 53.1197V37.5402C21.9207 36.7481 22.3559 36.1732 22.9554 36.1732H28.2271C28.8249 36.1732 29.2586 36.7481 29.2586 37.5402ZM46.0887 32.0176H40.817C40.2464 32.0176 39.7823 32.4818 39.7823 33.0524V53.5481C39.7823 54.1187 40.2464 54.5829 40.817 54.5829H46.0887C46.6575 54.5829 47.1202 54.1187 47.1202 53.5481V33.0524C47.1202 32.4818 46.6575 32.0176 46.0887 32.0176ZM37.1562 40.422H31.8845C31.3043 40.422 30.8498 40.9494 30.8498 41.6228V53.2891C30.8498 53.9625 31.3043 54.49 31.8845 54.49H37.1562C37.7364 54.49 38.191 53.9625 38.191 53.2891V41.6228C38.191 40.9494 37.7364 40.422 37.1562 40.422ZM47.1932 24.7744C47.1932 26.8377 45.5145 28.5164 43.451 28.5164C42.7063 28.5164 42.0123 28.2968 41.4286 27.9203L37.6165 31.7351C38.0249 32.3345 38.264 33.058 38.264 33.8364C38.264 35.8997 36.5853 37.5784 34.5218 37.5784C32.4584 37.5784 30.7798 35.8997 30.7798 33.8364C30.7798 33.3138 30.8878 32.8161 31.0821 32.3639L28.242 30.4504C27.5637 31.1327 26.6251 31.5559 25.5893 31.5559C24.8461 31.5559 24.1535 31.3372 23.5705 30.9621L19.6965 35.0449C20.1399 35.6599 20.4021 36.4137 20.4021 37.228C20.4021 39.2913 18.7234 40.97 16.66 40.97C14.5965 40.97 12.918 39.2913 12.918 37.228C12.918 35.1647 14.5965 33.486 16.66 33.486C17.4023 33.486 18.0942 33.7042 18.6767 34.0784L22.5514 29.9948C22.1089 29.3803 21.8472 28.6273 21.8472 27.8138C21.8472 25.7504 23.5258 24.0717 25.5892 24.0717C27.6526 24.0717 29.3314 25.7504 29.3314 27.8138C29.3314 28.3363 29.2233 28.8341 29.0289 29.2862L31.8689 31.1998C32.5472 30.5174 33.4858 30.0942 34.5216 30.0942C35.2998 30.0942 36.0231 30.3333 36.6225 30.7414L40.41 26.9513C39.9693 26.3374 39.7088 25.5859 39.7088 24.7743C39.7088 22.7109 41.3874 21.0322 43.4508 21.0322C45.5142 21.0322 47.193 22.7109 47.193 24.7743L47.1932 24.7744ZM18.9974 37.228C18.9974 35.9394 17.949 34.8911 16.6605 34.8911C15.3719 34.8911 14.3236 35.9394 14.3236 37.228C14.3236 38.5166 15.3719 39.565 16.6605 39.565C17.949 39.565 18.9974 38.5166 18.9974 37.228ZM27.9265 27.8139C27.9265 26.5253 26.8781 25.4769 25.5896 25.4769C24.301 25.4769 23.2527 26.5253 23.2527 27.8139C23.2527 29.1025 24.301 30.1508 25.5896 30.1508C26.8781 30.1508 27.9265 29.1025 27.9265 27.8139ZM36.859 33.8364C36.859 32.5478 35.8107 31.4994 34.5221 31.4994C33.2335 31.4994 32.1852 32.5478 32.1852 33.8364C32.1852 35.125 33.2335 36.1733 34.5221 36.1733C35.8107 36.1733 36.859 35.125 36.859 33.8364ZM45.7881 24.7744C45.7881 23.4858 44.7398 22.4374 43.4512 22.4374C42.1626 22.4374 41.1143 23.4858 41.1143 24.7744C41.1143 26.063 42.1626 27.1113 43.4512 27.1113C44.7398 27.1113 45.7881 26.063 45.7881 24.7744ZM46.4907 11.3392H25.9549C25.5668 11.3392 25.2524 11.6537 25.2524 12.0417C25.2524 12.4297 25.5669 12.7443 25.9549 12.7443H46.4907C46.8788 12.7443 47.1932 12.4297 47.1932 12.0417C47.1932 11.6537 46.8787 11.3392 46.4907 11.3392ZM46.4907 15.8004H25.9549C25.5668 15.8004 25.2524 16.1149 25.2524 16.5029C25.2524 16.8909 25.5669 17.2055 25.9549 17.2055H46.4907C46.8788 17.2055 47.1932 16.8909 47.1932 16.5029C47.1932 16.1149 46.8787 15.8004 46.4907 15.8004ZM19.2946 44.6706H14.0229C13.4523 44.6706 12.9882 45.1348 12.9882 45.7054V53.4552C12.9882 54.0258 13.4523 54.49 14.0229 54.49H19.2946C19.8652 54.49 20.3294 54.0258 20.3294 53.4552V45.7054C20.3294 45.1348 19.8652 44.6706 19.2946 44.6706ZM55.066 5.30496V55.8469C55.066 57.8077 53.4708 59.4029 51.5099 59.4029H8.60159C6.64081 59.4029 5.04553 57.8078 5.04553 55.8469V16.41C5.04553 16.3864 5.0467 16.3631 5.04905 16.3399C5.05081 16.3221 5.05385 16.3046 5.0569 16.2872C5.05784 16.282 5.05819 16.2769 5.05924 16.2718C5.06346 16.2506 5.06885 16.2299 5.07495 16.2095C5.0753 16.2082 5.07553 16.2069 5.076 16.2055C5.08221 16.185 5.08959 16.165 5.09756 16.1454C5.09815 16.1439 5.09862 16.1423 5.0992 16.1409C5.10706 16.1221 5.11596 16.1037 5.12534 16.0856C5.12651 16.0834 5.12745 16.0811 5.12862 16.0788C5.13752 16.0623 5.14737 16.0463 5.15745 16.0305C5.15979 16.0269 5.16178 16.0232 5.16413 16.0196C5.17385 16.005 5.18463 15.9912 5.19541 15.9773C5.19881 15.973 5.20174 15.9684 5.20514 15.9642C5.21979 15.9465 5.23514 15.9294 5.25131 15.9132L19.2098 1.9548C19.226 1.93863 19.243 1.92328 19.2607 1.90863C19.2657 1.90465 19.2708 1.90125 19.2758 1.89738C19.289 1.88719 19.3022 1.87699 19.316 1.86762C19.3206 1.86457 19.3254 1.86211 19.33 1.85918C19.3448 1.8498 19.3596 1.84055 19.3751 1.83223C19.3785 1.83047 19.382 1.82895 19.3854 1.82719C19.4024 1.8184 19.4196 1.81008 19.4373 1.8027C19.4397 1.80176 19.442 1.80105 19.4444 1.80012C19.4632 1.7925 19.4823 1.78547 19.502 1.77949C19.5046 1.77867 19.5073 1.7782 19.51 1.77738C19.5292 1.77176 19.5487 1.76672 19.5685 1.76273C19.5747 1.76156 19.5809 1.76098 19.5871 1.75992C19.6035 1.75711 19.6199 1.75418 19.6367 1.75254C19.6599 1.7502 19.6833 1.74902 19.7069 1.74902H51.51C53.4708 1.74902 55.0661 3.34418 55.0661 5.30508L55.066 5.30496ZM53.6609 5.30496C53.6609 4.11891 52.6961 3.1541 51.51 3.1541H20.4092V14.7756C20.4092 16.0642 19.3609 17.1125 18.0723 17.1125H6.45073V55.8469C6.45073 57.0329 7.41565 57.9977 8.60159 57.9977H51.51C52.6961 57.9977 53.6609 57.0328 53.6609 55.8469V5.30496ZM25.9549 8.28293H36.8507C37.2388 8.28293 37.5532 7.9684 37.5532 7.58039C37.5532 7.19238 37.2387 6.87785 36.8507 6.87785H25.9549C25.5668 6.87785 25.2524 7.19238 25.2524 7.58039C25.2524 7.9684 25.5669 8.28293 25.9549 8.28293Z" fill="#0E0E0E"/>
</svg>
