<svg width="60" height="60" viewBox="0 0 60 60" fill="none" xmlns="http://www.w3.org/2000/svg">
<g clip-path="url(#clip0_4476_17498)">
<path d="M4.58707 42.4059H6.67172V38.2131H9.98238V42.4059H13.2929V35.0439H16.6035V42.4059H19.9141V31.8708H23.2247V42.4059H26.5354V28.7021H29.8459V42.4059H31.9273C32.1479 42.4059 32.3596 42.4936 32.5156 42.6496C32.6716 42.8057 32.7593 43.0173 32.7593 43.238C32.7593 43.4586 32.6716 43.6703 32.5156 43.8263C32.3596 43.9823 32.1479 44.07 31.9273 44.07H4.58707C4.3664 44.07 4.15477 43.9823 3.99874 43.8263C3.8427 43.6703 3.75504 43.4586 3.75504 43.238C3.75504 43.0173 3.8427 42.8057 3.99874 42.6496C4.15477 42.4936 4.3664 42.4059 4.58707 42.4059ZM59.3686 45.4808L54.8859 40.9983L54.246 41.6347L52.8516 40.2371C52.3203 40.8947 51.7209 41.4942 51.0633 42.0254L52.4578 43.4231L51.8213 44.0597L56.3039 48.5456C56.7106 48.9507 57.2614 49.1779 57.8354 49.1773C58.4094 49.1768 58.9598 48.9485 59.3657 48.5426C59.7716 48.1367 59.9999 47.5863 60.0004 47.0123C60.001 46.4383 59.7738 45.8875 59.3687 45.4808H59.3686ZM53.8351 32.7403C53.8354 34.7717 53.2333 36.7576 52.1049 38.4468C50.9765 40.136 49.3725 41.4526 47.4958 42.2302C45.6191 43.0077 43.5539 43.2112 41.5615 42.815C39.5691 42.4188 37.739 41.4406 36.3026 40.0041C34.8661 38.5677 33.888 36.7375 33.4917 34.7451C33.0955 32.7527 33.2991 30.6876 34.0766 28.8108C34.8542 26.9341 36.1708 25.3301 37.86 24.2018C39.5493 23.0734 41.5351 22.4713 43.5666 22.4716C46.2899 22.4717 48.9018 23.5536 50.8275 25.4794C52.7532 27.4051 53.8351 30.0169 53.8351 32.7403ZM51.0062 32.7403C51.0059 31.2685 50.5692 29.8299 49.7512 28.6063C48.9333 27.3828 47.7709 26.4292 46.411 25.8663C45.0512 25.3033 43.5549 25.1563 42.1115 25.4437C40.668 25.7312 39.3423 26.4402 38.3018 27.4811C37.2613 28.5221 36.5529 29.8482 36.2661 31.2917C35.9793 32.7353 36.127 34.2315 36.6905 35.5911C37.254 36.9507 38.2081 38.1127 39.432 38.9301C40.6559 39.7475 42.0948 40.1836 43.5666 40.1832C44.5438 40.1832 45.5115 39.9907 46.4144 39.6166C47.3172 39.2425 48.1375 38.6942 48.8284 38.0031C49.5192 37.3119 50.0672 36.4913 50.4408 35.5883C50.8145 34.6853 51.0066 33.7176 51.0062 32.7403ZM15.5999 25.9507C15.5091 25.1951 15.2659 24.4659 14.885 23.8071C14.5041 23.1483 13.9934 22.5737 13.3839 22.1181L13.3805 22.1248L10.7367 26.2028L15.5932 25.9502L15.5999 25.9507ZM7.22742 21.7577C6.06512 22.4297 5.18253 23.4964 4.74008 24.764C4.29764 26.0316 4.32472 27.4158 4.81641 28.6651L8.57121 26.4957L11.9189 21.3328C11.1532 21.0574 10.3366 20.9527 9.52614 21.0261C8.71574 21.0995 7.93118 21.3492 7.22742 21.7577ZM5.64457 30.0998C6.315 30.9424 7.21391 31.5741 8.23383 31.9193C9.25375 32.2646 10.3515 32.3087 11.3959 32.0466C12.4403 31.7844 13.387 31.227 14.123 30.441C14.8589 29.6551 15.353 28.6737 15.546 27.6144L9.39633 27.9308L5.64457 30.0998ZM45.0956 44.5778C45.6576 44.5052 46.2137 44.3927 46.7597 44.241V44.6653C46.7555 45.6447 46.3645 46.5829 45.672 47.2755C44.9794 47.968 44.0413 48.359 43.0618 48.3633H3.69797C2.71865 48.3588 1.78071 47.9679 1.08818 47.2754C0.395648 46.583 0.00456218 45.6451 0 44.6658L0 14.5168C0.00364795 13.5375 0.394533 12.5994 1.08734 11.9072C1.78016 11.215 2.71864 10.825 3.69797 10.8223H43.0613C44.0406 10.825 44.9791 11.215 45.6719 11.9072C46.3647 12.5994 46.7555 13.5375 46.7591 14.5168V21.2391C46.2131 21.0885 45.657 20.9771 45.095 20.9057V18.8175H1.66406V44.6658C1.66741 45.2042 1.88276 45.7196 2.26346 46.1004C2.64416 46.4812 3.15955 46.6966 3.69797 46.7H43.0613C43.5997 46.6967 44.1152 46.4813 44.496 46.1005C44.8768 45.7197 45.0922 45.2043 45.0955 44.6658L45.0956 44.5778ZM35.2243 14.8199C35.2243 15.0406 35.312 15.2522 35.468 15.4082C35.6241 15.5643 35.8357 15.6519 36.0564 15.6519H41.8929C42.1136 15.6519 42.3252 15.5643 42.4812 15.4082C42.6373 15.2522 42.7249 15.0406 42.7249 14.8199C42.7249 14.5992 42.6373 14.3876 42.4812 14.2315C42.3252 14.0755 42.1136 13.9879 41.8929 13.9879H36.0563C35.9469 13.9875 35.8386 14.0088 35.7375 14.0505C35.6364 14.0922 35.5445 14.1535 35.4672 14.2308C35.3899 14.3081 35.3286 14.4 35.2869 14.5011C35.2453 14.6022 35.224 14.7105 35.2243 14.8199ZM9.39961 14.8199C9.39961 15.0406 9.48727 15.2522 9.64331 15.4082C9.79934 15.5643 10.011 15.6519 10.2316 15.6519H10.2891C10.5097 15.6519 10.7214 15.5643 10.8774 15.4082C11.0334 15.2522 11.1211 15.0406 11.1211 14.8199C11.1211 14.5992 11.0334 14.3876 10.8774 14.2315C10.7214 14.0755 10.5097 13.9879 10.2891 13.9879H10.2318C10.1224 13.9875 10.014 14.0087 9.9129 14.0504C9.81178 14.0921 9.7199 14.1534 9.64255 14.2307C9.56521 14.308 9.50393 14.3999 9.46223 14.501C9.42054 14.6021 9.39925 14.7105 9.39961 14.8199ZM6.71883 14.8199C6.71883 15.0406 6.80649 15.2522 6.96252 15.4082C7.11856 15.5643 7.33019 15.6519 7.55086 15.6519H7.60805C7.82872 15.6519 8.04035 15.5643 8.19638 15.4082C8.35242 15.2522 8.44008 15.0406 8.44008 14.8199C8.44008 14.5992 8.35242 14.3876 8.19638 14.2315C8.04035 14.0755 7.82872 13.9879 7.60805 13.9879H7.55086C7.4415 13.9875 7.33314 14.0088 7.23203 14.0505C7.13093 14.0921 7.03906 14.1534 6.96173 14.2308C6.8844 14.3081 6.82313 14.3999 6.78144 14.5011C6.73975 14.6022 6.71847 14.7105 6.71883 14.8199ZM4.03523 14.8199C4.03567 15.0404 4.12347 15.2518 4.27941 15.4077C4.43535 15.5637 4.64673 15.6515 4.86727 15.6519H4.92785C5.14852 15.6519 5.36015 15.5643 5.51619 15.4082C5.67222 15.2522 5.75988 15.0406 5.75988 14.8199C5.75988 14.5992 5.67222 14.3876 5.51619 14.2315C5.36015 14.0755 5.14852 13.9879 4.92785 13.9879H4.86727C4.75795 13.9878 4.6497 14.0092 4.54868 14.051C4.44767 14.0928 4.35588 14.1541 4.27855 14.2313C4.20123 14.3086 4.13989 14.4004 4.09804 14.5013C4.05619 14.6023 4.03465 14.7106 4.03465 14.8199H4.03523Z" fill="#0E0E0E"/>
</g>
<defs>
<clipPath id="clip0_4476_17498">
<rect width="60" height="60" fill="white"/>
</clipPath>
</defs>
</svg>
