<svg width="60" height="60" viewBox="0 0 60 60" fill="none" xmlns="http://www.w3.org/2000/svg">
<path d="M30.9375 1.875H26.25C25.7344 1.875 25.3125 2.29688 25.3125 2.8125C25.3125 3.32812 25.7344 3.75 26.25 3.75H28.6219L16.9031 14.6344L12.8531 10.5844C12.4969 10.2281 11.9344 10.2188 11.5594 10.5469L2.18438 18.9937C1.8 19.3406 1.77188 19.9312 2.11875 20.3156C2.30625 20.5219 2.55938 20.625 2.8125 20.625C3.0375 20.625 3.2625 20.55 3.44063 20.3813L12.15 12.5344L16.2094 16.5938C16.5656 16.95 17.1375 16.9594 17.5125 16.6219L30 5.025V7.5C30 8.01562 30.4219 8.4375 30.9375 8.4375C31.4531 8.4375 31.875 8.01562 31.875 7.5V2.8125C31.875 2.29688 31.4531 1.875 30.9375 1.875Z" fill="#0E0E0E"/>
<path d="M51.5438 21.7881H58.125C57.7688 14.1943 51.7313 8.05371 44.175 7.53809V14.1287C48.1125 14.6068 51.2156 17.8131 51.5438 21.7881Z" fill="#0E0E0E"/>
<path d="M49.7343 27.76L54.3843 32.41C56.5593 29.9631 57.8531 26.9256 58.0968 23.6631H51.4968C51.2906 25.1631 50.6906 26.5693 49.7343 27.76Z" fill="#0E0E0E"/>
<path d="M53.0531 33.7408L48.4031 29.0908C46.9125 30.2908 45.075 30.9377 43.1438 30.9377C38.4938 30.9377 34.7063 27.1502 34.7063 22.5002C34.7063 18.1314 38.0438 14.5314 42.3 14.1096V7.52832C34.425 7.96895 28.1438 14.5127 28.1438 22.5002C28.1438 29.8033 33.4031 35.9064 40.3313 37.2283V41.2502C39.3 41.2502 38.4563 42.0939 38.4563 43.1252V56.2502C38.4563 57.2814 39.3 58.1252 40.3313 58.1252H45.9563C46.9875 58.1252 47.8313 57.2814 47.8313 56.2502V43.1252C47.8313 42.0939 46.9875 41.2502 45.9563 41.2502V37.2283C48.5813 36.7314 51.0281 35.5315 53.0531 33.7408ZM44.0813 37.5002V41.2502H42.2063V37.5002H44.0813Z" fill="#0E0E0E"/>
<path d="M9.375 58.125H3.75C2.71875 58.125 1.875 57.2812 1.875 56.25V45C1.875 43.9688 2.71875 43.125 3.75 43.125H9.375C10.4062 43.125 11.25 43.9688 11.25 45V56.25C11.25 57.2812 10.4062 58.125 9.375 58.125ZM3.75 45V56.25H9.375V45H3.75Z" fill="#0E0E0E"/>
<path d="M21.5625 30H15.9375C14.902 30 14.0625 30.8395 14.0625 31.875V56.25C14.0625 57.2855 14.902 58.125 15.9375 58.125H21.5625C22.598 58.125 23.4375 57.2855 23.4375 56.25V31.875C23.4375 30.8395 22.598 30 21.5625 30Z" fill="#0E0E0E"/>
<path d="M33.75 58.125H28.125C27.0938 58.125 26.25 57.2812 26.25 56.25V39.375C26.25 38.3438 27.0938 37.5 28.125 37.5H33.75C34.7812 37.5 35.625 38.3438 35.625 39.375V56.25C35.625 57.2812 34.7812 58.125 33.75 58.125ZM28.125 39.375V56.25H33.75V39.375H28.125Z" fill="#0E0E0E"/>
</svg>
