<svg width="364" height="212" viewBox="0 0 364 212" fill="none" xmlns="http://www.w3.org/2000/svg">
<path d="M283.998 211.995C127.344 211.995 0 84.6509 0 -72.0025C0 -228.656 127.344 -356 283.998 -356C440.651 -356 567.995 -228.656 567.995 -72.0025C567.995 84.6509 440.651 211.995 283.998 211.995ZM283.998 -352.362C129.365 -352.362 3.63841 -226.635 3.63841 -72.0025C3.63841 82.6296 129.365 208.357 283.998 208.357C438.63 208.357 564.357 82.6296 564.357 -72.0025C564.357 -226.635 438.63 -352.362 283.998 -352.362Z" fill="white"/>
<path d="M283.997 177.834C146.344 177.834 34.1604 65.852 34.1604 -72.003C34.1604 -209.656 146.142 -321.84 283.997 -321.84C421.852 -321.84 533.834 -209.858 533.834 -72.003C533.834 65.852 421.65 177.834 283.997 177.834ZM283.997 -318.202C148.366 -318.202 37.7988 -207.837 37.7988 -72.003C37.7988 63.6285 148.164 174.196 283.997 174.196C419.831 174.196 530.196 63.8307 530.196 -72.003C530.196 -207.635 419.629 -318.202 283.997 -318.202Z" fill="white"/>
<path d="M283.999 143.675C165.144 143.675 68.5244 46.8529 68.5244 -72.0016C68.5244 -190.856 165.144 -287.476 283.999 -287.476C402.853 -287.476 499.473 -190.856 499.473 -72.0016C499.473 46.8529 402.853 143.675 283.999 143.675ZM283.999 -283.837C167.166 -283.837 72.1628 -188.835 72.1628 -72.0016C72.1628 44.8316 167.166 139.834 283.999 139.834C400.832 139.834 495.835 44.8316 495.835 -72.0016C495.835 -188.835 400.832 -283.837 283.999 -283.837Z" fill="white"/>
<path d="M284 109.313C183.943 109.313 102.686 28.0556 102.686 -72.0007C102.686 -172.057 183.943 -253.315 284 -253.315C384.056 -253.315 465.314 -172.057 465.314 -72.0007C465.314 28.0556 384.056 109.313 284 109.313ZM284 -249.676C185.965 -249.676 106.324 -170.036 106.324 -72.0007C106.324 26.0342 185.965 105.675 284 105.675C382.034 105.675 461.675 26.0342 461.675 -72.0007C461.675 -170.036 382.034 -249.676 284 -249.676Z" fill="white"/>
</svg>
