<svg width="62" height="60" viewBox="0 0 62 60" fill="none" xmlns="http://www.w3.org/2000/svg">
<path d="M0.0944919 14.4951C1.6609 17.1442 -0.516359 27.0374 1.21332 33.1847C4.33899 44.2906 13.8766 52.5432 24.3112 59.4962C25.3285 60.1741 26.6546 60.1691 27.6603 59.4739C39.4663 51.3129 46.8673 46.8554 49.5253 39.6888C51.8325 33.4681 50.4266 26.0478 51.7525 19.5367C51.4582 18.9739 48.1905 12.9706 48.0225 12.907C48.0029 12.8997 47.9829 12.9029 47.9631 12.8974C40.5554 7.69954 33.3372 4.40695 24.5826 2.23899C24.5076 2.22037 24.2641 2.23212 24.2034 2.25128C15.7904 4.9161 8.66693 9.78052 0.398096 13.4364C-0.0795371 13.6475 -0.0524897 14.2467 0.0944919 14.4951ZM24.4378 3.64794C32.8423 5.75115 39.8109 8.92601 46.9383 13.893C44.9596 20.1366 48.2639 28.3475 46.1089 34.8616C42.9502 44.4049 32.8869 50.7889 24.317 55.7978C13.4649 51.2617 5.34224 42.693 2.55974 32.806C0.964707 27.1406 2.94226 18.0974 1.59299 14.4254C9.76964 10.7266 16.4399 6.21933 24.4378 3.64794Z" fill="black"/>
<path d="M9.45523 19.8731C10.3286 21.3517 9.06 27.4355 10.1061 31.1542C11.9064 37.5499 17.165 43.0757 24.1734 45.9365C24.5231 46.0801 24.7484 45.9042 24.9395 45.7923C30.4371 42.5803 36.6639 38.5852 38.6931 32.451C40.1272 28.1179 37.9844 22.8647 39.2917 19.4138C39.4287 19.0528 39.2466 18.6491 38.8857 18.5125C38.8645 18.5045 38.8428 18.5078 38.8214 18.5019C34.3714 16.4057 29.9417 14.3349 24.7355 12.064C24.6422 12.0237 24.4169 11.9829 24.2449 12.0385C19.4546 13.5556 14.8272 15.7305 9.68236 18.8826C9.33229 19.0968 9.26527 19.5516 9.45523 19.8731ZM37.3658 32.0113C35.4873 37.6887 29.4655 41.5223 24.3773 44.4999C17.9298 41.7648 13.1083 36.6598 11.4525 30.7755C10.5172 27.4539 11.6523 22.1879 10.9129 19.7767C15.6695 16.9035 19.9861 14.8818 24.4219 13.4536C29.3326 15.5995 33.5622 17.5716 37.7833 19.5594C36.7502 23.3622 38.611 28.2487 37.3658 32.0113Z" fill="black"/>
<path d="M31.5788 22.5331L22.9258 31.8583C22.1173 32.7309 21.919 32.6843 21.2708 31.9189L17.3722 27.3043C17.1232 27.0093 16.6826 26.972 16.3872 27.2214C16.0923 27.4704 16.0549 27.9115 16.3044 28.2064L20.203 32.821C21.4656 34.3187 22.6399 34.223 23.9509 32.8096L32.6038 23.4844C32.8665 23.2013 32.8501 22.7589 32.567 22.4962C32.2838 22.234 31.8419 22.25 31.5788 22.5331Z" fill="black"/>
<path d="M53.6211 0.0846313C53.2816 -0.0988053 52.8569 0.0254582 52.673 0.365476L48.6265 7.81719C48.4421 8.15676 48.5682 8.58098 48.9073 8.76533C49.2457 8.9483 49.6708 8.8253 49.8555 8.48449L53.902 1.03277C54.0863 0.693204 53.9603 0.268978 53.6211 0.0846313Z" fill="black"/>
<path d="M52.5087 10.8159L59.8789 7.41982C60.2294 7.25823 60.3828 6.84311 60.2212 6.49217C60.0592 6.14168 59.6436 5.98783 59.2936 6.14987L51.9233 9.54596C51.5729 9.70754 51.4195 10.1227 51.581 10.4736C51.7436 10.8264 52.161 10.9764 52.5087 10.8159Z" fill="black"/>
<path d="M60.3773 13.4277L53.627 13.0859C53.2264 13.0672 52.9133 13.3631 52.8932 13.7486C52.8737 14.1341 53.1705 14.4628 53.556 14.4823L60.3063 14.8242C60.3186 14.8246 60.3304 14.8251 60.3422 14.8251C60.7123 14.8251 61.0214 14.5347 61.04 14.1614C61.0596 13.7755 60.7628 13.4473 60.3773 13.4277Z" fill="black"/>
</svg>
