<svg width="55" height="60" viewBox="0 0 55 60" fill="none" xmlns="http://www.w3.org/2000/svg">
<path d="M0.764146 56.3711C-0.153396 56.2832 -0.292671 57.6436 0.60952 57.7513L1.49825 58.8312C1.8368 59.2426 2.31856 59.5231 2.84657 59.5944C4.67093 59.8407 6.4325 59.8982 8.26704 59.9982C8.87587 60.0312 9.42103 59.6213 9.5351 59.0222C9.79877 57.6382 10.0519 56.2181 10.3194 54.847C16.3123 58.6469 23.0861 60.3755 29.6466 59.7652C39.3019 58.8667 48.3032 52.113 50.0517 48.4355C50.3672 47.7717 50.6789 46.7584 50.6067 45.8911C51.4422 44.0146 50.1584 42.6497 48.8045 42.792C47.7379 42.9025 42.9025 45.7012 40.4327 46.5048C33.4538 48.7713 26.5472 48.9274 24.5532 48.5187C28.0932 46.6672 30.7239 43.7135 33.5698 41.2419C36.5456 38.659 35.6244 35.9512 33.3717 35.2441C29.8779 34.1983 27.2691 37.3873 23.9783 39.6067C21.8633 40.7679 19.6655 39.8243 17.2272 40.3813C15.1987 40.8447 12.8195 41.9363 10.713 42.2907C10.6728 41.775 10.6358 41.259 10.5747 40.7451C10.4037 39.3036 9.17619 38.2059 7.71838 38.1914C6.45241 38.1797 5.18644 38.0484 4.22498 37.9344C2.4822 37.7413 1.05156 39.2027 1.23334 40.9043C1.71747 45.4542 1.26185 49.1255 0.428877 53.2392C0.352412 53.6147 0.595833 53.9821 0.971823 54.0581C1.35143 54.1341 1.71521 53.8916 1.79077 53.5143C2.64953 49.2757 3.11827 45.4841 2.61514 40.7577C2.52519 39.9119 3.24974 39.2126 4.06254 39.3153C5.0584 39.433 6.37278 39.5696 7.70526 39.5814C8.47805 39.5886 9.10425 40.1469 9.19474 40.9089C9.84718 46.4035 9.25718 52.0329 7.48808 57.2262C5.248 56.9702 3.04928 56.6147 0.764146 56.3711ZM10.7955 43.6839C13.511 43.2672 17.899 41.1976 19.3035 41.5685C21.1064 41.5584 22.7978 41.8419 24.6841 40.803C27.5662 39.0157 30.1059 35.7221 32.9649 36.5734C34.2456 36.9763 34.7382 38.3907 32.6591 40.1922C29.5161 42.9212 26.9027 45.9459 23.2208 47.6351C23.1559 47.6649 23.1054 47.7107 23.0549 47.756C22.4417 47.6906 22.0863 48.3566 22.4073 48.8286C24.0221 51.2064 36.2139 50.3632 45.1785 45.9248C45.5313 45.7497 48.5658 44.2147 48.9565 44.1738C49.1538 44.1557 49.2343 44.2046 49.3153 44.3032C50.2637 45.4668 46.7478 48.1817 45.764 49.025C32.0506 60.3895 20.6159 55.5649 10.3103 52.0743C10.2898 52.058 10.2682 52.0441 10.246 52.0301C10.7312 49.284 10.9114 46.4802 10.7955 43.6839Z" fill="black"/>
<path d="M39.0286 13.0485C39.4354 12.8325 39.5136 12.3132 39.231 11.9843C35.5037 7.6484 31.2613 3.82396 27.6147 0.202362C27.3432 -0.0682063 26.9044 -0.0673014 26.6338 0.204172C23.7611 3.07685 19.5996 7.01977 15.0998 11.4585C14.6666 11.8868 14.9562 12.6287 15.5654 12.6485L15.574 12.6487C15.8439 12.9458 16.1015 13.2535 16.4217 13.5069C18.0427 13.6104 19.6097 13.6131 21.2201 13.5979C21.245 15.0103 21.1299 8.48133 21.4636 27.4112C21.4708 27.7904 21.7803 28.0935 22.1586 28.0935H22.1694L33.231 27.9207C33.437 27.9173 33.6153 27.8209 33.7404 27.6766C34.1845 27.4564 34.5532 27.289 35.006 26.9581C35.0096 26.9324 35.0062 26.954 35.006 26.9282C34.9807 22.7072 34.8888 18.2526 34.7159 13.8797C36.0096 13.8289 37.3048 13.7668 38.5975 13.7222C38.7949 13.4972 38.9044 13.2729 39.0286 13.0485ZM32.8736 11.6178C32.4557 11.5831 32.1095 11.9197 32.1207 12.3282C32.222 16.1393 32.4702 22.9668 32.518 26.5416L22.8404 26.6927C22.4913 6.76069 22.6117 13.6353 22.5857 12.1481C22.5793 11.778 22.2834 11.4775 21.9133 11.4649L17.2313 11.3119C20.5798 8.02735 24.6183 4.16465 27.127 1.67465C30.342 4.83973 33.8996 8.10733 37.1326 11.7029C35.8228 11.6848 33.5618 11.6757 32.8736 11.6178Z" fill="black"/>
<path d="M16.0815 22.0044C13.7401 19.281 11.0966 16.9004 8.80328 14.6221C8.53181 14.3515 8.09293 14.3524 7.82236 14.6239C6.08459 16.3616 3.40962 18.8998 0.610225 21.6605C0.367935 21.9001 0.316751 22.3068 0.573745 22.6059C0.730099 22.7297 0.435267 22.5112 1.54002 23.3857C2.49425 23.4466 3.41969 23.4504 4.36441 23.4431C4.36612 23.5397 4.52246 32.3809 4.51265 31.8263C4.51989 32.2054 4.82937 32.5086 5.20762 32.5086H5.21848L12.1361 32.4009C12.5406 32.3943 13.0693 31.7814 13.2187 31.3711C13.4001 30.8736 13.3797 30.3284 13.357 29.7993C13.0949 23.679 13.2585 24.1445 13.1016 23.7342C13.8771 23.7031 14.6534 23.6665 15.4283 23.6398C15.6252 23.4151 15.8222 23.1905 16.0191 22.9658C16.3246 22.6882 16.3065 22.2664 16.0815 22.0044ZM11.9302 21.6858C11.5351 21.6471 11.1656 21.9717 11.1773 22.3962C11.231 24.4266 11.3901 28.9444 11.4216 31.0218L5.88947 31.1078C5.88778 31.0111 5.72448 21.6882 5.73473 22.2731C5.7284 21.903 5.43249 21.6026 5.06238 21.5899L2.74355 21.5139C4.49399 19.8025 6.8623 17.5286 8.31553 16.0935C10.1218 17.8633 12.1346 19.7305 13.9767 21.7311C13.7972 21.7311 12.2957 21.7168 11.9302 21.6858Z" fill="black"/>
<path d="M54.5317 23.5119C52.2151 20.8165 49.558 18.4152 47.2531 16.1288C46.9811 15.8573 46.5423 15.8591 46.2721 16.1306C44.4898 17.913 41.9089 20.3583 39.0605 23.1672C38.684 23.5394 38.8408 24.1847 39.3672 24.3283C39.5882 24.5031 39.809 24.6779 40.03 24.8528C40.9705 24.913 41.8834 24.917 42.814 24.9103C42.8157 25.0069 42.9727 33.8885 42.9629 33.3338C42.9701 33.713 43.2796 34.0161 43.6578 34.0161H43.6687L50.5863 33.9085C50.7378 33.906 50.8696 33.8453 50.9825 33.7612C52.1447 33.6652 52.2778 32.3252 52.231 31.2331C51.9689 25.1133 52.1302 25.5948 51.9789 25.1824C52.599 25.1558 53.2192 25.1283 53.8386 25.107C53.9907 24.9333 54.1429 24.7599 54.295 24.5863C54.7445 24.38 54.8135 23.8414 54.5317 23.5119ZM50.3795 23.1934C49.9853 23.1531 49.6159 23.4807 49.6275 23.9038C49.6865 26.1272 49.8399 30.4248 49.8719 32.5294L44.3397 32.6153C44.338 32.5187 44.1747 23.1948 44.185 23.7798C44.1786 23.4097 43.8827 23.1093 43.5126 23.0966L41.1938 23.0206C43.0379 21.2178 45.3259 19.0232 46.7653 17.6002C48.5804 19.3785 50.5852 21.2389 52.426 23.2378C52.2341 23.2378 50.7477 23.2239 50.3795 23.1934Z" fill="black"/>
</svg>
