<svg width="61" height="60" viewBox="0 0 61 60" fill="none" xmlns="http://www.w3.org/2000/svg">
<path d="M41.0133 2.63574C40.9164 1.98528 40.6924 1.34656 40.5698 0.699488C39.1568 -0.0327018 38.8405 -0.1828 38.4826 0.215029L31.3831 8.11001C31.0252 8.5087 31.0307 9.16398 31.5733 9.37389C35.5659 10.9141 36.8124 11.395 41.8095 13.3227C42.5114 13.5927 43.2139 12.5726 43.6552 12.0288C43.5087 11.6322 43.2088 10.7116 43.0827 10.1075C49.4566 10.2178 55.7268 18.124 52.4784 24.6941C51.7331 26.2019 50.6765 27.5868 49.6547 28.9257C49.31 29.3769 49.626 30.0331 50.1988 30.0394L55.6991 32.3298C55.9755 32.4455 56.305 32.3701 56.5022 32.1292C66.6248 19.7775 56.8771 1.33785 41.0133 2.63574ZM55.7479 30.8473L51.3325 29.0081C52.2051 27.8495 53.0624 26.6441 53.7224 25.3093C57.6076 17.4345 49.6176 7.40596 41.2661 8.84449C41.259 8.84584 41.2538 8.85059 41.2469 8.85194C40.6869 8.77162 40.3301 9.3058 40.4995 9.76869C40.6723 10.2399 40.797 10.8448 40.9403 11.4992L32.9679 8.42372L38.7529 1.99047L39.0735 3.56942C39.1833 4.10972 39.668 4.1679 40.2172 4.09612C54.9042 2.07838 64.8673 18.941 55.7479 30.8473Z" fill="black"/>
<path d="M18.1299 55.2044C19.1503 55.2044 20.1726 55.1181 21.1843 54.9442C21.3398 55.5759 21.6164 56.1857 21.7941 56.8122C22.2021 56.9796 22.5322 57.123 22.9249 57.2253C23.2609 57.4979 23.6962 57.4026 23.9163 57.1097L30.2863 48.6148C30.6253 48.162 30.5235 47.5282 29.9841 47.3735C29.7515 47.3069 20.0924 44.5377 19.5626 44.3857C19.4701 44.3815 19.1376 44.175 18.7747 44.5221C18.7727 44.5185 18.7702 44.514 18.7681 44.5104C18.3085 44.9544 18.3469 44.9601 17.746 45.8524C17.9487 46.2797 18.251 47.2204 18.4516 47.6775C14.4772 47.9802 8.60573 45.1497 7.24728 38.7007C6.54972 35.3849 8.53755 32.2006 10.2371 29.5048C10.4418 29.1805 10.3447 28.7523 10.0203 28.5472C9.92764 28.4888 4.00672 26.68 3.91412 26.6518C3.62502 26.5624 3.30476 26.6699 3.13176 26.9228C0.402529 30.9331 -0.608397 35.9597 0.358262 40.7144C2.02784 48.9288 9.26231 55.2044 18.1299 55.2044ZM3.99723 28.1325L8.55882 29.5719C6.79841 32.4037 5.16976 35.5659 5.88944 38.9862C7.72343 47.6918 17.1025 50.4066 20.7267 48.6971C21.0732 48.5335 21.2218 48.1198 21.0583 47.7729C20.8434 47.3179 20.6661 46.7256 20.4655 46.0875L28.6804 48.4427L23.4892 55.3656L23.0296 53.8212C22.8723 53.2945 22.3772 53.2738 21.8438 53.3984C12.7177 55.4895 3.5838 49.6198 1.71791 40.438C0.872759 36.2796 1.72423 31.72 3.99723 28.1325Z" fill="black"/>
<path d="M16.8528 16.1134C17.5352 17.129 17.2022 18.7316 16.1775 19.3901C15.1574 20.052 13.5582 19.6935 12.9148 18.652C12.7124 18.3259 12.2842 18.2256 11.9599 18.4271C11.6338 18.6285 11.5326 19.0558 11.734 19.382C12.2345 20.1914 13.0955 20.7859 14.096 21.0126C14.1707 21.0294 14.2457 21.0253 14.3206 21.0377L14.2681 21.5348C14.2249 21.9399 14.5394 22.3027 14.9588 22.3027C15.3089 22.3027 15.6097 22.0389 15.6477 21.683L15.717 21.0307C16.1362 20.9477 16.5125 20.7992 16.8439 20.6002C18.6291 19.5285 19.1151 16.9926 18.0047 15.3401C16.6191 13.279 12.9889 12.8301 12.417 11.2557C12.1388 10.4896 12.6962 9.4272 13.3616 8.8183C14.0852 8.15519 15.6937 7.73058 16.435 8.00522C16.7932 8.13802 17.193 7.95553 17.3267 7.59597C17.4599 7.23641 17.277 6.8371 16.9174 6.7043C16.5767 6.57691 16.1851 6.52565 15.7741 6.53355L15.7877 5.93458C15.7963 5.55153 15.4927 5.23443 15.1097 5.2254C14.723 5.21004 14.4086 5.52082 14.4 5.90387L14.3805 6.76686C13.6144 6.99384 12.8961 7.36311 12.4243 7.79472C11.4341 8.70176 10.6007 10.3198 11.1125 11.7291C11.9766 14.1077 15.6658 14.3473 16.8528 16.1134Z" fill="black"/>
<path d="M41.0026 52.2131C40.9959 52.5962 41.3008 52.9124 41.6838 52.9196H41.6969C41.7081 52.9196 41.7175 52.9137 41.7285 52.9133C41.8178 53.094 41.9753 53.2387 42.187 53.2873C42.9463 53.4603 43.725 53.5475 44.5068 53.5479L44.5156 54.3723C44.5197 54.7526 44.8295 55.0589 45.2094 55.0589H45.2166C45.5997 55.0553 45.9073 54.7409 45.9032 54.3579L45.8935 53.4368C46.9731 53.2613 47.8361 52.8711 48.4513 52.2565C49.5029 51.2058 49.7477 49.4685 49.0471 48.0312C48.6436 47.2046 47.9559 46.4818 47.0664 45.9179C49.0672 44.865 49.3207 42.9434 48.3836 41.2565C47.6283 39.8974 46.1705 38.8674 44.356 38.7807L44.175 37.7115C44.1113 37.3329 43.7499 37.0745 43.3755 37.1432C42.9974 37.2073 42.7431 37.5651 42.8072 37.9427L42.9686 38.8956C42.1869 39.0627 41.4563 39.3932 40.8947 39.8688C40.7244 40.0125 40.6336 40.2302 40.6512 40.4524C40.9561 44.3516 41.0745 48.3077 41.0026 52.2131ZM47.4707 51.2754C46.0846 52.6586 43.0452 51.9778 42.3923 51.9313C42.4211 50.1034 42.4121 48.2663 42.3591 46.4285C42.7865 46.7023 44.3237 46.694 45.238 46.5257C45.6327 46.7503 47.1283 47.2643 47.8 48.6392C48.2454 49.5526 48.1094 50.6367 47.4707 51.2754ZM47.1707 41.9304C47.8809 43.2103 47.5527 44.2669 46.0397 44.8747C45.0463 45.2749 43.9189 45.3797 42.8687 45.162C42.669 45.1231 42.4734 45.171 42.3207 45.2821C42.2629 43.7589 42.1771 42.2385 42.0637 40.7262C43.6663 39.686 46.1246 40.0478 47.1707 41.9304Z" fill="black"/>
<path d="M17.3029 0.100299C15.99 0.131467 13.0367 0.322314 11.8668 1.35831C6.63147 2.99485 2.8357 7.94288 2.88375 13.7501C2.92898 19.1875 6.33351 23.8074 11.0845 25.6479C20.1361 30.1037 31.9803 22.1385 30.7091 11.6717C29.9438 5.37073 24.5073 -0.0706947 17.3029 0.100299ZM4.2714 13.7392C4.219 7.41077 9.27363 2.21972 15.5393 2.16823H15.6351C21.8663 2.16823 26.9448 7.23332 26.9969 13.5504C27.05 19.8808 22.0225 25.0689 15.7295 25.1214C9.18647 25.1214 4.32221 19.8442 4.2714 13.7392Z" fill="black"/>
<path d="M52.4039 34.4844C49.7665 33.1914 47.0033 32.9577 44.1133 33.3339C37.1267 33.4909 31.5944 39.261 31.6527 46.293C31.6867 50.3866 33.6287 54.0145 36.6101 56.3476C39.3095 59.0094 42.6199 60.0995 45.8849 59.9929C53.4202 59.747 60.7137 53.1272 59.6956 44.7441C59.1683 40.4025 56.3307 36.4101 52.4039 34.4844ZM33.0403 46.2822C32.9872 39.9518 38.0147 34.7637 44.3078 34.7112H44.4035C50.6345 34.7112 55.7137 39.7781 55.7658 46.0934C55.7916 49.1605 54.6325 52.0532 52.5031 54.2386C50.5218 56.2725 48.1348 57.3398 45.7217 57.6009C39.4983 58.2741 33.1011 53.5847 33.0403 46.2822Z" fill="black"/>
</svg>
