<svg width="53" height="60" viewBox="0 0 53 60" fill="none" xmlns="http://www.w3.org/2000/svg">
<path d="M47.4789 16.4L46.0989 15.2569C45.0268 14.3725 43.4628 14.6393 42.7148 15.8244L39.3307 21.1841C39.2774 14.4172 39.1811 9.17954 39.0211 4.42612C38.961 2.40025 37.212 0.0127528 35.1406 0C18.3309 0.1692 6.2058 0.140003 5.36063 0.342503C3.69685 0.59232 2.28232 1.78596 1.60716 3.34561C0.609155 5.65099 0.910917 4.84998 0.00930966 49.0934C-0.0704315 53.0091 0.28553 56.5257 4.1313 57.8761C4.50244 58.1217 4.9103 58.2969 5.34537 58.3918C8.64838 59.9696 12.2097 59.9826 15.9057 59.9819C30.8142 59.9789 37.1465 60.2766 43.661 58.5677C45.6772 58.039 45.6539 56.4615 43.6841 56.2733C41.9801 56.1104 40.285 56.2986 38.5957 56.5998C39.3354 55.6332 39.7679 54.4061 39.7261 53.0961C39.5417 47.1181 39.4683 40.9146 39.429 35.3861L42.6593 40.9008C43.0818 41.6233 43.8359 42.0631 44.6405 42.0631C45.8241 42.0631 46.3306 41.2393 47.4415 40.4691C48.4035 39.7121 48.6549 38.3302 48.0273 37.2554L44.7476 31.6396H50.5031C51.7857 31.6396 52.8296 30.5474 52.8296 29.2056V27.0805C52.8296 25.7387 51.7857 24.6465 50.5031 24.6465H44.8271L47.9781 19.6502C48.6485 18.5862 48.4335 17.1889 47.4789 16.4ZM3.88085 4.11823C3.88905 2.76006 4.91018 1.64875 6.16086 1.64055C9.36908 1.60498 35.723 1.39916 35.1725 1.39916C36.3895 1.39916 37.5827 3.12078 37.6219 4.47075C37.6628 5.68528 37.6994 6.93386 37.7324 8.22735C0.384547 8.24086 4.20215 8.20503 3.86867 8.24249C3.87311 6.85125 3.87732 5.47127 3.88085 4.11823ZM3.86417 9.61046C4.19773 9.65007 0.469062 9.61241 37.7656 9.62651C37.8397 12.8714 37.8922 16.4452 37.9271 20.6099L34.9001 16.268C34.5266 15.7314 33.9746 15.3853 33.3461 15.2924C31.9327 15.0856 31.2585 16.1771 30.228 16.8564C28.8922 17.9083 28.4399 19.5847 29.2908 20.8906C29.6486 21.4397 31.678 24.0475 32.2289 24.6465H27.7823C26.4997 24.6465 25.4558 25.7387 25.4558 27.0805V29.2056C25.4558 29.8223 25.6833 30.3799 26.0462 30.8093C26.5842 31.9371 28.0962 32.3773 29.3515 32.4151C30.3312 32.4447 31.3188 32.3033 32.2938 32.3314L29.3126 37.0531C28.6422 38.1162 28.8562 39.5135 29.809 40.3033L30.648 40.9994C31.0552 41.4043 31.3796 41.8042 31.9809 42.0241C32.7848 42.3181 33.4374 42.5378 34.2897 42.108C34.6562 41.9232 35.0765 41.5426 35.3391 41.2265C36.4076 39.9403 37.252 38.4692 38.0422 36.9694C38.0737 40.8124 38.1252 44.9212 38.2189 49.0309C38.1459 49.005 38.07 48.9843 37.9881 48.9843H3.69799C3.74647 36.324 3.82153 22.3408 3.86417 9.61046ZM34.8373 57.2262C23.5429 58.0023 14.3336 57.9558 5.85206 57.0768C4.67426 56.9547 3.67863 55.7551 3.67863 54.4597C3.6829 53.1223 3.68774 51.7585 3.69281 50.3834H37.9881C38.0807 50.3834 38.1682 50.3634 38.2491 50.3307C38.2727 51.2704 38.2983 52.2084 38.327 53.1407C38.3953 55.2568 36.8294 57.0895 34.8373 57.2262ZM46.7939 18.9041C42.6017 25.5705 42.8354 25.0677 42.8735 25.4192C42.8934 25.6044 42.9785 25.7645 43.1292 25.8849C43.1496 25.9013 43.1622 25.9239 43.1848 25.9382C43.2637 25.9878 43.4379 26.0457 43.5574 26.0457H50.5031C51.0141 26.0457 51.4304 26.5103 51.4304 27.0805V29.2056C51.4304 29.7759 51.0141 30.2404 50.5031 30.2404C42.7992 30.2487 43.388 30.184 43.114 30.3918C42.9576 30.5106 42.87 30.6633 42.8464 30.8567C42.8429 30.8853 42.8296 30.9105 42.8296 30.94C42.8296 30.9937 42.8904 31.2329 42.9252 31.2925L46.8194 37.9604C47.0927 38.4286 46.9852 39.048 46.5753 39.3705L45.1761 40.4745C44.7417 40.82 44.1493 40.6775 43.8671 40.194C39.0888 32.0467 39.3601 32.4539 39.1776 32.33C39.1705 32.3252 39.1669 32.3174 39.1595 32.3128C39.1317 32.295 39.1002 32.2921 39.0711 32.2789C38.9344 32.2167 38.9269 32.2182 38.798 32.2164C38.6605 32.2138 38.6591 32.2144 38.5295 32.2668C38.4974 32.2796 38.4633 32.282 38.4326 32.3C38.3994 32.3195 38.2383 32.4742 38.2127 32.5118C38.2076 32.5191 38.1997 32.5229 38.1949 32.5305L33.3944 40.1375C33.0921 40.6167 32.5044 40.718 32.0836 40.3725L30.7017 39.2266C30.2945 38.8886 30.2044 38.2628 30.4959 37.8001C34.9803 30.6768 34.7224 31.2184 34.6841 30.8674C34.664 30.6767 34.5748 30.5173 34.4261 30.3997C34.4065 30.3841 34.3944 30.3625 34.3727 30.3488C34.1287 30.1933 34.1522 30.2497 27.7823 30.2404C27.2712 30.2404 26.8549 29.7759 26.8549 29.2056V27.0805C26.8549 26.5103 27.2712 26.0457 27.7823 26.0457C34.2789 26.0456 34.3704 26.115 34.6496 25.9163C34.7266 25.8228 34.8372 25.767 34.9042 25.5425C34.9244 25.4745 34.9438 25.3524 34.9438 25.3461C34.9438 25.3398 34.9174 25.1856 34.9012 25.1351C34.8115 24.8572 34.8351 25.0169 30.9012 19.4434C30.5706 18.9797 30.6589 18.2975 31.0934 17.955L32.4871 16.8573C32.9014 16.5318 33.452 16.6388 33.7524 17.0677C38.6147 24.0176 38.3571 23.8223 38.7635 23.8923C38.7871 23.8964 39.0098 23.8911 39.0319 23.8863C39.121 23.8667 39.2064 23.8305 39.2824 23.7775C39.4971 23.6276 39.2284 23.933 43.8972 16.5713C44.0466 16.3354 44.2697 16.1832 44.5257 16.1423C44.7671 16.1031 45.0103 16.1723 45.2071 16.3345L46.5871 17.4777C46.9952 17.8147 47.0854 18.4414 46.7939 18.9041Z" fill="black"/>
<path d="M15.1178 5.96923H21.8813C22.2675 5.96923 22.5809 5.65587 22.5809 5.26965C22.5809 4.88342 22.2675 4.57007 21.8813 4.57007H15.1178C14.7316 4.57007 14.4182 4.88342 14.4182 5.26965C14.4182 5.65587 14.7316 5.96923 15.1178 5.96923Z" fill="black"/>
<path d="M24.9037 4.93351C24.583 4.21386 23.551 4.46775 23.551 5.20405C23.551 5.39078 23.6257 5.5675 23.756 5.69867C24.3014 6.20516 25.1613 5.69782 24.9037 4.93351Z" fill="black"/>
<path d="M20.1189 51.7086C19.1642 51.7086 18.3903 52.7614 18.3903 54.06C18.3903 55.3586 19.1642 56.4114 20.1189 56.4114C21.0736 56.4114 21.8476 55.3586 21.8476 54.06C21.8476 52.7614 21.0736 51.7086 20.1189 51.7086Z" fill="black"/>
<path d="M25.6607 22.085C25.6607 21.6988 25.3474 21.3854 24.9612 21.3854H9.14501C8.75879 21.3854 8.44543 21.6988 8.44543 22.085C8.44543 22.4712 8.75879 22.7846 9.14501 22.7846H24.9612C25.3474 22.7846 25.6607 22.4712 25.6607 22.085Z" fill="black"/>
<path d="M19.686 30.8162C19.686 30.4299 19.3727 30.1166 18.9865 30.1166H7.80139C7.41516 30.1166 7.10181 30.4299 7.10181 30.8162C7.10181 31.2024 7.41516 31.5157 7.80139 31.5157H18.9865C19.3727 31.5157 19.686 31.2024 19.686 30.8162Z" fill="black"/>
<path d="M22.4197 37.3364H9.14501C8.75879 37.3364 8.44543 37.6498 8.44543 38.036C8.44543 38.4222 8.75879 38.7356 9.14501 38.7356H22.4197C22.806 38.7356 23.1193 38.4222 23.1193 38.036C23.1193 37.6498 22.806 37.3364 22.4197 37.3364Z" fill="black"/>
</svg>
