<svg width="32" height="33" viewBox="0 0 32 33" fill="none" xmlns="http://www.w3.org/2000/svg">
<path d="M16.0008 30.5969C11.5623 30.5969 7.95239 26.9874 7.95239 22.5489C7.95239 18.1122 11.5623 14.502 16.0008 14.502C20.4378 14.502 24.048 18.1122 24.048 22.5489C24.0484 26.9874 20.4378 30.5969 16.0008 30.5969Z" stroke="white" stroke-width="1.5" stroke-miterlimit="10" stroke-linecap="round" stroke-linejoin="round"/>
<path d="M25.6966 12.7116C24.7747 12.7116 23.9213 12.9812 23.1829 13.4241C23.1829 13.4037 23.1873 13.3856 23.1873 13.3663C23.1873 9.39802 19.9692 6.18066 15.9998 6.18066C12.0311 6.18066 8.81558 9.39802 8.81558 13.3663C8.81558 13.386 8.8178 13.4048 8.8178 13.4241C8.08089 12.982 7.22744 12.7116 6.30481 12.7116C3.58872 12.7116 1.38574 14.9138 1.38574 17.6303C1.38574 20.3471 3.58872 22.5493 6.30481 22.5493H7.95289C7.95289 18.1127 11.5627 14.5021 16.0013 14.5021C20.4383 14.5021 24.0485 18.1127 24.0485 22.5493H25.6966C28.4127 22.5493 30.6149 20.3471 30.6149 17.6303C30.6149 14.9138 28.4127 12.7116 25.6966 12.7116Z" stroke="white" stroke-width="2" stroke-miterlimit="10" stroke-linecap="round" stroke-linejoin="round"/>
<path d="M16.0008 30.5723C18.2169 30.5723 20.0135 26.9799 20.0135 22.5484C20.0135 18.1169 18.2169 14.5244 16.0008 14.5244C13.7846 14.5244 11.988 18.1169 11.988 22.5484C11.988 26.9799 13.7846 30.5723 16.0008 30.5723Z" stroke="white" stroke-width="1.1" stroke-miterlimit="10" stroke-linecap="round" stroke-linejoin="round"/>
<path d="M16.0002 30.5716C20.4315 30.5716 24.0237 26.9793 24.0237 22.548C24.0237 18.1167 20.4315 14.5244 16.0002 14.5244C11.5688 14.5244 7.97656 18.1167 7.97656 22.548C7.97656 26.9793 11.5688 30.5716 16.0002 30.5716Z" stroke="white" stroke-width="1.1" stroke-miterlimit="10" stroke-linecap="round" stroke-linejoin="round"/>
<path d="M16.0012 14.5244V30.5727" stroke="white" stroke-width="1.1" stroke-miterlimit="10" stroke-linecap="round" stroke-linejoin="round"/>
<path d="M16.0011 18.5371C20.4319 18.5371 24.024 20.3335 24.024 22.5483C24.024 24.7624 20.4319 26.5611 16.0011 26.5611C11.5696 26.5611 7.97681 24.7628 7.97681 22.5483C7.97681 20.3335 11.5696 18.5371 16.0011 18.5371Z" stroke="white" stroke-width="1.1" stroke-miterlimit="10" stroke-linecap="round" stroke-linejoin="round"/>
<path d="M16.0013 30.5723C20.4328 30.5723 24.0252 26.9799 24.0252 22.5484C24.0252 18.1169 20.4328 14.5244 16.0013 14.5244C11.5697 14.5244 7.97729 18.1169 7.97729 22.5484C7.97729 26.9799 11.5697 30.5723 16.0013 30.5723Z" stroke="white" stroke-width="1.1" stroke-miterlimit="10" stroke-linecap="round" stroke-linejoin="round"/>
<path d="M7.97681 22.5498H24.0236" stroke="white" stroke-width="1.1" stroke-miterlimit="10" stroke-linecap="round" stroke-linejoin="round"/>
</svg>
