<svg width="50" height="53" viewBox="0 0 50 53" fill="none" xmlns="http://www.w3.org/2000/svg">
<path d="M38.2923 17.4356V11.2655C39.109 10.8844 39.8005 10.2796 40.2863 9.52145C40.7721 8.76329 41.0322 7.88298 41.0364 6.98297V6.84127C41.0364 4.21717 38.9056 2.0899 36.2772 2.0899H36.1353C34.8731 2.0899 33.6625 2.59049 32.77 3.48154C31.8775 4.3726 31.3761 5.58113 31.3761 6.84127V6.98297C31.3803 7.88298 31.6404 8.76329 32.1262 9.52145C32.612 10.2796 33.3035 10.8844 34.1202 11.2655V17.4356C31.7729 17.7945 29.5623 18.7661 27.7121 20.2522L10.7624 7.07219C10.8833 6.63659 10.9464 6.18874 10.9534 5.73915C10.9555 4.68024 10.6429 3.64451 10.0553 2.76296C9.46773 1.88141 8.63146 1.19365 7.65228 0.786666C6.67311 0.379683 5.59502 0.271766 4.5544 0.476566C3.51379 0.681366 2.55738 1.18968 1.80617 1.93721C1.05496 2.68475 0.542688 3.63792 0.334151 4.67615C0.125615 5.71439 0.230194 6.79104 0.634641 7.76994C1.03909 8.74884 1.72524 9.58599 2.60631 10.1755C3.48738 10.765 4.52379 11.0804 5.58443 11.0818C6.51234 11.0775 7.42288 10.8301 8.22511 10.3646L24.9155 23.3311C23.4161 25.5925 22.6339 28.2524 22.6708 30.9641C22.7077 33.6758 23.5619 36.3135 25.1223 38.5334L20.0459 43.6032C19.6356 43.4721 19.208 43.4026 18.7773 43.3967C17.9067 43.3974 17.0558 43.6558 16.3322 44.1391C15.6086 44.6224 15.0447 45.3091 14.7118 46.1122C14.379 46.9154 14.2921 47.799 14.4621 48.6515C14.6321 49.5039 15.0514 50.287 15.6671 50.9016C16.2827 51.5162 17.067 51.9348 17.9208 52.1046C18.7747 52.2743 19.6598 52.1875 20.4643 51.8552C21.2688 51.5229 21.9565 50.96 22.4407 50.2376C22.9248 49.5151 23.1835 48.6657 23.1842 47.7965C23.1786 47.3664 23.1089 46.9395 22.9775 46.5299L27.9995 41.5144C29.6371 42.7731 31.5416 43.6408 33.5671 44.0512C35.5925 44.4616 37.6852 44.4036 39.6847 43.8818C41.6843 43.36 43.5377 42.3882 45.1029 41.0408C46.6682 39.6934 47.9038 38.0062 48.715 36.1085C49.5262 34.2107 49.8916 32.1527 49.7831 30.0922C49.6746 28.0317 49.0951 26.0234 48.0891 24.221C47.083 22.4186 45.6771 20.87 43.979 19.6939C42.2809 18.5177 40.3357 17.7453 38.2923 17.4356ZM36.2106 37.7287C35.2825 37.7542 34.3587 37.5937 33.4937 37.2567C32.6288 36.9197 31.8403 36.4131 31.1748 35.7667C30.5093 35.1203 29.9803 34.3473 29.6191 33.4934C29.2579 32.6394 29.0718 31.7219 29.0718 30.7949C29.0718 29.868 29.2579 28.9504 29.6191 28.0965C29.9803 27.2425 30.5093 26.4696 31.1748 25.8232C31.8403 25.1768 32.6288 24.6701 33.4937 24.3332C34.3587 23.9962 35.2825 23.8357 36.2106 23.8612C38.0095 23.9241 39.7137 24.6815 40.9643 25.9739C42.2149 27.2663 42.9143 28.9928 42.9152 30.7898C42.9161 32.5868 42.2185 34.314 40.9692 35.6077C39.7198 36.9013 38.0164 37.6605 36.2176 37.7252" fill="#FF5C35"/>
</svg>
