<svg width="55" height="54" viewBox="0 0 55 54" fill="none" xmlns="http://www.w3.org/2000/svg">
<path d="M43.1742 23.7638C34.5848 18.6628 20.4163 18.1937 12.2167 20.6827C10.9 21.082 9.50754 20.3387 9.10852 19.022C8.7095 17.7047 9.45218 16.3132 10.7698 15.9129C20.1825 13.0554 35.8299 13.6075 45.7182 19.4773C46.9025 20.1803 47.2911 21.7098 46.5891 22.8923C45.8865 24.0766 44.3557 24.467 43.1742 23.7638ZM42.8929 31.3192C42.2903 32.297 41.0117 32.6037 40.0352 32.0033C32.8741 27.6016 21.9545 26.3266 13.4825 28.898C12.3837 29.2302 11.2233 28.6107 10.8898 27.5141C10.5586 26.4154 11.1784 25.2571 12.2749 24.923C21.9532 21.9864 33.9846 23.4087 42.2094 28.463C43.186 29.0644 43.4934 30.3439 42.8929 31.3192ZM39.6324 38.5751C39.1535 39.3604 38.1311 39.6064 37.3486 39.1278C31.091 35.3034 23.2149 34.4398 13.9394 36.5583C13.0456 36.7633 12.155 36.2032 11.951 35.3094C11.7464 34.4159 12.3042 33.5249 13.2002 33.321C23.3505 31.0007 32.0576 31.9992 39.0812 36.2911C39.8643 36.7693 40.1109 37.7923 39.6324 38.5751ZM27.4116 0.140625C12.6949 0.140625 0.764404 12.0709 0.764404 26.7874C0.764404 41.5054 12.6949 53.4347 27.4116 53.4347C42.1286 53.4347 54.0585 41.5054 54.0585 26.7874C54.0585 12.0709 42.1286 0.140625 27.4116 0.140625Z" fill="#1ED760"/>
</svg>
