<svg width="53" height="52" viewBox="0 0 53 52" fill="none" xmlns="http://www.w3.org/2000/svg">
<path d="M26.1619 0.229004C11.8676 0.229004 0.317383 11.8006 0.317383 26.0735C0.317383 37.0282 7.12418 46.3875 16.7387 50.1526C16.5048 48.1105 16.3134 44.9624 16.8239 42.7289C17.2918 40.7081 19.8444 29.8811 19.8444 29.8811C19.8444 29.8811 19.0786 28.3282 19.0786 26.0522C19.0786 22.4574 21.1632 19.7772 23.7583 19.7772C25.9705 19.7772 27.0341 21.4364 27.0341 23.4146C27.0341 25.6269 25.6301 28.9451 24.8857 32.0294C24.2688 34.6033 26.1832 36.7091 28.7145 36.7091C33.3091 36.7091 36.8401 31.8593 36.8401 24.8823C36.8401 18.6924 32.3944 14.3744 26.0343 14.3744C18.6745 14.3744 14.3565 19.8836 14.3565 25.5843C14.3565 27.7965 15.2073 30.1788 16.2709 31.4764C16.4835 31.7317 16.5048 31.9656 16.441 32.2209C16.2496 33.0292 15.8029 34.7947 15.7178 35.1564C15.6115 35.6243 15.3349 35.7307 14.8456 35.4967C11.655 33.9652 9.65547 29.243 9.65547 25.4566C9.65547 17.3098 15.5689 9.82232 26.7362 9.82232C35.6914 9.82232 42.6684 16.2037 42.6684 24.7547C42.6684 33.6673 37.0529 40.8357 29.2676 40.8357C26.6512 40.8357 24.1837 39.4744 23.3542 37.8578C23.3542 37.8578 22.0566 42.7927 21.7375 44.0051C21.1632 46.2599 19.5891 49.0677 18.5256 50.7907C20.9505 51.5352 23.5031 51.9394 26.1832 51.9394C40.4562 51.9394 52.0278 40.3677 52.0278 26.0947C52.0065 11.8006 40.4349 0.229004 26.1619 0.229004Z" fill="#E60019"/>
</svg>
