<svg width="52" height="47" viewBox="0 0 52 47" fill="none" xmlns="http://www.w3.org/2000/svg">
<path d="M3.97018 39.9025L6.25521 43.8493C6.73002 44.6802 7.41257 45.333 8.21381 45.8078L16.3746 31.6824H0.0529785C0.0529785 32.6023 0.290385 33.5223 0.765197 34.3532L3.97018 39.9025Z" fill="#1967D2"/>
<path d="M25.9599 15.0647L17.7991 0.939237C16.9978 1.41404 16.3153 2.0669 15.8405 2.89781L0.765197 29.0121C0.299117 29.8251 0.0535991 30.7453 0.0529785 31.6824H16.3746L25.9599 15.0647Z" fill="#34A853"/>
<path d="M43.7059 45.8078C44.5071 45.333 45.1897 44.6802 45.6645 43.8493L46.6141 42.2171L51.1545 34.3532C51.6293 33.5223 51.8667 32.6023 51.8667 31.6824H35.5438L39.0171 38.5077L43.7059 45.8078Z" fill="#EA4335"/>
<path d="M25.9585 15.0642L34.1194 0.93877C33.3181 0.463965 32.3982 0.226562 31.4486 0.226562H20.4685C19.5189 0.226562 18.599 0.49364 17.7977 0.93877L25.9585 15.0642Z" fill="#188038"/>
<path d="M35.5448 31.6824H16.3746L8.21381 45.8078C9.01506 46.2826 9.93464 46.5201 10.8843 46.5201H41.0348C41.9845 46.5201 42.9046 46.253 43.7059 45.8078L35.5448 31.6824Z" fill="#4285F4"/>
<path d="M43.6167 15.9549L36.079 2.89774C35.6042 2.06683 34.9217 1.41397 34.1204 0.939168L25.9599 15.0647L35.5448 31.6824L51.8368 31.6828C51.8368 30.7629 51.5994 29.8429 51.1246 29.012L43.6167 15.9549Z" fill="#FBBC05"/>
</svg>
