<svg width="52" height="44" viewBox="0 0 52 44" fill="none" xmlns="http://www.w3.org/2000/svg">
<path d="M23.3217 1.01743L4.00367 9.0104C2.92941 9.45496 2.94054 10.981 4.02154 11.4095L23.4201 19.1017C25.1245 19.7776 27.0226 19.7776 28.727 19.1017L48.1258 11.4092C49.2065 10.981 49.2182 9.45525 48.1434 9.01069L28.8259 1.01714C27.0636 0.287907 25.0838 0.287907 23.3214 1.01714" fill="#FCB400"/>
<path d="M27.7944 23.3006V42.5171C27.7944 43.4308 28.7161 44.0569 29.5657 43.7202L51.1816 35.3304C51.4227 35.2348 51.6295 35.069 51.7752 34.8545C51.9209 34.64 51.9988 34.3866 51.9987 34.1273V14.9111C51.9987 13.9971 51.0771 13.3713 50.2274 13.7081L28.6116 22.0979C28.3705 22.1935 28.1638 22.3593 28.0181 22.5738C27.8724 22.7883 27.7945 23.0416 27.7944 23.3009" fill="#18BFFF"/>
<path d="M22.7473 24.2925L16.3322 27.3898L15.6808 27.7046L2.13887 34.1929C1.28075 34.607 0.184814 33.9814 0.184814 33.0279V14.9919C0.184814 14.6469 0.361711 14.3491 0.598939 14.1251C0.696261 14.0282 0.806672 13.9454 0.926958 13.8791C1.25029 13.6849 1.71186 13.6331 2.10431 13.7883L22.6395 21.9245C23.6833 22.3386 23.7653 23.8011 22.7473 24.2928" fill="#F82B60"/>
<path d="M22.745 24.294L16.3299 27.3912L0.59668 14.1262C0.694021 14.0294 0.804431 13.9467 0.924699 13.8805C1.24803 13.6864 1.7096 13.6345 2.10205 13.7897L22.6372 21.9259C23.681 22.34 23.763 23.8026 22.745 24.2943" fill="#BA1E45"/>
</svg>
