<svg width="44" height="49" viewBox="0 0 44 49" fill="none" xmlns="http://www.w3.org/2000/svg">
<path d="M22.4024 0.650391H20.8792C20.2019 0.800924 19.5657 1.08365 18.9729 1.4371C16.4071 2.91982 13.8388 4.39918 11.2705 5.87852C8.2858 7.59773 5.30113 9.31692 2.32043 11.0413C1.17811 11.7095 0.359477 12.877 0.181641 14.1973V35.0409C0.27973 36.3885 1.06866 37.6154 2.2405 38.2786C3.50316 39.0255 4.77607 39.7566 6.04901 40.4876C6.93698 40.9976 7.82496 41.5076 8.70948 42.023C9.17467 42.3399 9.86568 42.406 10.2943 41.9932C10.5473 41.71 10.7179 41.3701 10.8874 41.0323C10.9485 40.9106 11.0095 40.7891 11.0742 40.6707C13.5885 35.8392 16.1051 31.009 18.6239 26.1799C18.6814 26.0692 18.742 25.9582 18.8029 25.8466C19.1308 25.2457 19.4692 24.6255 19.4038 23.9179C19.438 22.5361 18.202 21.266 16.8158 21.2865C15.9062 21.2752 14.9958 21.2792 14.0852 21.2832C12.9824 21.2881 11.8794 21.293 10.7778 21.2706C8.58643 21.1746 6.76916 18.9857 7.11797 16.8126C7.35294 14.9793 9.01968 13.4402 10.8804 13.4242C16.2005 13.4182 21.5201 13.4191 26.8394 13.4201C31.638 13.4209 36.4363 13.4217 41.2347 13.4175C41.8686 13.5109 42.4226 12.9112 42.2471 12.2864C41.9974 11.7099 41.4423 11.3557 40.9229 11.0243C40.8588 10.9834 40.7953 10.9428 40.733 10.9023C38.1196 9.39638 35.5063 7.8899 32.893 6.38342C30.3622 4.92449 27.8314 3.46556 25.3006 2.00717C25.1832 1.93938 25.066 1.87058 24.9486 1.80168C24.1418 1.32825 23.326 0.849471 22.4024 0.650391Z" fill="#000008"/>
<path d="M35.295 21.2793C32.1095 21.2382 29.0108 23.1444 27.5674 25.9766C26.0911 28.8256 24.6059 31.6704 23.1206 34.5155C21.004 38.5697 18.8872 42.6243 16.7956 46.6924C17.2271 46.9131 17.6464 47.1635 18.0659 47.414C18.9985 47.9709 19.9322 48.5285 21.0048 48.7629H22.2567C23.1643 48.6076 23.965 48.1417 24.7492 47.6854C24.7826 47.666 24.816 47.6466 24.8493 47.6272C26.2658 46.8108 27.6822 45.9942 29.0987 45.1775C32.7262 43.0862 36.354 40.9946 39.9831 38.9053L40.0302 38.8788C40.9234 38.3764 41.8543 37.8528 42.4549 36.997C42.9406 36.3105 43.0979 35.4509 43.1092 34.6254C43.1078 31.6611 43.1083 28.6968 43.1088 25.7325C43.109 24.2504 43.1092 22.7682 43.1092 21.2861C41.8918 21.2829 40.6748 21.2832 39.458 21.2834C38.0701 21.2838 36.6826 21.2841 35.295 21.2793Z" fill="#000008"/>
</svg>
