<svg width="30" height="31" viewBox="0 0 30 31" fill="none" xmlns="http://www.w3.org/2000/svg">
<g clip-path="url(#clip0_4476_13047)">
<path d="M20.0946 0.730469H9.95973C8.23671 0.730469 6.77271 2.13538 6.77271 3.85793V27.6066C6.77271 29.3291 8.20574 30.7305 9.92876 30.7305L20.0803 30.7195C21.8031 30.7195 23.2125 29.3179 23.2125 27.5951L23.2273 3.85626C23.2271 2.12752 21.8245 0.730469 20.0946 0.730469ZM13.563 2.60551H16.5034C16.7617 2.60551 16.9721 2.8152 16.9721 3.07422C16.9721 3.33323 16.7617 3.54292 16.5034 3.54292H13.563C13.304 3.54292 13.0943 3.33323 13.0943 3.07422C13.0943 2.8152 13.304 2.60551 13.563 2.60551ZM11.7962 2.75468C11.9699 2.58121 12.2861 2.57883 12.4596 2.75468C12.5465 2.84141 12.598 2.96318 12.598 3.08756C12.598 3.20956 12.5465 3.33108 12.4596 3.41806C12.3731 3.50503 12.2508 3.55626 12.1291 3.55626C12.0049 3.55626 11.8855 3.50503 11.7962 3.41806C11.7097 3.33132 11.6604 3.20956 11.6604 3.08756C11.6601 2.96318 11.7097 2.84141 11.7962 2.75468ZM14.9386 29.8014C14.1652 29.8014 13.5361 29.1719 13.5361 28.3986C13.5361 27.6252 14.1652 26.9959 14.9386 26.9959C15.7121 26.9959 16.3412 27.6252 16.3412 28.3986C16.3412 29.1719 15.7119 29.8014 14.9386 29.8014ZM21.7723 26.0425H8.41328V5.18373H21.7723V26.0425Z" fill="white"/>
</g>
<defs>
<clipPath id="clip0_4476_13047">
<rect width="30" height="30" fill="white" transform="translate(0 0.730469)"/>
</clipPath>
</defs>
</svg>
