<svg width="38" height="56" viewBox="0 0 38 56" fill="none" xmlns="http://www.w3.org/2000/svg">
<g clip-path="url(#clip0_769_12416)">
<path d="M19.2859 28.334C19.2859 25.9006 20.2526 23.5668 21.9733 21.8461C23.694 20.1254 26.0278 19.1587 28.4612 19.1587C30.8947 19.1587 33.2285 20.1254 34.9492 21.8461C36.6699 23.5668 37.6366 25.9006 37.6366 28.334C37.6366 30.7675 36.6699 33.1013 34.9492 34.822C33.2285 36.5427 30.8947 37.5094 28.4612 37.5094C26.0278 37.5094 23.694 36.5427 21.9733 34.822C20.2526 33.1013 19.2859 30.7675 19.2859 28.334Z" fill="#1ABCFE"/>
<path d="M0.935303 46.6851C0.935303 44.2517 1.90199 41.9179 3.6227 40.1972C5.34341 38.4765 7.6772 37.5098 10.1107 37.5098H19.286V46.6851C19.286 49.1186 18.3193 51.4523 16.5986 53.1731C14.8779 54.8938 12.5441 55.8605 10.1107 55.8605C7.6772 55.8605 5.34341 54.8938 3.6227 53.1731C1.90199 51.4523 0.935303 49.1186 0.935303 46.6851H0.935303Z" fill="#0ACF83"/>
<path d="M19.2859 0.808594V19.1593H28.4612C30.8947 19.1593 33.2285 18.1926 34.9492 16.4719C36.6699 14.7512 37.6366 12.4174 37.6366 9.98394C37.6366 7.55049 36.6699 5.2167 34.9492 3.49599C33.2285 1.77528 30.8947 0.808594 28.4612 0.808594L19.2859 0.808594Z" fill="#FF7262"/>
<path d="M0.935059 9.98394C0.935059 12.4174 1.90174 14.7512 3.62246 16.4719C5.34317 18.1926 7.67695 19.1593 10.1104 19.1593H19.2858V0.808594H10.1104C7.67695 0.808594 5.34317 1.77528 3.62246 3.49599C1.90174 5.2167 0.935059 7.55049 0.935059 9.98394H0.935059Z" fill="#F24E1E"/>
<path d="M0.935303 28.334C0.935303 30.7675 1.90199 33.1013 3.6227 34.822C5.34341 36.5427 7.6772 37.5094 10.1107 37.5094H19.286V19.1587H10.1107C7.6772 19.1587 5.34341 20.1254 3.6227 21.8461C1.90199 23.5668 0.935303 25.9006 0.935303 28.334H0.935303Z" fill="#A259FF"/>
</g>
<defs>
<clipPath id="clip0_769_12416">
<rect width="36.7014" height="55.0521" fill="white" transform="translate(0.935059 0.808594)"/>
</clipPath>
</defs>
</svg>
