<svg width="52" height="40" viewBox="0 0 52 40" fill="none" xmlns="http://www.w3.org/2000/svg">
<path d="M9.64934 10.1697L25.7839 18.6003C25.9777 18.6972 26.2199 18.6972 26.4622 18.6003L42.5967 10.1697C42.9359 9.97587 42.9359 9.58825 42.5967 9.39445L26.4622 0.963791C26.2684 0.866887 26.0261 0.866887 25.7839 0.963791L9.64934 9.39445C9.35863 9.58825 9.35863 9.97587 9.64934 10.1697ZM5.19175 17.9705L25.7839 28.7268C25.9777 28.8237 26.2199 28.8237 26.4622 28.7268L47.0543 17.9705C47.3935 17.7767 47.3935 17.389 47.0543 17.1952L41.1432 14.0943L26.4622 21.7982C26.2684 21.8951 26.0261 21.8951 25.7839 21.7982L11.1029 14.1427L5.19175 17.2437C4.85259 17.389 4.85259 17.8251 5.19175 17.9705ZM51.7057 25.4805L45.2132 22.0889L26.4138 31.9731C26.2199 32.07 25.9777 32.07 25.7354 31.9731L6.88757 22.0889L0.394998 25.4805C0.0558339 25.6743 0.0558339 26.062 0.394998 26.2558L25.687 39.5316C25.8808 39.6285 26.123 39.6285 26.3653 39.5316L51.6573 26.2558C52.0449 26.062 52.0449 25.6743 51.7057 25.4805Z" fill="#603EFF"/>
</svg>
