<svg width="53" height="53" viewBox="0 0 53 53" fill="none" xmlns="http://www.w3.org/2000/svg">
<path d="M11.1588 33.0598C11.1588 36.0555 8.71174 38.5028 5.71614 38.5028C2.72055 38.5028 0.273438 36.0555 0.273438 33.0598C0.273438 30.0641 2.72055 27.6168 5.71614 27.6168H11.1588V33.0598Z" fill="#E01E5A"/>
<path d="M13.9 33.0599C13.9 30.0641 16.3471 27.6169 19.3427 27.6169C22.3383 27.6169 24.7854 30.0641 24.7854 33.0599V46.6884C24.7854 49.6841 22.3383 52.1313 19.3427 52.1313C16.3471 52.1313 13.9 49.6841 13.9 46.6884V33.0599Z" fill="#E01E5A"/>
<path d="M19.3427 11.2033C16.3471 11.2033 13.9 8.75609 13.9 5.76035C13.9 2.76461 16.3471 0.317383 19.3427 0.317383C22.3383 0.317383 24.7854 2.76461 24.7854 5.76035V11.2033H19.3427Z" fill="#36C5F0"/>
<path d="M19.344 13.9459C22.3396 13.9459 24.7867 16.3931 24.7867 19.3889C24.7867 22.3846 22.3396 24.8318 19.344 24.8318H5.71614C2.72055 24.8318 0.273438 22.3846 0.273438 19.3889C0.273438 16.3931 2.72055 13.9459 5.71614 13.9459H19.344Z" fill="#36C5F0"/>
<path d="M41.2001 19.3888C41.2001 16.393 43.6472 13.9458 46.6428 13.9458C49.6384 13.9458 52.0855 16.393 52.0855 19.3888C52.0855 22.3845 49.6384 24.8317 46.6428 24.8317H41.2001V19.3888Z" fill="#2EB67D"/>
<path d="M38.459 19.3889C38.459 22.3846 36.0118 24.8318 33.0162 24.8318C30.0206 24.8318 27.5735 22.3846 27.5735 19.3889V5.76035C27.5735 2.76461 30.0206 0.317383 33.0162 0.317383C36.0118 0.317383 38.459 2.76461 38.459 5.76035V19.3889Z" fill="#2EB67D"/>
<path d="M33.0162 41.2455C36.0118 41.2455 38.459 43.6927 38.459 46.6885C38.459 49.6842 36.0118 52.1314 33.0162 52.1314C30.0206 52.1314 27.5735 49.6842 27.5735 46.6885V41.2455H33.0162Z" fill="#ECB22E"/>
<path d="M33.0162 38.5029C30.0206 38.5029 27.5735 36.0557 27.5735 33.06C27.5735 30.0642 30.0206 27.617 33.0162 27.617H46.6441C49.6397 27.617 52.0868 30.0642 52.0868 33.06C52.0868 36.0557 49.6397 38.5029 46.6441 38.5029H33.0162Z" fill="#ECB22E"/>
</svg>
