<svg width="32" height="32" viewBox="0 0 32 32" fill="none" xmlns="http://www.w3.org/2000/svg">
<g clip-path="url(#clip0_4476_18095)">
<mask id="mask0_4476_18095" style="mask-type:luminance" maskUnits="userSpaceOnUse" x="0" y="0" width="32" height="32">
<path d="M0.0898438 0.0910015H31.908V31.9092H0.0898438V0.0910015Z" fill="white"/>
</mask>
<g mask="url(#mask0_4476_18095)">
<path d="M27.7181 6.0982C26.9415 6.87482 25.6823 6.87482 24.9057 6.0982C24.1291 5.32157 24.1291 4.06245 24.9057 3.28583C25.6823 2.5092 26.9415 2.5092 27.7181 3.28583C28.4947 4.06245 28.4947 5.32157 27.7181 6.0982Z" stroke="#0E0E0E" stroke-width="1.28906" stroke-miterlimit="10" stroke-linecap="round" stroke-linejoin="round"/>
<path d="M7.0921 28.7134C6.31548 29.4901 5.05636 29.4901 4.27973 28.7134C3.50311 27.9368 3.50311 26.6777 4.27973 25.9011C5.05636 25.1244 6.31548 25.1244 7.0921 25.9011C7.86873 26.6777 7.86873 27.9368 7.0921 28.7134Z" stroke="#0E0E0E" stroke-width="1.28906" stroke-miterlimit="10" stroke-linecap="round" stroke-linejoin="round"/>
<path d="M12.9841 30.9908C13.9588 31.1858 14.9669 31.2881 15.999 31.2881C24.4421 31.2881 31.2866 24.4436 31.2866 16.0004C31.2866 12.3147 29.9821 8.93376 27.8098 6.29366" stroke="#0E0E0E" stroke-width="1.28906" stroke-miterlimit="10" stroke-linecap="round" stroke-linejoin="round"/>
<path d="M19.0424 1.01569C18.0587 0.816951 17.0409 0.712608 15.9986 0.712608C7.55545 0.712608 0.710938 7.55712 0.710938 16.0002C0.710938 19.686 2.01548 23.0669 4.18776 25.707" stroke="#0E0E0E" stroke-width="1.28906" stroke-miterlimit="10" stroke-linecap="round" stroke-linejoin="round"/>
<path d="M15.9995 20.5141C13.5068 20.5141 11.486 18.4934 11.486 16.0005C11.486 13.5078 13.5068 11.487 15.9995 11.487C18.4923 11.487 20.5131 13.5078 20.5131 16.0005C20.5131 18.4934 18.4923 20.5141 15.9995 20.5141ZM25.0003 14.0521C24.7635 12.9502 24.3299 11.9213 23.7375 11.0046L24.9282 9.81389L22.1796 7.06727L20.9898 8.25703C20.0731 7.6646 19.0444 7.23102 17.9424 6.99431V5.31161H14.0566V6.99431C12.9547 7.23102 11.9259 7.6646 11.0093 8.25703L9.81949 7.06727L7.07088 9.81389L8.26158 11.0046C7.66915 11.9213 7.23556 12.9502 6.99879 14.0521H5.31168L5.30957 17.9378H6.99873C7.2355 19.0398 7.66909 20.0686 8.26151 20.9854L7.06628 22.1806L9.8129 24.9293L11.0091 23.733C11.9259 24.3255 12.9547 24.759 14.0566 24.9958V26.6895H17.9424V24.9958C19.0444 24.759 20.0732 24.3255 20.99 23.733L22.1862 24.9293L24.9328 22.1806L23.7376 20.9854C24.33 20.0686 24.7636 19.0398 25.0004 17.9378H26.6895V14.0521H25.0003Z" stroke="#0E0E0E" stroke-width="1.28906" stroke-miterlimit="10" stroke-linecap="round" stroke-linejoin="round"/>
</g>
</g>
<defs>
<clipPath id="clip0_4476_18095">
<rect width="31.8182" height="31.8182" fill="white" transform="translate(0.0908203 0.0908203)"/>
</clipPath>
</defs>
</svg>
