<svg width="32" height="32" viewBox="0 0 32 32" fill="none" xmlns="http://www.w3.org/2000/svg">
<g clip-path="url(#clip0_4476_18118)">
<path d="M29.6742 13.9632C29.5524 10.4925 28.1469 7.24705 25.679 4.77915C23.0923 2.19194 19.6544 0.767578 15.9993 0.767578C8.61701 0.767578 2.58498 6.6435 2.32497 13.9632C1.19841 14.4638 0.409912 15.5914 0.409912 16.9019V20.5122C0.409912 22.2851 1.85217 23.7279 3.62554 23.7279C4.77298 23.7279 5.70615 22.7947 5.70615 21.6473V15.7664C5.70615 14.689 4.87987 13.8105 3.82937 13.7061C4.21716 7.32908 9.52582 2.25906 15.9993 2.25906C19.2567 2.25906 22.3197 3.5288 24.625 5.83413C26.7419 7.95103 27.9809 10.7103 28.1673 13.7066C27.1178 13.812 26.293 14.69 26.293 15.7664V21.6468C26.293 22.7331 27.1322 23.617 28.1951 23.709V25.195C28.1951 26.8684 26.8334 28.2296 25.16 28.2296H22.9123C22.802 27.9144 22.6289 27.6231 22.3863 27.3815C21.9613 26.9544 21.3945 26.7193 20.791 26.7193H18.4742C18.1416 26.7193 17.8224 26.7899 17.5301 26.9261C16.7326 27.2925 16.2176 28.0969 16.2176 28.9754C16.2176 29.5789 16.4527 30.1457 16.8788 30.5698C17.3049 30.9968 17.8716 31.232 18.4742 31.232H20.791C21.7515 31.232 22.5981 30.611 22.9138 29.7211H25.16C27.6562 29.7211 29.6866 27.6907 29.6866 25.195V23.4435C30.8062 22.9399 31.5887 21.8163 31.5887 20.5113V16.9009C31.5887 15.5914 30.8003 14.4638 29.6742 13.9632ZM4.21417 15.7664V21.6468C4.21417 21.9714 3.95018 22.2359 3.62504 22.2359C2.67447 22.2359 1.90089 21.4623 1.90089 20.5118V16.9014C1.90089 15.9503 2.67447 15.1772 3.62504 15.1772C3.95018 15.1772 4.21417 15.4417 4.21417 15.7664ZM21.5392 29.1355C21.4651 29.4865 21.1499 29.7415 20.7905 29.7415H18.4737C18.2699 29.7415 18.0784 29.662 17.9323 29.5158C17.7881 29.3721 17.7086 29.1802 17.7086 28.9764C17.7086 28.6786 17.8831 28.4066 18.1565 28.2809C18.2539 28.2351 18.3608 28.2118 18.4737 28.2118H20.7905C20.9943 28.2118 21.1857 28.2908 21.3314 28.437C21.4755 28.5806 21.5551 28.7725 21.5551 28.9764C21.5556 29.0311 21.5496 29.0858 21.5392 29.1355ZM30.0973 20.5118C30.0973 21.4623 29.3237 22.2359 28.3731 22.2359C28.0485 22.2359 27.784 21.9719 27.784 21.6468V15.7664C27.784 15.4417 28.048 15.1772 28.3731 15.1772C29.3237 15.1772 30.0973 15.9508 30.0973 16.9014V20.5118Z" fill="#0E0E0E"/>
<path d="M20.8283 20.7684C22.5708 20.7684 23.9882 19.3505 23.9882 17.6084V11.1697C23.9882 10.3275 23.6591 9.53405 23.0615 8.93647C22.4639 8.33888 21.6709 8.00977 20.8283 8.00977H11.1704C9.4279 8.00977 8.0105 9.42717 8.0105 11.1697V17.6084C8.0105 19.351 9.4279 20.7684 11.1704 20.7684H11.2296V22.4368C11.2296 23.0732 11.6089 23.638 12.1956 23.8761C12.385 23.9522 12.5819 23.9899 12.7768 23.9899C13.1829 23.9899 13.5787 23.8289 13.8685 23.5291L16.6442 20.7684H20.8283ZM15.8114 19.4936L12.8076 22.4811C12.7942 22.495 12.7842 22.5054 12.7559 22.493C12.7216 22.4791 12.7216 22.4567 12.7216 22.4368V20.0226C12.7216 19.611 12.388 19.2769 11.9758 19.2769H11.1709C10.2507 19.2769 9.50247 18.5282 9.50247 17.6084V11.1697C9.50247 10.2495 10.2507 9.50124 11.1709 9.50124H20.8288C21.2732 9.50124 21.6913 9.67525 22.0075 9.99094C22.3237 10.3071 22.4972 10.7257 22.4972 11.1697V17.6084C22.4972 18.5287 21.7485 19.2769 20.8288 19.2769H16.3374C16.14 19.2769 15.9511 19.3549 15.8114 19.4936Z" fill="#0E0E0E"/>
<path d="M12.3763 13.4082C11.7698 13.4082 11.2761 13.9024 11.2761 14.5084C11.2761 15.1145 11.7703 15.6086 12.3763 15.6086C12.9834 15.6086 13.4775 15.1145 13.4775 14.5084C13.4775 13.9024 12.9839 13.4082 12.3763 13.4082Z" fill="#0E0E0E"/>
<path d="M15.9984 13.4082C15.3919 13.4082 14.8982 13.9024 14.8982 14.5084C14.8982 15.1145 15.3924 15.6086 15.9984 15.6086C16.6059 15.6086 17.0996 15.1145 17.0996 14.5084C17.0996 13.9024 16.6059 13.4082 15.9984 13.4082Z" fill="#0E0E0E"/>
<path d="M19.6215 13.4082C19.0149 13.4082 18.5212 13.9024 18.5212 14.5084C18.5212 15.1145 19.0154 15.6086 19.6215 15.6086C20.2285 15.6086 20.7227 15.1145 20.7227 14.5084C20.7227 13.9024 20.2285 13.4082 19.6215 13.4082Z" fill="#0E0E0E"/>
</g>
<defs>
<clipPath id="clip0_4476_18118">
<rect width="31.8182" height="31.8182" fill="white" transform="translate(0.0908203 0.0908203)"/>
</clipPath>
</defs>
</svg>
