<svg width="430" height="430" viewBox="0 0 430 430" fill="none" xmlns="http://www.w3.org/2000/svg">
<path d="M28.7228 198.105C23.553 205.294 13.6154 206.872 6.52661 201.629C-0.56223 196.386 -2.11789 186.308 3.05191 179.119C8.2217 171.93 18.1593 170.352 25.2481 175.595C32.337 180.838 33.8927 190.916 28.7228 198.105Z" fill="#0E0E0E"/>
<path d="M298.149 423.381C292.98 430.57 283.042 432.148 275.953 426.905C268.864 421.662 267.309 411.584 272.478 404.395C277.648 397.206 287.586 395.628 294.675 400.871C301.764 406.114 303.319 416.192 298.149 423.381Z" fill="#0E0E0E"/>
<path d="M19.714 227.277C17.0916 230.923 12.0508 231.724 8.45498 229.064C4.85922 226.405 4.07009 221.293 6.69247 217.646C9.31481 214 14.3556 213.199 17.9514 215.859C21.5472 218.518 22.3363 223.63 19.714 227.277Z" fill="#0E0E0E"/>
<path d="M186.354 12.988C183.732 16.6346 178.691 17.4348 175.095 14.7754C171.499 12.116 170.71 7.00397 173.333 3.35738C175.955 -0.289222 180.996 -1.08949 184.592 1.56993C188.187 4.22935 188.977 9.34139 186.354 12.988Z" fill="#0E0E0E"/>
<path d="M389.688 339.081C366.244 371.681 335.313 395.469 301.038 409.786C300.134 406.217 298.048 402.932 294.882 400.59C287.636 395.231 277.478 396.845 272.195 404.191C268.803 408.908 268.245 414.843 270.199 419.904C212.975 433.812 150.324 423.141 99.0547 385.222C47.8887 347.38 18.7366 290.299 14.2144 230.921C16.4483 230.646 18.568 229.469 19.9975 227.481C22.7307 223.68 21.9097 218.352 18.1591 215.578C16.7753 214.554 15.1864 214.022 13.5947 213.948C13.6039 210.947 13.676 207.943 13.8114 204.94C19.4961 205.678 25.3923 203.335 29.0064 198.309C34.287 190.966 32.6995 180.672 25.4558 175.314C23.1262 173.592 20.4957 172.589 17.823 172.266C23.622 143.583 35.4333 115.67 53.5564 90.4685C83.5504 48.7596 125.8 21.4759 171.63 9.99422C172.053 11.9577 173.159 13.7781 174.888 15.0563C178.641 17.8323 183.903 16.9954 186.638 13.1919C188.064 11.2084 188.523 8.80884 188.102 6.57341C241.091 -2.19878 297.383 9.70931 344.19 44.3272C437.012 112.978 457.384 244.944 389.688 339.081ZM294.467 401.152C297.527 403.415 299.533 406.6 300.385 410.057C290.781 414.031 280.917 417.262 270.884 419.737C268.973 414.87 269.493 409.145 272.762 404.599C277.819 397.567 287.536 396.026 294.467 401.152ZM271.157 420.389C281.148 417.919 290.972 414.701 300.54 410.749C301.377 414.936 300.544 419.453 297.866 423.177C292.809 430.209 283.092 431.75 276.161 426.624C273.909 424.959 272.228 422.794 271.157 420.389ZM19.4304 227.073C18.1259 228.887 16.197 229.964 14.1625 230.224C13.785 225.045 13.5948 219.849 13.5937 214.648C15.0415 214.721 16.4852 215.209 17.7437 216.14C21.1847 218.685 21.942 223.58 19.4304 227.073ZM12.8952 214.645C12.8962 219.866 13.0871 225.082 13.4662 230.28C11.8038 230.339 10.1107 229.854 8.66268 228.783C5.22167 226.238 4.46444 221.343 6.97604 217.85C8.41909 215.843 10.6262 214.738 12.8952 214.645ZM28.4393 197.901C24.9675 202.729 19.2994 204.969 13.8442 204.24C14.3505 193.774 15.6261 183.314 17.6852 172.954C20.2605 173.256 22.7965 174.216 25.0404 175.876C31.9745 181.005 33.4983 190.866 28.4393 197.901ZM16.986 172.888C14.9333 183.235 13.6593 193.679 13.15 204.131C10.9004 203.724 8.70477 202.806 6.73431 201.348C-0.199773 196.22 -1.72355 186.358 3.33547 179.323C6.6072 174.773 11.8295 172.522 16.986 172.888ZM175.303 14.4946C173.711 13.3174 172.694 11.6372 172.308 9.8255C177.305 8.5917 182.343 7.54551 187.412 6.6887C187.804 8.74622 187.384 10.9571 186.071 12.7841C183.561 16.2737 178.741 17.0374 175.303 14.4946ZM187.252 6.00741C182.198 6.86275 177.175 7.90569 172.193 9.13449C171.96 7.22989 172.413 5.23457 173.616 3.56131C176.126 0.071636 180.946 -0.692005 184.384 1.85076C185.824 2.91615 186.795 4.3935 187.252 6.00741Z" stroke="#0E0E0E" stroke-width="0.698584"/>
</svg>
