<svg width="60" height="60" viewBox="0 0 60 60" fill="none" xmlns="http://www.w3.org/2000/svg">
<path d="M45.3517 25.2067L45.352 25.2068L59.102 29.8493L59.1024 29.8494C59.5484 29.9988 59.85 30.4188 59.85 30.8921V41.3396C59.85 47.4256 56.4055 51.9653 52.8675 55.0234C49.3309 58.0802 45.7192 59.6398 45.4266 59.764C45.2903 59.8211 45.1452 59.8496 45 59.8496C44.8548 59.8496 44.7097 59.8211 44.5733 59.764C44.2803 59.6396 40.6688 58.08 37.1325 55.0234C33.5945 51.9653 30.15 47.4256 30.15 41.3396V30.8921C30.15 30.4193 30.4512 30.0012 30.8982 29.8492C30.8982 29.8492 30.8982 29.8492 30.8983 29.8492L44.6478 25.2068C44.6479 25.2068 44.6479 25.2068 44.6479 25.2068C44.877 25.1297 45.1257 25.1299 45.3517 25.2067ZM32.452 31.65L32.35 31.6845V31.7921V41.3396C32.35 46.127 34.9156 49.8875 37.7608 52.5857C40.6065 55.2843 43.7471 56.9354 44.9349 57.5073L45.0001 57.5387L45.0652 57.5072C46.2519 56.934 49.3923 55.2767 52.2383 52.5753C55.0837 49.8744 57.65 46.1146 57.65 41.3396V31.7921V31.6845L57.548 31.65L45.048 27.4275L45 27.4113L44.952 27.4275L32.452 31.65Z" fill="#0C9347" stroke="#0C9347" stroke-width="0.3"/>
<path d="M43.7498 47.4996C43.7273 47.4996 43.7023 47.4997 43.6823 47.4972C43.3248 47.4772 42.9973 47.3096 42.7748 47.0296L37.7748 40.7796C37.3448 40.2396 37.4298 39.4546 37.9698 39.0221C38.5123 38.5971 39.2948 38.6821 39.7273 39.2171L43.8523 44.3746L51.6148 36.6146C52.1023 36.1271 52.8948 36.1271 53.3823 36.6146C53.8698 37.1021 53.8698 37.8946 53.3823 38.3821L44.6323 47.1322C44.3998 47.3672 44.0798 47.4996 43.7498 47.4996Z" fill="#0C9347"/>
<path d="M46.25 19.5H8.75C4.20114 19.5 0.5 15.7989 0.5 11.25C0.5 6.70114 4.20114 3 8.75 3H46.25C50.7989 3 54.5 6.70114 54.5 11.25C54.5 15.7989 50.7989 19.5 46.25 19.5ZM8.75 4.5C5.02636 4.5 2 7.52636 2 11.25C2 14.9736 5.02636 18 8.75 18H46.25C49.9736 18 53 14.9736 53 11.25C53 7.52636 49.9736 4.5 46.25 4.5H8.75Z" fill="#0C9347" stroke="#0C9347"/>
<path d="M11.25 15C9.1825 15 7.5 13.3175 7.5 11.25C7.5 9.1825 9.1825 7.5 11.25 7.5C13.3175 7.5 15 9.1825 15 11.25C15 13.3175 13.3175 15 11.25 15ZM11.25 10C10.5625 10 10 10.5625 10 11.25C10 11.9375 10.5625 12.5 11.25 12.5C11.9375 12.5 12.5 11.9375 12.5 11.25C12.5 10.5625 11.9375 10 11.25 10Z" fill="#0C9347"/>
<path d="M23.75 15C21.6825 15 20 13.3175 20 11.25C20 9.1825 21.6825 7.5 23.75 7.5C25.8175 7.5 27.5 9.1825 27.5 11.25C27.5 13.3175 25.8175 15 23.75 15ZM23.75 10C23.0625 10 22.5 10.5625 22.5 11.25C22.5 11.9375 23.0625 12.5 23.75 12.5C24.4375 12.5 25 11.9375 25 11.25C25 10.5625 24.4375 10 23.75 10Z" fill="#0C9347"/>
<path d="M51.2625 19.7093L51.2625 19.7093C51.5898 19.9645 51.6482 20.4351 51.3936 20.7621C51.1383 21.0875 50.6666 21.1461 50.3392 20.8926C49.1698 19.9806 47.7538 19.5 46.25 19.5H8.75C6.95169 19.5 5.25493 20.2057 3.97932 21.4786C2.70265 22.7525 2 24.4525 2 26.25C2 29.9736 5.02636 33 8.75 33H23.75C24.1639 33 24.5 33.3361 24.5 33.75C24.5 34.1639 24.1639 34.5 23.75 34.5H8.75C4.20114 34.5 0.5 30.7989 0.5 26.25C0.5 24.0479 1.35712 21.98 2.91855 20.4186C4.47999 18.8571 6.54789 18 8.75 18H46.25C48.0954 18 49.8293 18.5914 51.2625 19.7093Z" fill="#0C9347" stroke="#0C9347"/>
<path d="M11.25 30C9.1825 30 7.5 28.3175 7.5 26.25C7.5 24.1825 9.1825 22.5 11.25 22.5C13.3175 22.5 15 24.1825 15 26.25C15 28.3175 13.3175 30 11.25 30ZM11.25 25C10.5625 25 10 25.5625 10 26.25C10 26.9375 10.5625 27.5 11.25 27.5C11.9375 27.5 12.5 26.9375 12.5 26.25C12.5 25.5625 11.9375 25 11.25 25Z" fill="#0C9347"/>
<path d="M23.75 30C21.6825 30 20 28.3175 20 26.25C20 24.1825 21.6825 22.5 23.75 22.5C25.8175 22.5 27.5 24.1825 27.5 26.25C27.5 28.3175 25.8175 30 23.75 30ZM23.75 25C23.0625 25 22.5 25.5625 22.5 26.25C22.5 26.9375 23.0625 27.5 23.75 27.5C24.4375 27.5 25 26.9375 25 26.25C25 25.5625 24.4375 25 23.75 25Z" fill="#0C9347"/>
<path d="M23.75 49.85H8.75C4.00784 49.85 0.15 45.9922 0.15 41.25C0.15 38.9549 1.04414 36.798 2.67107 35.1711C4.298 33.5441 6.45487 32.65 8.75 32.65H23.75C24.3572 32.65 24.85 33.1428 24.85 33.75C24.85 34.3572 24.3572 34.85 23.75 34.85H8.75C7.04501 34.85 5.43698 35.5184 4.22655 36.7263C3.0158 37.9345 2.35 39.5452 2.35 41.25C2.35 44.7803 5.21966 47.65 8.75 47.65H23.75C24.3572 47.65 24.85 48.1428 24.85 48.75C24.85 49.3572 24.3572 49.85 23.75 49.85Z" fill="#0C9347" stroke="#0C9347" stroke-width="0.3"/>
<path d="M11.25 45C9.1825 45 7.5 43.3175 7.5 41.25C7.5 39.1825 9.1825 37.5 11.25 37.5C13.3175 37.5 15 39.1825 15 41.25C15 43.3175 13.3175 45 11.25 45ZM11.25 40C10.5625 40 10 40.5625 10 41.25C10 41.9375 10.5625 42.5 11.25 42.5C11.9375 42.5 12.5 41.9375 12.5 41.25C12.5 40.5625 11.9375 40 11.25 40Z" fill="#0C9347"/>
<path d="M23.75 45C21.6825 45 20 43.3175 20 41.25C20 39.1825 21.6825 37.5 23.75 37.5C25.8175 37.5 27.5 39.1825 27.5 41.25C27.5 43.3175 25.8175 45 23.75 45ZM23.75 40C23.0625 40 22.5 40.5625 22.5 41.25C22.5 41.9375 23.0625 42.5 23.75 42.5C24.4375 42.5 25 41.9375 25 41.25C25 40.5625 24.4375 40 23.75 40Z" fill="#0C9347"/>
</svg>
