<svg width="60" height="60" viewBox="0 0 60 60" fill="none" xmlns="http://www.w3.org/2000/svg">
<path d="M30 57.6562C20.9537 57.6562 13.5938 50.2973 13.5938 41.25C13.5938 32.2027 20.9537 24.8438 30 24.8438C39.0463 24.8438 46.4062 32.2027 46.4062 41.25C46.4062 50.2973 39.0463 57.6562 30 57.6562ZM30 27.6562C22.5045 27.6562 16.4062 33.7537 16.4062 41.25C16.4062 48.7463 22.5045 54.8438 30 54.8438C37.4955 54.8438 43.5938 48.7463 43.5938 41.25C43.5938 33.7537 37.4955 27.6562 30 27.6562Z" fill="#0C9347"/>
<path d="M30.0001 57.6562C25.5333 57.6562 22.165 50.6031 22.165 41.25C22.165 31.8969 25.5333 24.8438 30.0001 24.8438C34.4669 24.8438 37.8352 31.8969 37.8352 41.25C37.8352 50.6031 34.4669 57.6562 30.0001 57.6562ZM30.0001 27.6562C27.9025 27.6562 24.9775 32.8271 24.9775 41.25C24.9775 49.6729 27.9027 54.8438 30.0001 54.8438C32.0975 54.8438 35.0227 49.6729 35.0227 41.25C35.0227 32.8271 32.0975 27.6562 30.0001 27.6562Z" fill="#0C9347"/>
<path d="M44.3788 38.3701H15.6221C14.8456 38.3701 14.2158 37.7403 14.2158 36.9639C14.2158 36.1874 14.8456 35.5576 15.6221 35.5576H44.3788C45.1552 35.5576 45.785 36.1874 45.785 36.9639C45.785 37.7403 45.1552 38.3701 44.3788 38.3701Z" fill="#0C9347"/>
<path d="M44.3788 46.9424H15.6221C14.8456 46.9424 14.2158 46.3126 14.2158 45.5361C14.2158 44.7597 14.8456 44.1299 15.6221 44.1299H44.3788C45.1552 44.1299 45.785 44.7597 45.785 45.5361C45.785 46.3126 45.1552 46.9424 44.3788 46.9424Z" fill="#0C9347"/>
<path d="M50.5884 41.4002C50.0593 41.4002 49.5521 41.0998 49.3131 40.5891C48.9844 39.8841 49.2892 39.0472 49.9933 38.7195C54.0784 36.8134 56.7188 32.655 56.7188 28.125C56.7188 23.2929 53.2708 19.2169 48.5201 18.4314C47.8417 18.318 47.3438 17.7321 47.3438 17.0436C47.3438 11.7152 44.0021 7.10455 39.2166 5.67824C33.8387 4.09068 28.3492 6.17437 25.566 10.8619C25.2052 11.4697 24.4573 11.7114 23.8054 11.4386C22.7818 11.0029 21.7116 10.7812 20.6248 10.7812C16.7897 10.7812 13.4993 13.515 12.8006 17.2815C12.6917 17.8693 12.222 18.3251 11.6306 18.4149C9.31894 18.7684 7.20412 19.9329 5.67413 21.6962C4.13138 23.4759 3.28087 25.7593 3.28087 28.125C3.28087 32.655 5.92125 36.8134 10.0063 38.7195C10.7104 39.0472 11.0153 39.8841 10.6866 40.5891C10.3569 41.2903 9.51919 41.5961 8.81794 41.2684C3.74625 38.9025 0.46875 33.7427 0.46875 28.125C0.46875 25.0836 1.56281 22.1466 3.54956 19.8542C5.3055 17.8309 7.65938 16.4192 10.2566 15.8167C11.5485 11.2153 15.7635 7.96893 20.625 7.96893C21.6981 7.96893 22.7563 8.1283 23.7853 8.44143C27.3908 3.32549 33.7627 1.13737 40.0166 2.98124C45.6772 4.66949 49.7175 9.89718 50.1221 15.8992C55.6391 17.3366 59.5311 22.3061 59.5311 28.1252C59.5311 33.7429 56.2536 38.9027 51.1815 41.2686C50.9893 41.3584 50.7872 41.4002 50.5884 41.4002Z" fill="#0C9347"/>
</svg>
