<svg width="60" height="60" viewBox="0 0 60 60" fill="none" xmlns="http://www.w3.org/2000/svg">
<path d="M17.4404 10.077L14.5854 7.22194C14.1412 6.77791 13.4941 6.60436 12.8874 6.76702L8.98744 7.81198C8.38087 7.97452 7.90697 8.4483 7.74454 9.05487L6.69958 12.9549C6.53704 13.5614 6.71048 14.2088 7.15451 14.6528L10.0094 17.508C10.4527 17.9513 11.0994 18.1258 11.7074 17.9629L15.6075 16.9179C16.214 16.7554 16.6879 16.2816 16.8504 15.675L17.8953 11.775C18.0579 11.1685 17.8844 10.5211 17.4404 10.077ZM13.7171 13.7847L11.7778 14.3043L10.3582 12.8847L10.8777 10.9453L12.817 10.4256L14.2367 11.8453L13.7171 13.7847Z" fill="#0C9347"/>
<path d="M53.0087 45.6443L50.1537 42.7892C49.7098 42.3452 49.0622 42.1719 48.4559 42.3343L44.5559 43.3793C43.9492 43.5418 43.4754 44.0156 43.3129 44.6222L42.2679 48.5222C42.1054 49.1287 42.2789 49.7761 42.723 50.2201L45.578 53.0751C46.0204 53.5175 46.6669 53.6933 47.2759 53.53L51.1759 52.4851C51.7825 52.3225 52.2563 51.8488 52.4188 51.2422L53.4638 47.3422C53.6263 46.7355 53.4528 46.0883 53.0087 45.6443ZM49.2856 49.3518L47.3461 49.8716L45.9265 48.4518L46.4461 46.5125L48.3856 45.9929L49.8052 47.4125L49.2856 49.3518Z" fill="#0C9347"/>
<path d="M44.1327 34.9688L44.208 35.0441L44.3125 35.0237C45.0165 34.8859 45.6663 34.8208 46.3104 34.8208C52.6458 34.8208 57.8002 39.975 57.8002 46.3103C57.8002 52.6455 52.6457 57.8 46.3105 57.8C39.9753 57.8 34.8208 52.6455 34.8208 46.3103C34.8208 45.6662 34.8859 45.0163 35.0236 44.3124L35.044 44.2079L34.9687 44.1325L29.6409 38.8048L29.4994 38.6634L29.358 38.8048L24.0544 44.1084L23.9807 44.1821L23.999 44.2848C24.6519 47.9589 23.474 51.7738 20.8129 54.4349C17.3899 57.858 12.1375 58.7839 7.73455 56.6804C7.30405 56.4747 7.00007 56.0728 6.91942 55.6026C6.83877 55.1323 6.99144 54.6521 7.32885 54.3147L11.6491 49.9945L11.5076 49.8531L11.6491 49.9945C12.3782 49.2653 12.3783 48.0792 11.6491 47.3499C10.9198 46.6207 9.73376 46.6207 9.0045 47.3499L4.68428 51.6702L4.68426 51.6702C4.34689 52.0077 3.86662 52.1602 3.39644 52.0796C2.92615 51.9989 2.52428 51.6951 2.31859 51.2645L2.13841 51.3505L2.31859 51.2645C0.223877 46.8798 1.12619 41.6238 4.564 38.1861L4.42259 38.0447L4.56401 38.1861C7.22491 35.525 11.0398 34.347 14.7141 35.0001L14.8168 35.0183L14.8905 34.9446L20.1941 29.6409L20.3355 29.4994L20.1941 29.358L14.8904 24.0544L14.8166 23.9807L14.714 23.999C11.0399 24.6522 7.22525 23.4741 4.56412 20.813C0.0843232 16.3334 0.0843207 9.04369 4.56412 4.56401L4.56412 4.564C9.04358 0.0843235 16.3333 0.0843211 20.8129 4.564L20.9543 4.42259L20.8129 4.56401C23.474 7.22502 24.6519 11.04 23.9988 14.7141L23.9806 14.8168L24.0543 14.8905L29.358 20.1942L29.4994 20.3356L29.6409 20.1942L34.9445 14.8905L35.0182 14.8168L34.9999 14.7141C34.3468 11.04 35.5248 7.22513 38.1859 4.56401C41.6236 1.12619 46.8798 0.223877 51.2645 2.31858C51.695 2.52428 51.9989 2.92617 52.0796 3.39643C52.1602 3.8667 52.0076 4.34688 51.6702 4.68428L47.3498 9.00461C46.6206 9.73388 46.6206 10.9199 47.3498 11.6492L47.4913 11.5078L47.3498 11.6492C48.0792 12.3784 49.265 12.3786 49.9944 11.6492L54.3146 7.32896L54.1732 7.18754L54.3146 7.32894C54.6521 6.99142 55.132 6.83868 55.6025 6.91952L55.6026 6.91953C56.0728 7.00018 56.4746 7.30403 56.6804 7.73465C58.775 12.1193 57.8726 17.3753 54.4349 20.813C51.774 23.4741 47.9598 24.6522 44.2848 23.9991L44.1821 23.9808L44.1084 24.0546L38.8048 29.3581L38.6634 29.4996L38.8048 29.641L44.1327 34.9688ZM27.2791 22.5559L27.4206 22.4145L27.2791 22.2731L21.3288 16.3228C21.3288 16.3228 21.3288 16.3228 21.3287 16.3228C20.9577 15.9517 20.8126 15.411 20.9479 14.9041C21.7343 11.9601 20.886 8.79488 18.7341 6.643C15.4004 3.30931 9.97657 3.30931 6.64289 6.643C3.30909 9.97668 3.30909 15.4006 6.64289 18.7344C8.79489 20.8864 11.9597 21.7344 14.9038 20.9482C15.4107 20.8128 15.9515 20.958 16.3225 21.329L22.2729 27.2794L22.4143 27.4208L22.5557 27.2794L27.2791 22.5559ZM21.3287 42.6766L28.4372 35.5682L28.4374 35.5681L28.4603 35.5452L35.5448 28.4606L35.5452 28.4602L35.5452 28.4602L35.5455 28.4599L35.5456 28.4598L42.6764 21.3291C43.0476 20.958 43.5882 20.8128 44.0951 20.9483C47.0388 21.7346 50.2043 20.8864 52.3562 18.7345C54.2904 16.8003 55.146 14.0938 54.7757 11.4788L54.7195 11.0822L54.4362 11.3654L52.0734 13.7283L52.2148 13.8697L52.0734 13.7283C50.1935 15.6083 47.1509 15.6081 45.2712 13.7283L45.1297 13.8697L45.2712 13.7283C43.3959 11.853 43.3959 8.80122 45.2712 6.92607L45.1297 6.78464L45.2712 6.92606L47.6339 4.56322L47.9171 4.28L47.5205 4.22379C44.9056 3.85312 42.1991 4.7091 40.265 6.64322L40.4064 6.78464L40.265 6.64322C38.1131 8.79523 37.2651 11.9603 38.0512 14.9043C38.1866 15.4113 38.0414 15.952 37.6704 16.323L30.5613 23.4319L30.5392 23.4541L30.5389 23.4544L30.5165 23.4768L23.4543 30.539L23.4539 30.5393L23.4536 30.5397L16.3227 37.6705C15.9515 38.0416 15.4112 38.1868 14.904 38.0513L14.8524 38.2445L14.904 38.0513C11.96 37.2649 8.79489 38.1132 6.64289 40.2651L6.78431 40.4065L6.64288 40.2651C4.70887 42.1992 3.85312 44.9058 4.22356 47.5208L4.27975 47.9174L4.56301 47.6341L6.92573 45.2713C8.80099 43.396 11.8529 43.3961 13.7279 45.2713C15.6032 47.1466 15.6032 50.1983 13.7279 52.0735L13.8694 52.2149L13.7279 52.0735L11.3652 54.4363L11.0819 54.7196L11.4786 54.7758C14.0934 55.146 16.7999 54.2905 18.7341 52.3563L18.5927 52.2149L18.7341 52.3563C20.886 50.2043 21.734 47.0393 20.9479 44.0953C20.8126 43.5882 20.9577 43.0476 21.3287 42.6766ZM31.7195 36.4433L31.5781 36.5847L31.7195 36.7262L37.7022 42.7087L37.8436 42.5673L37.7022 42.7087C38.0728 43.0793 38.2181 43.619 38.0835 44.1254C37.8645 44.9499 37.7605 45.6456 37.7605 46.3105C37.7605 51.0251 41.5958 54.8604 46.3104 54.8604C51.0251 54.8604 54.8601 51.0251 54.86 46.3106C54.86 41.5961 51.0247 37.7607 46.3102 37.7607C45.6453 37.7607 44.9495 37.8648 44.1251 38.0837C43.6182 38.2182 43.0788 38.0729 42.7084 37.7025L42.567 37.8439L42.7084 37.7024L36.7258 31.7199L36.5844 31.5784L36.443 31.7199L31.7195 36.4433Z" fill="#0C9347" stroke="white" stroke-width="0.4"/>
</svg>
