<svg width="494" height="494" viewBox="0 0 494 494" fill="none" xmlns="http://www.w3.org/2000/svg">
<path d="M227.765 460.506C236.017 466.433 237.828 477.827 231.81 485.954C225.792 494.082 214.224 495.866 205.972 489.938C197.72 484.011 195.909 472.617 201.927 464.49C207.945 456.362 219.513 454.578 227.765 460.506Z" fill="#0E0E0E"/>
<path d="M486.351 151.6C494.603 157.528 496.414 168.921 490.396 177.049C484.378 185.176 472.809 186.96 464.557 181.033C456.305 175.105 454.494 163.712 460.513 155.584C466.531 147.457 478.099 145.673 486.351 151.6Z" fill="#0E0E0E"/>
<path d="M261.25 470.835C265.436 473.841 266.355 479.621 263.302 483.743C260.249 487.866 254.382 488.771 250.196 485.764C246.01 482.758 245.091 476.978 248.144 472.855C251.197 468.733 257.065 467.828 261.25 470.835Z" fill="#0E0E0E"/>
<path d="M15.2766 279.777C19.4623 282.783 20.3809 288.563 17.3283 292.685C14.2757 296.808 8.40775 297.713 4.22196 294.706C0.0361781 291.7 -0.882414 285.92 2.17023 281.798C5.22287 277.675 11.0908 276.77 15.2766 279.777Z" fill="#0E0E0E"/>
<path d="M389.612 46.6128C427.054 73.5074 454.371 108.995 470.806 148.319C466.7 149.346 462.919 151.736 460.226 155.372C454.089 163.661 455.937 175.28 464.35 181.322C469.766 185.213 476.584 185.844 482.391 183.586C498.377 249.221 486.13 321.086 442.585 379.894C399.131 438.581 333.58 472.012 265.394 477.187C265.09 474.623 263.742 472.186 261.458 470.545C257.115 467.426 251.027 468.363 247.858 472.643C246.679 474.235 246.07 476.064 245.994 477.895C242.517 477.885 239.039 477.801 235.56 477.644C236.424 471.127 233.742 464.36 227.973 460.216C219.564 454.176 207.776 455.992 201.641 464.278C199.658 466.956 198.508 469.982 198.145 473.056C165.197 466.409 133.134 452.862 104.187 432.069C56.2889 397.664 24.9611 349.197 11.7857 296.625C14.0464 296.149 16.1445 294.883 17.6146 292.897C20.7865 288.614 19.8304 282.609 15.4844 279.487C13.2047 277.85 10.4439 277.33 7.87691 277.825C-2.20837 217.047 11.4599 152.476 51.2136 98.7875C130.029 -7.65531 281.536 -31.017 389.612 46.6128ZM460.799 155.796C463.411 152.268 467.091 149.959 471.083 148.985C475.657 160.021 479.374 171.357 482.22 182.888C476.612 185.101 470.007 184.508 464.765 180.743C456.673 174.931 454.9 163.763 460.799 155.796ZM482.885 182.61C480.044 171.121 476.34 159.826 471.789 148.827C476.622 147.847 481.842 148.8 486.143 151.89C494.235 157.702 496.008 168.87 490.109 176.837C488.181 179.441 485.672 181.38 482.885 182.61ZM261.042 471.124C263.149 472.637 264.394 474.879 264.683 477.24C258.706 477.677 252.71 477.896 246.707 477.896C246.783 476.212 247.347 474.531 248.43 473.068C251.366 469.103 257.014 468.23 261.042 471.124ZM246.704 478.608C252.727 478.608 258.744 478.388 264.741 477.951C264.819 479.881 264.261 481.85 263.016 483.531C260.08 487.496 254.432 488.369 250.404 485.475C248.075 483.802 246.799 481.239 246.704 478.608ZM227.557 460.795C233.125 464.794 235.701 471.328 234.846 477.611C222.803 477.031 210.767 475.565 198.846 473.196C199.188 470.222 200.295 467.293 202.213 464.702C208.115 456.732 219.462 454.98 227.557 460.795ZM198.779 473.909C210.686 476.271 222.706 477.736 234.734 478.319C234.271 480.922 233.211 483.463 231.524 485.742C225.623 493.712 214.275 495.463 206.18 489.649C200.93 485.878 198.34 479.852 198.779 473.909ZM17.0419 292.473C15.6747 294.32 13.7194 295.496 11.6134 295.933C10.189 290.176 8.98205 284.37 7.99466 278.528C10.3802 278.063 12.9486 278.543 15.0687 280.066C19.0943 282.958 19.9753 288.512 17.0419 292.473ZM7.29962 278.692C8.28554 284.518 9.48919 290.308 10.9085 296.051C8.6965 296.333 6.37459 295.814 4.42983 294.417C0.404208 291.525 -0.476817 285.971 2.45658 282.01C3.69616 280.335 5.41916 279.213 7.29962 278.692Z" stroke="#0E0E0E" stroke-width="0.712607"/>
</svg>
