<svg width="55" height="55" viewBox="0 0 55 55" fill="none" xmlns="http://www.w3.org/2000/svg">
<path d="M51.6166 2.14355H3.38325C1.57695 2.14355 0.107422 3.61309 0.107422 5.41939V38.734C0.107422 40.5403 1.57695 42.01 3.38325 42.01H20.3863L17.609 47.6582H13.938C12.505 47.6582 11.3391 48.8242 11.3391 50.2573C11.3391 51.6903 12.505 52.8561 13.938 52.8561H41.062C42.4951 52.8561 43.661 51.6902 43.661 50.2572C43.661 48.8242 42.4951 47.6582 41.062 47.6582H37.391L34.6137 42.01H51.6166C53.4229 42.01 54.8926 40.5403 54.8926 38.734V5.41939C54.8926 3.61309 53.423 2.14355 51.6166 2.14355ZM50.0257 7.0103V37.143H4.97428V7.0103H50.0257ZM35.5953 47.6582H19.4047L22.182 42.01H32.8181L35.5953 47.6582ZM12.5052 33.2152H24.4734L26.198 35.4142C26.5138 35.8167 26.9883 36.0475 27.5001 36.0475C28.0119 36.0475 28.4863 35.8167 28.8022 35.4142L30.5268 33.2152H38.3686C38.7223 33.2152 39.0345 32.9847 39.1386 32.6466L43.265 19.2433C43.3402 18.9989 43.295 18.7334 43.1431 18.5276C42.9912 18.3219 42.7507 18.2007 42.495 18.2007H39.1743V14.6181C39.1743 14.1732 38.8136 13.8125 38.3686 13.8125H24.7079L20.6698 11.077C20.5364 10.9866 20.379 10.9383 20.2179 10.9383H12.5051C12.0601 10.9383 11.6994 11.299 11.6994 11.744V32.4097C11.6995 32.8545 12.0603 33.2152 12.5052 33.2152ZM41.4038 19.8119L37.7735 31.6039H31.6255C31.6786 31.3446 31.6471 31.0707 31.5255 30.8207C31.3179 30.394 30.8939 30.129 30.419 30.129H29.9988V24.5054C29.9988 23.7798 29.4085 23.1894 28.6827 23.1892H26.3174C25.5919 23.1892 25.0015 23.7796 25.0013 24.5054V30.129H24.5811C24.1061 30.129 23.6821 30.3941 23.4745 30.8208C23.3529 31.0707 23.3214 31.3446 23.3745 31.6039H13.5962L17.2265 19.8119H41.4038Z" fill="#0E0E0E"/>
</svg>
