<svg width="55" height="55" viewBox="0 0 55 55" fill="none" xmlns="http://www.w3.org/2000/svg">
<path d="M47.6736 54.3134H7.32556C6.02581 54.3134 4.77904 53.7982 3.85843 52.8807C2.93782 51.9632 2.41843 50.7181 2.41406 49.4184V13.1459C2.41549 13.0369 2.4594 12.9328 2.53646 12.8558C2.61351 12.7787 2.7176 12.7348 2.82656 12.7334H52.1726C52.2815 12.7348 52.3856 12.7787 52.4627 12.8558C52.5397 12.9328 52.5836 13.0369 52.5851 13.1459V49.4184C52.5807 50.7181 52.0613 51.9632 51.1407 52.8807C50.2201 53.7982 48.9733 54.3134 47.6736 54.3134ZM3.23906 13.5584V49.4184C3.24198 50.4998 3.67398 51.5358 4.44019 52.2989C5.2064 53.0621 6.24416 53.4899 7.32556 53.4884H47.6736C48.755 53.4899 49.7927 53.0621 50.5589 52.2989C51.3251 51.5358 51.7571 50.4998 51.7601 49.4184V13.5584H3.23906Z" fill="#0E0E0E"/>
<path d="M47.6736 0.6875H7.32556C6.02581 0.687493 4.77904 1.20269 3.85843 2.12021C2.93782 3.03773 2.41843 4.28275 2.41406 5.5825V13.145C2.41549 13.254 2.4594 13.3581 2.53646 13.4351C2.61351 13.5122 2.7176 13.5561 2.82656 13.5575H52.1726C52.2815 13.5561 52.3856 13.5122 52.4627 13.4351C52.5397 13.3581 52.5836 13.254 52.5851 13.145V5.5825C52.5807 4.28275 52.0613 3.03773 51.1407 2.12021C50.2201 1.20269 48.9733 0.687493 47.6736 0.6875ZM45.0281 7.15C45.0302 7.45528 44.9416 7.75431 44.7735 8.00913C44.6054 8.26394 44.3653 8.46303 44.0838 8.58112C43.8023 8.6992 43.492 8.73095 43.1924 8.67233C42.8928 8.61371 42.6174 8.46737 42.4011 8.25189C42.1849 8.03641 42.0375 7.76151 41.9778 7.46212C41.9181 7.16273 41.9488 6.85236 42.0658 6.57041C42.1829 6.28847 42.3811 6.04768 42.6354 5.87864C42.8896 5.70959 43.1883 5.61992 43.4936 5.621C43.8996 5.621 44.2891 5.78191 44.5767 6.0685C44.8643 6.35508 45.0266 6.74398 45.0281 7.15ZM37.8121 7.15C37.8087 7.45502 37.7149 7.75218 37.5425 8.00381C37.37 8.25543 37.1268 8.45017 36.8435 8.56335C36.5602 8.67652 36.2497 8.70302 35.9514 8.63948C35.6531 8.57595 35.3803 8.42524 35.1677 8.20648C34.9551 7.98771 34.8123 7.71075 34.7574 7.4107C34.7024 7.11065 34.7378 6.80105 34.859 6.52114C34.9803 6.24123 35.1819 6.00364 35.4384 5.83849C35.6948 5.67334 35.9946 5.58807 36.2996 5.5935C36.5011 5.59637 36.7001 5.63891 36.8851 5.71868C37.0702 5.79846 37.2378 5.91392 37.3782 6.05846C37.5187 6.20299 37.6293 6.37379 37.7037 6.56107C37.7782 6.74836 37.815 6.94848 37.8121 7.15ZM30.5961 7.15C30.5982 7.45528 30.5096 7.75431 30.3415 8.00913C30.1734 8.26394 29.9333 8.46303 29.6518 8.58112C29.3703 8.6992 29.06 8.73095 28.7604 8.67233C28.4608 8.61371 28.1854 8.46737 27.9691 8.25189C27.7529 8.03641 27.6055 7.76151 27.5458 7.46212C27.4861 7.16273 27.5168 6.85236 27.6338 6.57041C27.7509 6.28847 27.9491 6.04768 28.2034 5.87864C28.4576 5.70959 28.7563 5.61992 29.0616 5.621C29.4676 5.621 29.8571 5.78191 30.1447 6.0685C30.4323 6.35508 30.5946 6.74398 30.5961 7.15ZM22.3461 7.15C22.3446 7.55602 22.1823 7.94492 21.8947 8.2315C21.6071 8.51809 21.2176 8.679 20.8116 8.679H11.5056C11.1 8.679 10.7111 8.51791 10.4244 8.23117C10.1377 7.94442 9.97656 7.55552 9.97656 7.15C9.97656 6.74448 10.1377 6.35558 10.4244 6.06883C10.7111 5.78209 11.1 5.621 11.5056 5.621H20.7951C21.2011 5.621 21.5906 5.78191 21.8782 6.0685C22.1658 6.35508 22.3281 6.74398 22.3296 7.15H22.3461Z" fill="#0E0E0E"/>
<path d="M25.8009 48.3993C24.0531 48.4351 22.3158 48.1217 20.6907 47.4776C19.0655 46.8335 17.5853 45.8715 16.3366 44.6481C15.0879 43.4247 14.0959 41.9645 13.4186 40.3528C12.7414 38.7412 12.3926 37.0107 12.3926 35.2625C12.3926 33.5144 12.7414 31.7839 13.4186 30.1723C14.0959 28.5606 15.0879 27.1004 16.3366 25.877C17.5853 24.6536 19.0655 23.6916 20.6907 23.0475C22.3158 22.4034 24.0531 22.09 25.8009 22.1258C25.9103 22.1258 26.0152 22.1693 26.0926 22.2466C26.1699 22.324 26.2134 22.4289 26.2134 22.5383V34.8418H38.5279C38.6373 34.8418 38.7422 34.8853 38.8196 34.9626C38.8969 35.04 38.9404 35.1449 38.9404 35.2543C38.936 38.7383 37.5505 42.0784 35.0874 44.5425C32.6244 47.0065 29.2849 48.3935 25.8009 48.3993ZM25.3884 22.9563C22.9887 23.0359 20.6645 23.8152 18.702 25.1985C16.7394 26.5818 15.2241 28.5086 14.3423 30.7419C13.4606 32.9752 13.251 35.4176 13.7393 37.7684C14.2276 40.1193 15.3925 42.2761 17.0907 43.9736C18.7889 45.671 20.9462 46.835 23.2973 47.3223C25.6484 47.8096 28.0906 47.5989 30.3236 46.7162C32.5565 45.8335 34.4827 44.3173 35.8651 42.3542C37.2475 40.391 38.0259 38.0666 38.1044 35.6668H25.8009C25.6915 35.6668 25.5866 35.6233 25.5092 35.546C25.4318 35.4686 25.3884 35.3637 25.3884 35.2543V22.9563Z" fill="#0E0E0E"/>
<path d="M42.3501 31.8459C42.3509 31.9003 42.3407 31.9543 42.3202 32.0046C42.2997 32.055 42.2694 32.1008 42.2309 32.1392C42.1925 32.1777 42.1467 32.2081 42.0963 32.2285C42.046 32.249 41.992 32.2592 41.9376 32.2584H29.1996C29.0902 32.2584 28.9853 32.215 28.9079 32.1376C28.8306 32.0602 28.7871 31.9553 28.7871 31.8459V19.1244C28.7885 19.0155 28.8325 18.9114 28.9095 18.8343C28.9866 18.7573 29.0907 18.7133 29.1996 18.7119C32.6845 18.7119 36.0269 20.0951 38.4926 22.5578C40.9583 25.0204 42.3457 28.361 42.3501 31.8459Z" fill="#0E0E0E"/>
</svg>
