<svg width="55" height="55" viewBox="0 0 55 55" fill="none" xmlns="http://www.w3.org/2000/svg">
<path d="M17.2927 18.3152V15.1762C17.2927 12.3098 15.5742 9.80375 13.0338 8.72008C13.8737 7.80484 14.3863 6.59033 14.3863 5.25948C14.3862 2.41871 12.0507 0.107422 9.17999 0.107422C6.30936 0.107422 3.9739 2.41871 3.9739 5.25948C3.9739 6.59033 4.48641 7.80484 5.32645 8.72008C2.78592 9.80364 1.06738 12.3098 1.06738 15.1762V18.3152C1.06738 18.9595 1.59149 19.4835 2.23581 19.4835H16.1243C16.7686 19.4836 17.2927 18.9595 17.2927 18.3152ZM15.6814 17.8723H2.67871V15.1763C2.67871 12.6266 4.44344 10.4459 6.91081 9.8957C7.59713 10.226 8.36702 10.4118 9.1801 10.4118C9.99317 10.4118 10.7631 10.226 11.4494 9.8957C13.9168 10.4459 15.6814 12.6266 15.6814 15.1763V17.8723ZM37.9753 40.2011H37.5471C36.9811 40.2011 36.5139 39.8889 36.2971 39.3659C36.0805 38.843 36.1901 38.2919 36.5904 37.8917L36.893 37.589C37.1671 37.3149 37.3181 36.95 37.3181 36.5612C37.3181 36.1726 37.1671 35.8076 36.8931 35.5337L34.9951 33.6357H34.9952C34.4285 33.0693 33.5066 33.0693 32.9399 33.6357L32.6372 33.9385C32.2368 34.3389 31.6856 34.4484 31.1628 34.2318C30.6399 34.0151 30.3277 33.548 30.3277 32.9818V32.5536C30.3277 31.7523 29.6759 31.1005 28.8745 31.1005H26.1904C25.389 31.1005 24.7371 31.7523 24.7371 32.5536V32.9817C24.7371 33.5479 24.425 34.0151 23.9021 34.2318C23.3792 34.4484 22.8279 34.3387 22.4276 33.9383L22.125 33.6359C21.8509 33.3618 21.486 33.2109 21.0974 33.2109C20.7086 33.2109 20.3436 33.3618 20.0699 33.6357L18.1717 35.5337C17.8978 35.8077 17.7469 36.1726 17.7469 36.5612C17.7469 36.95 17.8978 37.315 18.1716 37.5887L18.4746 37.8917C18.8748 38.2919 18.9844 38.8429 18.7678 39.3659C18.551 39.8889 18.0839 40.2011 17.5179 40.2011H17.0897C16.2883 40.2011 15.6365 40.853 15.6365 41.6542V44.3385C15.6365 45.1397 16.2883 45.7916 17.0897 45.7916H17.5179C18.0839 45.7916 18.551 46.1039 18.7678 46.6268C18.9845 47.1497 18.8747 47.7009 18.4745 48.1012L18.1717 48.4039C17.6052 48.9705 17.6052 49.8924 18.1717 50.4592L20.0698 52.3572C20.3438 52.6311 20.7087 52.782 21.0974 52.782C21.486 52.782 21.851 52.631 22.125 52.3571L22.4277 52.0544C22.8278 51.654 23.3789 51.5445 23.9022 51.7612C24.425 51.9778 24.7371 52.445 24.7371 53.0111V53.4393C24.7371 54.2406 25.389 54.8925 26.1904 54.8925H28.8745C29.6759 54.8925 30.3277 54.2406 30.3277 53.4393V53.0111C30.3277 52.445 30.6399 51.9778 31.1628 51.7611C31.6855 51.5447 32.237 51.6541 32.6372 52.0544L32.9399 52.3571C33.5065 52.9235 34.4284 52.9238 34.9952 52.3572L36.8933 50.459C37.4595 49.8925 37.4596 48.9706 36.8931 48.4038L36.5904 48.1012C36.19 47.7009 36.0805 47.1498 36.2971 46.6268C36.5139 46.1039 36.9811 45.7916 37.5471 45.7916H37.9753C38.7767 45.7916 39.4285 45.1397 39.4285 44.3385V41.6542C39.4285 40.8531 38.7767 40.2011 37.9753 40.2011ZM37.8172 44.1804H37.547C36.3254 44.1804 35.276 44.8815 34.8085 46.0103C34.3409 47.139 34.5871 48.3768 35.451 49.2408L35.642 49.4316L33.9675 51.106L33.7766 50.915C32.9128 50.0511 31.6748 49.805 30.5463 50.2725C29.4175 50.74 28.7164 51.7893 28.7164 53.0111V53.2812H26.3484V53.0111C26.3484 51.7893 25.6472 50.7399 24.5185 50.2726C23.3898 49.8049 22.152 50.0511 21.2882 50.915L21.0973 51.106L19.4228 49.4316L19.6137 49.2407C20.4777 48.3768 20.724 47.1391 20.2563 46.0103C19.7887 44.8815 18.7394 44.1804 17.5178 44.1804H17.2476V41.8125H17.5178C18.7394 41.8125 19.7888 41.1113 20.2564 39.9825C20.7239 38.8537 20.4775 37.616 19.6139 36.7524L19.4228 36.5612L21.0973 34.887L21.2882 35.0778C22.152 35.9419 23.3898 36.1882 24.5185 35.7203C25.6472 35.2528 26.3484 34.2034 26.3484 32.9817V32.7117H28.7164V32.9818C28.7164 34.2036 29.4175 35.253 30.5462 35.7203C31.6748 36.1881 32.9128 35.9419 33.7766 35.0779L33.9675 34.8869L35.642 36.5612L35.4509 36.7522C34.587 37.6161 34.3408 38.854 34.8085 39.9825C35.2761 41.1113 36.3254 41.8125 37.547 41.8125H37.8172V44.1804ZM33.819 42.9965C33.819 46.463 30.9989 49.283 27.5325 49.283C24.0661 49.283 21.2459 46.4629 21.2459 42.9965C21.2459 39.5301 24.0661 36.7099 27.5325 36.7099C30.9989 36.7099 33.819 39.53 33.819 42.9965ZM46.642 20.8092V23.9693C46.642 24.4143 46.2814 24.7749 45.8363 24.7749H28.3525V27.3417L29.1348 26.549C29.4473 26.2324 29.9574 26.229 30.2741 26.5416C30.5908 26.8542 30.5941 27.3642 30.2815 27.6809L28.1202 29.871C27.9626 30.0306 27.7547 30.1107 27.5468 30.1107C27.3423 30.1107 27.1378 30.0333 26.9808 29.8784L24.7906 27.7171C24.474 27.4046 24.4706 26.8945 24.7832 26.5778C25.0957 26.2611 25.6059 26.2578 25.9225 26.5704L26.741 27.3781V24.775H9.1961C8.75106 24.775 8.39044 24.4144 8.39044 23.9694V20.8093C8.39044 20.3643 8.75106 20.0037 9.1961 20.0037C9.64115 20.0037 10.0018 20.3643 10.0018 20.8093V23.1637H26.7411V20.8093C26.7411 20.3643 27.1017 20.0037 27.5468 20.0037C27.9918 20.0037 28.3524 20.3643 28.3524 20.8093V23.1637H45.0306V20.8093C45.0306 20.3643 45.3913 20.0037 45.8363 20.0037C46.2814 20.0037 46.642 20.3642 46.642 20.8092ZM49.6737 8.80956C50.5137 7.89433 51.0263 6.67981 51.0263 5.34896C51.0263 2.50809 48.6908 0.196797 45.8202 0.196797C42.9495 0.196797 40.614 2.50809 40.614 5.34896C40.614 6.67981 41.1265 7.89433 41.9664 8.80945C39.4259 9.89302 37.7074 12.3992 37.7074 15.2656V18.4046C37.7074 19.0489 38.2315 19.5729 38.8758 19.5729H52.7643C53.4086 19.5729 53.9327 19.0488 53.9327 18.4046V15.2656C53.9327 12.3993 52.2143 9.89313 49.6737 8.80956ZM52.3214 17.9617H39.3187V15.2657C39.3187 12.716 41.0834 10.5353 43.5508 9.98508C44.2371 10.3154 45.007 10.5011 45.8201 10.5011C46.6332 10.5011 47.4031 10.3154 48.0893 9.98508C50.5566 10.5353 52.3213 12.716 52.3213 15.2657V17.9617H52.3214ZM20.5558 19.4836H34.4442C35.0885 19.4836 35.6126 18.9595 35.6126 18.3153V15.1763C35.6126 12.3099 33.8941 9.80375 31.3536 8.72019C32.1935 7.80495 32.7061 6.59044 32.7061 5.25959C32.7061 2.41871 30.3707 0.107422 27.5 0.107422C24.6294 0.107422 22.2939 2.41871 22.2939 5.25948C22.2939 6.59033 22.8065 7.80484 23.6465 8.72008C21.106 9.80364 19.3874 12.3098 19.3874 15.1762V18.3152C19.3874 18.9595 19.9114 19.4836 20.5558 19.4836ZM20.9988 15.1762C20.9988 12.6265 22.7635 10.4458 25.2309 9.8956C25.9172 10.2259 26.6871 10.4116 27.5001 10.4116C28.3132 10.4116 29.0831 10.2259 29.7694 9.8956C32.2368 10.4458 34.0015 12.6265 34.0015 15.1762V17.8722H20.9988V15.1762Z" fill="#0E0E0E"/>
</svg>
