<svg width="55" height="55" viewBox="0 0 55 55" fill="none" xmlns="http://www.w3.org/2000/svg">
<path d="M40.7458 30.8075H36.4961C35.7775 30.8075 35.192 31.3919 35.192 32.1116V53.5896C35.192 54.3082 35.7764 54.8937 36.4961 54.8937H40.7458C41.4644 54.8937 42.0499 54.3093 42.0499 53.5896V32.1116C42.0499 31.393 41.4655 30.8075 40.7458 30.8075ZM40.3311 53.1738H36.9108V32.5263H40.3311V53.1738ZM51.0239 24.5395V53.5885C51.0239 54.3071 50.4384 54.8926 49.7198 54.8926H45.4702C44.7515 54.8926 44.1661 54.3082 44.1661 53.5885V24.5395C44.1661 23.8208 44.7515 23.2354 45.4702 23.2354H49.7198C50.4384 23.2354 51.0239 23.8208 51.0239 24.5395ZM15.1289 45.5265V53.5885C15.1289 54.3071 14.5434 54.8926 13.8248 54.8926H9.57515C8.85649 54.8926 8.27105 54.3082 8.27105 53.5885V45.5265C8.27105 44.8078 8.85649 44.2224 9.57515 44.2224H13.8248C14.5445 44.2224 15.1289 44.8078 15.1289 45.5265ZM33.0769 39.8729V53.5885C33.0769 54.3071 32.4925 54.8926 31.7728 54.8926H27.5232C26.8045 54.8926 26.2191 54.3082 26.2191 53.5885V39.8729C26.2191 39.1542 26.8035 38.5688 27.5232 38.5688H31.7728C32.4915 38.5688 33.0769 39.1542 33.0769 39.8729ZM22.7988 34.303H18.5492C17.8305 34.303 17.2451 34.8885 17.2451 35.6071V53.5896C17.2451 54.3082 17.8305 54.8937 18.5492 54.8937H22.7988C23.5174 54.8937 24.1029 54.3093 24.1029 53.5896V35.6071C24.1029 34.8885 23.5174 34.303 22.7988 34.303ZM22.3841 53.1738H18.9638V36.0218H22.3841V53.1738ZM26.1804 22.2771C31.4387 22.2771 35.7173 17.9985 35.7173 12.7402C35.7173 7.48193 31.4387 3.20332 26.1804 3.20332C20.9221 3.20332 16.6435 7.48193 16.6435 12.7402C16.6435 17.9985 20.921 22.2771 26.1804 22.2771ZM21.3443 11.9238C21.5935 11.6671 21.9276 11.5242 22.2853 11.5188H22.3036C22.6538 11.5188 22.9846 11.6531 23.236 11.897L24.7001 13.3246C24.7517 13.3751 24.8097 13.3858 24.8495 13.3858C24.8828 13.3858 24.9472 13.3772 25.002 13.3225L29.1055 9.18027C29.359 8.92676 29.6942 8.78711 30.0508 8.78604C30.4107 8.78604 30.7459 8.92461 30.9983 9.1749C31.2518 9.42734 31.3915 9.7625 31.3925 10.1202C31.3936 10.4779 31.255 10.8142 31.0015 11.0688L25.8173 16.3013C25.5638 16.5559 25.2265 16.6955 24.8677 16.6955C24.5165 16.6955 24.1856 16.5612 23.9353 16.3174L21.3679 13.8155C21.1123 13.5663 20.9683 13.2322 20.964 12.8756C20.9608 12.5179 21.0951 12.1795 21.3443 11.9238ZM43.4818 16.6815C43.5172 16.2078 43.9308 15.8533 44.4024 15.8888L48.1793 16.1713C48.4264 16.1896 48.6531 16.3142 48.8024 16.5118C48.9517 16.7095 49.0076 16.963 48.956 17.2047L48.1761 20.9107C48.0913 21.3157 47.7335 21.5929 47.3361 21.5929C47.277 21.5929 47.2179 21.5864 47.1588 21.5746C46.6948 21.4769 46.3972 21.0214 46.495 20.5562L46.8043 19.0867L39.1838 24.0937L30.2829 33.8411C29.996 34.1548 29.5223 34.2117 29.17 33.9754L20.8652 28.4099L12.3821 39.4389C12.2124 39.6591 11.9578 39.774 11.7 39.774C11.5173 39.774 11.3326 39.716 11.1768 39.5957C10.8008 39.3067 10.7299 38.7664 11.02 38.3904L19.994 26.7233C20.2701 26.3646 20.7771 26.2808 21.1531 26.5332L29.5126 32.1353L37.9872 22.854C38.0355 22.8014 38.0903 22.7541 38.1494 22.7154L45.7634 17.7128L44.2746 17.6011C43.8008 17.5667 43.4463 17.1542 43.4818 16.6815ZM17.8026 25.85C18.2194 25.4332 18.2194 24.7532 17.8026 24.3364L17.7951 24.3289L18.9971 23.1269C21.0381 24.5427 23.5131 25.3741 26.1793 25.3741C33.1446 25.3741 38.8122 19.7076 38.8122 12.7413C38.8132 5.77393 33.1457 0.107422 26.1804 0.107422C19.2152 0.107422 13.5476 5.77393 13.5476 12.7402C13.5476 15.4064 14.3791 17.8825 15.7949 19.9225L14.5928 21.1245L14.5853 21.117C14.3834 20.915 14.1148 20.8033 13.828 20.8033C13.5422 20.8033 13.2726 20.915 13.0717 21.117L4.95171 29.237C3.64761 30.5411 3.64761 32.6638 4.95171 33.9679C5.60376 34.6199 6.46099 34.9465 7.31714 34.9465C8.17329 34.9465 9.03052 34.6199 9.68257 33.9679L17.8026 25.85ZM15.2664 12.7402C15.2664 6.72246 20.1626 1.82617 26.1804 1.82617C32.1982 1.82617 37.0945 6.72246 37.0945 12.7402C37.0945 18.758 32.1982 23.6543 26.1804 23.6543C20.1626 23.6543 15.2664 18.758 15.2664 12.7402ZM13.828 22.7917L16.129 25.0927L15.0805 26.1411L12.7795 23.8401L13.828 22.7917Z" fill="#0E0E0E"/>
</svg>
