<svg width="55" height="55" viewBox="0 0 55 55" fill="none" xmlns="http://www.w3.org/2000/svg">
<g clip-path="url(#clip0_4476_18047)">
<path d="M15.7637 39.2366C14.5067 37.9796 12.7449 37.1885 10.8202 37.1885C8.95157 37.1885 7.19533 37.9179 5.87103 39.2366C3.27862 41.8345 0.691793 53.2647 0.585231 53.7472C0.495319 54.1513 0.854538 54.5104 1.25297 54.4206C1.74109 54.3084 13.1656 51.7216 15.758 49.1236C18.4963 46.3853 18.4682 41.9411 15.7637 39.2366ZM14.9668 48.3323C13.1599 50.1392 5.58475 52.2322 1.88128 53.1187C2.76794 49.4152 4.85525 41.8401 6.66767 40.0332C7.77304 38.9222 9.24891 38.3106 10.8201 38.3106C11.1286 38.3106 11.4316 38.3386 11.7291 38.3891C11.2522 38.5686 10.8033 38.8548 10.4217 39.2365C9.08617 40.5664 7.8405 46.0149 7.70021 46.6265C7.61051 47.0361 7.97521 47.3897 8.37353 47.2999C8.98519 47.1596 14.4282 45.9082 15.7636 44.5785C16.1452 44.1969 16.4257 43.748 16.6107 43.271C16.886 45.061 16.3415 46.9576 14.9668 48.3323Z" fill="#0E0E0E"/>
<path d="M50.2452 0.619385C45.066 1.51163 39.7465 3.24553 35.1116 5.80421C32.2498 7.39223 29.6126 9.31121 27.3175 11.6007C25.4938 13.43 23.8161 15.3098 22.3067 17.2176C18.794 15.955 14.8774 16.8136 12.2177 19.4677C9.63084 22.0657 6.52774 28.1484 6.21912 32.7327C6.10127 34.5002 8.45252 35.2186 9.36153 33.6755C10.0404 32.5308 10.7531 31.5769 11.4153 30.9203C12.5095 29.8149 13.9179 29.1192 15.4442 28.9059C15.2759 29.3716 15.1187 29.8374 14.9897 30.2863C14.6811 31.358 14.8887 32.4972 15.534 33.378L14.1031 34.8089C13.4242 35.4935 13.4242 36.5989 14.1031 37.2779L17.7169 40.8915C18.3958 41.5704 19.5013 41.5704 20.1858 40.8915L21.6111 39.4607C22.5089 40.1061 23.6423 40.308 24.7029 40.005C25.1573 39.8703 25.6231 39.7188 26.0944 39.5449C25.8811 41.0711 25.1853 42.4851 24.0799 43.5849C23.4235 44.247 22.4415 44.9709 21.3192 45.633C19.7874 46.5421 20.5 48.8989 22.2675 48.781C26.8577 48.4667 32.9458 45.3637 35.5326 42.7769C38.1867 40.1171 39.0451 36.2005 37.7826 32.6878C39.6905 31.1783 41.5701 29.5062 43.3939 27.6769C45.7058 25.3652 47.6135 22.7335 49.1903 19.8885C51.7323 15.2872 53.4774 9.96219 54.3752 4.74933C54.7959 2.31397 52.6861 0.19292 50.2452 0.619385ZM19.3889 40.0947C19.1476 40.3415 18.7491 40.3415 18.508 40.0947L14.8943 36.4866C14.653 36.2396 14.653 35.8469 14.8943 35.6056L16.2915 34.2084L20.7862 38.703L19.3889 40.0947ZM48.2083 19.3442C46.7045 22.0599 44.8583 24.6243 42.6027 26.8858C37.9678 31.5207 33.3106 34.8312 29.4106 36.8626C27.5141 37.8445 25.6904 38.5516 24.3943 38.9274C23.5357 39.1687 22.6156 38.9387 21.987 38.3158C21.987 38.3102 21.9815 38.3045 21.9815 38.2989L16.6901 33.0131C16.6901 33.0131 16.6845 33.0075 16.6788 33.0075C16.0561 32.3735 15.8203 31.4532 16.0671 30.6003C16.5216 29.0403 17.2175 27.3513 18.1322 25.5894C20.6124 20.8254 24.2821 16.2298 28.1145 12.3973C30.1964 10.3099 32.7046 8.42455 35.6506 6.78605C37.7267 5.64136 39.9712 4.64255 42.3223 3.82324C43.1472 4.64813 51.0141 12.5207 51.1657 12.6722C50.3406 15.0402 49.3474 17.2848 48.2083 19.3442Z" fill="#0E0E0E"/>
<path d="M43.7018 20.1861C41.2498 22.6381 37.2658 22.6381 34.8136 20.1861C32.3614 17.7339 32.3558 13.7443 34.8081 11.2922C37.2601 8.8401 41.2554 8.8401 43.7074 11.2922C46.1597 13.7443 46.1597 17.734 43.7018 20.1861Z" fill="#0E0E0E"/>
</g>
<defs>
<clipPath id="clip0_4476_18047">
<rect width="55" height="55" fill="white"/>
</clipPath>
</defs>
</svg>
