<svg width="55" height="55" viewBox="0 0 55 55" fill="none" xmlns="http://www.w3.org/2000/svg">
<path d="M53.3039 9.90906L48.7399 8.36851L51.4797 5.66502C52.0724 5.08082 52.2716 4.19258 51.9874 3.40231C51.6562 2.48249 51.1436 1.61085 49.6457 1.46267C49.0344 1.40032 48.4069 1.64121 47.9567 2.10193L45.7499 4.36357C45.6177 3.18146 45.4272 1.9954 45.0806 0.482934C44.9803 0.0496435 44.474 -0.141264 44.1114 0.116545C41.4093 2.05463 38.9234 2.84428 38.5204 5.47069C38.4054 5.33102 38.2896 5.19741 38.1739 5.07313C37.982 4.86827 37.6775 4.81847 37.4297 4.94762C33.9051 6.80305 33.9051 7.39292 33.9051 7.64473C33.9051 8.36975 37.0916 13.0223 37.1725 13.1545C37.0911 13.2383 33.7669 16.6621 33.9786 16.444C25.6494 10.0269 15.2752 9.53032 8.96371 14.8887C9.03446 14.8129 9.09625 14.7286 9.16852 14.6542C8.72015 14.9014 8.12452 15.156 7.52493 15.641C3.28979 19.0676 1.37454 23.9072 1.28037 29.0872C1.18249 34.4719 2.51976 39.8446 6.07769 43.8707C9.79801 48.0806 13.5527 51.0681 18.7072 52.5842C23.7005 54.0527 28.9713 54.3811 34.0782 51.5072C38.5649 48.9823 42.9484 43.866 43.4001 38.6424C45.1048 32.2391 42.511 25.0554 37.9416 19.9407C38.9313 18.8276 39.9146 17.7154 40.9046 16.6022C43.3333 18.0574 46.3007 18.8911 46.6927 18.8911C46.883 18.8911 47.0668 18.8032 47.1858 18.6482C49.4325 15.7399 49.5377 15.6298 49.4417 15.2527C49.3547 14.912 49.1139 14.8823 48.8303 14.6563C49.7639 14.6045 50.7064 14.4875 50.9461 14.3276C51.5752 13.9082 52.2513 12.9552 53.6262 10.8366C53.8485 10.4936 53.6846 10.0374 53.3039 9.90906ZM22.3966 28.3233C22.3048 29.4864 24.4701 31.5029 25.6249 31.3223C25.787 31.4031 25.9536 31.4259 26.1441 31.3444C26.9421 31.4094 28.2909 30.1923 29.0216 29.9912C29.1265 29.8727 29.2326 29.7538 29.3376 29.6352C30.5692 33.2582 28.2197 35.8525 24.4831 34.6844C18.0904 32.6849 16.8737 23.9146 22.626 24.1764C23.4883 24.2421 24.4222 24.5762 25.3675 25.1558C22.5767 27.9248 22.3855 27.8789 22.3966 28.3233ZM26.3727 24.1797C22.0974 21.4897 18.2945 23.4145 17.736 26.7321C17.1444 30.2444 19.9053 34.0785 23.243 35.5497C28.5175 37.8777 32.5647 33.8163 30.2629 28.5925C31.4643 27.2354 32.673 25.8769 33.8782 24.519C37.626 29.5794 37.9975 35.705 34.6549 39.4583C30.6137 44.0015 22.5369 43.4404 16.6536 38.2097C10.7793 32.975 9.28942 25.0209 13.3331 20.4777C17.1437 16.1975 24.2189 16.2858 29.9323 20.6163L28.1554 22.4485L26.3727 24.1797ZM50.8165 3.82335C50.8761 3.98813 50.8854 4.16231 50.8511 4.32613C50.3815 4.44586 49.8358 4.30163 49.5097 3.93874C49.2882 3.69319 49.1309 3.37078 49.4487 2.70197C50.261 2.7003 50.5652 3.12357 50.8165 3.82335ZM35.2654 7.73016C35.6808 7.40021 36.6346 6.80103 37.5771 6.2812C38.0567 6.8683 38.5589 7.60016 39.0621 8.13784C39.5615 8.67209 40.4158 8.04649 40.0588 7.40952C39.4402 6.30306 39.6993 4.83022 40.6629 3.98327C41.6014 3.15789 42.7607 2.52251 44.0636 1.65902C44.36 3.105 44.5037 4.26702 44.6143 5.52742L38.0673 12.2375C36.7859 10.2442 36.9804 10.9232 35.2654 7.73016ZM48.0676 3.77194C48.2465 4.64115 48.97 5.28898 49.8544 5.5221L39.3115 15.9259C20.8233 35.1536 27.1999 28.522 25.8205 29.9566C25.4626 29.3003 24.809 28.6193 24.0397 28.1789L29.0348 23.3278C33.0306 19.2222 45.4148 6.49767 48.0676 3.77194ZM39.7463 43.1942C33.6747 50.7293 21.6912 49.3627 13.7638 42.9594C4.05402 35.139 2.99696 23.7543 7.99552 17.6227C13.4741 10.8105 24.4239 10.7301 33.105 17.3448L30.8058 19.7156C24.5457 14.8956 16.6804 14.8462 12.4035 19.651C7.90483 24.7059 9.44002 33.4479 15.8269 39.1384C19.2722 42.2015 23.4333 43.7643 27.2421 43.7643C37.6258 43.7643 41.6667 32.7058 34.7154 23.5756C35.5148 22.6756 36.3115 21.776 37.1117 20.8758C42.7657 27.2783 44.9118 36.8134 39.7463 43.1942ZM50.3161 13.2495C49.8959 13.343 48.0619 13.5236 47.1713 13.4163C46.4887 13.3338 46.1975 14.2671 46.8101 14.5855C47.1592 14.7672 47.5699 15.2251 47.9712 15.56C47.5261 16.1723 46.9218 16.9551 46.4482 17.5684C44.8247 17.1484 43.1507 16.4604 41.7488 15.651C47.5902 9.08094 42.4941 14.7978 47.7488 9.34652L52.1452 10.8305C51.2578 12.1799 50.6967 12.9568 50.3161 13.2495Z" fill="#0E0E0E"/>
</svg>
