<svg width="125" height="137" viewBox="0 0 125 137" fill="none" xmlns="http://www.w3.org/2000/svg">
<path d="M62.6575 112.865C62.7087 115.65 68.8912 115.127 89.0079 110.72C110.3 106.041 114.859 104.212 113.699 101.132C112.052 96.9175 62.6867 108.353 62.6575 112.865Z" fill="#FFC900"/>
<path d="M33.274 21.9807C25.0563 23.0122 24.1283 24.5455 20.4155 43.1552C16.5606 62.373 16.5375 65.9969 20.0635 66.8924C26.4645 68.4897 29.1093 63.671 35.0577 40.0972C39.4363 22.7027 39.3395 21.2193 33.274 21.9807Z" fill="#FFC900"/>
<path d="M82.0525 42.5753C76.2938 43.2477 74.302 44.7081 68.1371 52.6746C49.934 76.3756 35.1773 91.8653 46.3693 90.323C50.9403 89.7258 54.7483 85.6679 76.9008 58.6505C89.0809 43.6573 89.7607 41.7283 82.0525 42.5753Z" fill="#FFC900"/>
</svg>
