<svg width="414" height="367" viewBox="0 0 414 367" fill="none" xmlns="http://www.w3.org/2000/svg">
<path d="M353.078 83.3036C353.048 81.9215 354.141 80.7943 355.52 80.7859C356.899 80.7776 358.041 81.8913 358.072 83.2735L353.078 83.3036ZM319.639 197.978L321.132 200.008L319.639 197.978ZM214.846 207.511L216.147 205.396L214.846 207.511ZM200.917 164.046L198.816 162.659L200.917 164.046ZM245.38 160.608L246.755 158.541L245.38 160.608ZM241.704 259.781L239.753 258.188L241.704 259.781ZM55.2984 255.819C54.7462 254.544 55.3232 253.078 56.5872 252.545L77.1843 243.856C78.4482 243.323 79.9205 243.924 80.4727 245.199C81.0249 246.475 80.4479 247.941 79.1839 248.474L60.8754 256.197L68.874 274.669C69.4263 275.944 68.8493 277.41 67.5853 277.943C66.3214 278.477 64.8491 277.875 64.2969 276.6L55.2984 255.819ZM355.575 83.2886C358.072 83.2735 358.072 83.2744 358.072 83.2756C358.072 83.2764 358.072 83.278 358.072 83.2797C358.072 83.283 358.072 83.2877 358.072 83.2937C358.072 83.3057 358.073 83.323 358.073 83.3455C358.074 83.3904 358.075 83.456 358.076 83.5418C358.079 83.7134 358.082 83.9657 358.084 84.2942C358.089 84.9513 358.091 85.9134 358.08 87.1447C358.058 89.607 357.983 93.1477 357.775 97.4799C357.359 106.139 356.406 117.986 354.258 130.718C352.111 143.439 348.76 157.117 343.515 169.406C338.277 181.676 331.077 192.739 321.132 200.008L318.147 195.948C327.119 189.39 333.87 179.203 338.917 167.376C343.957 155.568 347.224 142.302 349.332 129.808C351.439 117.324 352.376 105.684 352.786 97.16C352.991 92.9006 353.063 89.4255 353.085 87.0201C353.096 85.8175 353.094 84.8827 353.089 84.2513C353.087 83.9356 353.084 83.6958 353.082 83.5364C353.081 83.4567 353.08 83.397 353.079 83.3581C353.079 83.3386 353.078 83.3242 353.078 83.3151C353.078 83.3106 353.078 83.3074 353.078 83.3054C353.078 83.3045 353.078 83.304 353.078 83.3035C353.078 83.3034 353.078 83.3036 355.575 83.2886ZM321.132 200.008C287.621 224.501 247.136 230.703 213.544 209.627L216.147 205.396C247.51 225.075 285.759 219.621 318.147 195.948L321.132 200.008ZM213.544 209.627C206.569 205.25 200.774 196.935 197.741 188.229C194.723 179.569 194.195 169.78 198.816 162.659L203.017 165.434C199.592 170.711 199.673 178.666 202.453 186.646C205.218 194.578 210.41 201.796 216.147 205.396L213.544 209.627ZM198.816 162.659C203.739 155.073 212.383 151.728 221.235 151.388C230.092 151.047 239.567 153.676 246.755 158.541L244.004 162.675C237.752 158.443 229.345 156.088 221.505 156.389C213.661 156.691 206.794 159.613 203.017 165.434L198.816 162.659ZM246.755 158.541C256.976 165.458 263.704 173.31 267.51 181.82C271.317 190.332 272.119 199.321 270.778 208.384C268.113 226.402 256.952 244.913 243.655 261.374L239.753 258.188C252.885 241.931 263.369 224.261 265.837 207.574C267.063 199.285 266.305 191.291 262.957 183.807C259.609 176.32 253.59 169.162 244.004 162.675L246.755 158.541ZM243.655 261.374C232.405 275.301 214.807 281.748 195.222 283.797C175.615 285.849 153.663 283.536 133.201 279.595C112.716 275.649 93.5947 270.044 79.6049 265.432C72.6065 263.125 66.884 261.063 62.907 259.576C60.9184 258.833 59.3657 258.233 58.3077 257.818C57.7786 257.611 57.3733 257.45 57.0988 257.34C56.9616 257.285 56.8571 257.243 56.7863 257.214C56.7509 257.2 56.7239 257.189 56.7054 257.181C56.6962 257.177 56.6891 257.175 56.6842 257.173C56.6817 257.172 56.6796 257.171 56.6783 257.17C56.6767 257.17 56.6757 257.169 57.587 254.854C58.4983 252.538 58.4983 252.538 58.4989 252.539C58.4998 252.539 58.5009 252.54 58.5028 252.54C58.5064 252.542 58.5122 252.544 58.5201 252.547C58.5359 252.554 58.5603 252.564 58.593 252.577C58.6585 252.603 58.7575 252.643 58.8891 252.696C59.1525 252.802 59.5464 252.958 60.0637 253.161C61.0981 253.567 62.6255 254.157 64.5873 254.89C68.5111 256.357 74.1707 258.396 81.0978 260.68C94.9589 265.25 113.862 270.787 134.069 274.68C154.299 278.577 175.708 280.799 194.626 278.819C213.565 276.837 229.656 270.687 239.753 258.188L243.655 261.374Z" fill="#0C9347"/>
</svg>
