<svg width="311" height="243" viewBox="0 0 311 243" fill="none" xmlns="http://www.w3.org/2000/svg">
<path fill-rule="evenodd" clip-rule="evenodd" d="M188.883 210.719C211.78 219.125 235.746 226.038 255.154 241.411C256.313 242.322 257.989 242.139 258.908 240.99C259.818 239.837 259.629 238.164 258.474 237.243C238.611 221.513 214.142 214.316 190.713 205.718C189.33 205.203 187.79 205.916 187.288 207.298C186.776 208.676 187.5 210.204 188.883 210.719Z" fill="#0C9347"/>
<path fill-rule="evenodd" clip-rule="evenodd" d="M198.217 176.445C207.656 172.285 217.192 170.008 227.524 170.789C228.999 170.901 230.276 169.798 230.389 168.33C230.491 166.859 229.378 165.575 227.913 165.466C216.678 164.616 206.313 167.04 196.052 171.558C194.699 172.151 194.087 173.726 194.692 175.078C195.287 176.424 196.874 177.04 198.217 176.445Z" fill="#0C9347"/>
<path fill-rule="evenodd" clip-rule="evenodd" d="M202.776 97.2788C209.901 87.1075 219.401 80.4896 231.541 77.5111C232.973 77.1591 233.846 75.7116 233.482 74.2782C233.128 72.8482 231.671 71.9701 230.239 72.3221C216.802 75.6218 206.274 82.9399 198.384 94.2014C197.536 95.4052 197.843 97.0771 199.05 97.9241C200.267 98.7756 201.938 98.486 202.776 97.2788Z" fill="#0C9347"/>
<path fill-rule="evenodd" clip-rule="evenodd" d="M94.1734 43.3967C91.4278 45.0349 88.8242 46.9209 86.4296 49.0574C85.3624 50.0082 83.3401 52.1124 82.4311 54.198C81.4544 56.4172 81.5811 58.6132 83.2426 60.3129C85.4503 62.5682 87.6249 63.1521 89.5417 62.8953C91.3868 62.6501 93.1432 61.5316 94.6214 59.7334C97.4449 56.2958 99.2618 50.1914 99.6458 46.4855C102.473 45.0407 105.434 43.8659 108.485 42.9637C131.203 36.2451 156.478 50.1823 170.613 76.6096C175.56 85.8614 174.222 101.298 170.833 117.291C165.56 142.193 154.903 168.383 152.029 176.14C151.324 178.058 151.118 179.268 151.142 179.532C151.236 180.822 151.978 181.401 152.528 181.712C153.327 182.154 154.06 182.223 154.703 182.126C155.574 181.99 156.413 181.514 157.053 180.556C157.402 180.026 157.716 179.229 157.989 178.358C158.171 177.752 158.271 177.056 158.538 176.667C160.259 174.185 162.12 171.823 163.967 169.435C170.154 161.399 177.059 154.245 184.405 147.254C207.748 125.037 231.142 101.13 261.38 88.4441C262.736 87.8746 263.378 86.3102 262.799 84.9499C262.231 83.593 260.662 82.953 259.296 83.5201C228.454 96.4543 204.518 120.726 180.711 143.382C174.463 149.33 168.525 155.395 163.062 161.993C167.896 148.676 174.068 130.065 177.167 112.793C179.924 97.433 180.131 83.0991 175.324 74.1053C159.839 45.1548 131.832 30.481 106.952 37.8444C104.291 38.6332 101.679 39.6082 99.1615 40.7729C95.061 18.2713 75.1416 3.02889 52.2066 5.31302C50.7345 5.45752 49.6699 6.76766 49.8181 8.23265C49.9765 9.70109 51.286 10.7715 52.7582 10.627C73.4252 8.56916 91.2706 22.7637 94.1734 43.3967ZM93.4984 50.2326C92.2868 51.1094 91.1215 52.0494 89.9933 53.0471C89.3935 53.5844 88.3127 54.6422 87.6159 55.8003C87.456 56.0727 87.2907 56.5281 87.2188 56.7403C87.8015 57.3219 88.2923 57.6739 88.8135 57.6023C89.4636 57.5171 89.9661 56.9669 90.4841 56.3374C91.7863 54.7588 92.8222 52.4313 93.4984 50.2326Z" fill="#0C9347"/>
</svg>
