<svg width="291" height="200" viewBox="0 0 291 200" fill="none" xmlns="http://www.w3.org/2000/svg">
<path d="M5.49994 2.98239C5.49021 1.60171 4.36307 0.490337 2.98239 0.500062C1.60171 0.509787 0.490337 1.63693 0.500062 3.01761L5.49994 2.98239ZM39.9231 110.584L38.4842 112.628L39.9231 110.584ZM138.769 118.268L137.402 116.175L138.769 118.268ZM150.692 77.1561L152.757 75.7464L150.692 77.1561ZM108.769 74.4665L107.329 72.4228L108.769 74.4665ZM117.231 178.977L119.141 177.363L117.231 178.977ZM290.385 161.668C290.799 160.352 290.068 158.948 288.751 158.533L267.289 151.777C265.972 151.362 264.568 152.094 264.154 153.411C263.739 154.728 264.471 156.132 265.788 156.546L284.865 162.552L278.859 181.629C278.445 182.946 279.176 184.35 280.493 184.764C281.81 185.179 283.214 184.447 283.628 183.13L290.385 161.668ZM3 3C0.500062 3.01761 0.500068 3.01846 0.500077 3.01962C0.500083 3.02043 0.500094 3.02191 0.500107 3.02351C0.500132 3.02673 0.500169 3.03119 0.500219 3.03689C0.500319 3.04829 0.500472 3.06464 0.500696 3.08587C0.501143 3.12833 0.501872 3.19032 0.503015 3.27132C0.505303 3.43331 0.509253 3.67133 0.515943 3.98115C0.529322 4.60077 0.553664 5.50772 0.597595 6.66813C0.685447 8.98868 0.851701 12.3245 1.16551 16.4045C1.79274 24.5595 3.01132 35.7119 5.3795 47.6845C7.74552 59.6461 11.2731 72.4994 16.5474 84.0227C21.8131 95.5274 28.9005 105.883 38.4842 112.628L41.362 108.539C32.7729 102.494 26.1585 93.0073 21.0938 81.9418C16.0376 70.895 12.606 58.4511 10.2845 46.7142C7.96506 34.9883 6.76764 24.0411 6.15078 16.021C5.84255 12.0135 5.67973 8.74293 5.59402 6.47898C5.55117 5.34714 5.52761 4.46731 5.51478 3.87321C5.50836 3.57618 5.50463 3.35061 5.50252 3.20072C5.50146 3.12578 5.5008 3.06976 5.50042 3.0332C5.50023 3.01491 5.5001 3.0015 5.50003 2.99301C5.49999 2.98876 5.49996 2.98575 5.49995 2.98398C5.49994 2.98309 5.49994 2.9827 5.49994 2.98225C5.49994 2.98217 5.49994 2.98239 3 3ZM38.4842 112.628C70.7106 135.31 109.039 140.674 140.136 120.362L137.402 116.175C108.5 135.054 72.4398 130.412 41.362 108.539L38.4842 112.628ZM140.136 120.362C146.616 116.129 151.858 108.193 154.482 99.9351C157.091 91.7234 157.332 82.4473 152.757 75.7464L148.628 78.5657C151.958 83.4437 152.109 90.8888 149.716 98.421C147.338 105.907 142.665 112.738 137.402 116.175L140.136 120.362ZM152.757 75.7464C147.886 68.6114 139.608 65.5536 131.238 65.3415C122.863 65.1294 113.987 67.7321 107.329 72.4228L110.209 76.5101C115.949 72.4662 123.761 70.1537 131.111 70.3399C138.465 70.5263 144.951 73.1806 148.628 78.5657L152.757 75.7464ZM107.329 72.4228C88.0765 85.9874 83.5887 105.58 87.1808 125.387C90.7475 145.054 102.269 165.137 115.321 180.59L119.141 177.363C106.439 162.325 95.4609 143.024 92.1005 124.495C88.7655 106.106 92.9235 88.6888 110.209 76.5101L107.329 72.4228ZM115.321 180.59C126.361 193.661 143.059 198.805 161.379 199.433C179.71 200.062 200.04 196.191 218.901 190.822C237.787 185.447 255.342 178.527 268.163 172.959C274.578 170.173 279.817 167.722 283.456 165.965C285.275 165.087 286.695 164.382 287.663 163.895C288.146 163.652 288.517 163.463 288.768 163.334C288.894 163.27 288.989 163.221 289.054 163.187C289.086 163.171 289.111 163.158 289.128 163.149C289.137 163.145 289.143 163.141 289.148 163.139C289.15 163.138 289.152 163.137 289.153 163.136C289.154 163.135 289.155 163.135 288 160.918C286.845 158.701 286.845 158.701 286.844 158.701C286.843 158.702 286.842 158.702 286.841 158.703C286.837 158.705 286.832 158.707 286.825 158.711C286.81 158.719 286.788 158.73 286.758 158.745C286.699 158.776 286.608 158.823 286.488 158.884C286.248 159.008 285.888 159.191 285.416 159.428C284.471 159.904 283.075 160.597 281.282 161.463C277.694 163.195 272.517 165.618 266.172 168.373C253.475 173.887 236.137 180.718 217.532 186.013C198.9 191.317 179.138 195.039 161.55 194.436C143.95 193.832 128.902 188.92 119.141 177.363L115.321 180.59Z" fill="#FFC900"/>
</svg>
