<svg width="40" height="40" viewBox="0 0 40 40" fill="none" xmlns="http://www.w3.org/2000/svg">
<path d="M36.324 8.46804C36.0195 8.03807 35.702 7.61877 35.3639 7.21507C31.6928 2.80955 26.168 0 20 0C19.9885 0 19.9795 0.000820546 19.9696 0.000820546C19.9631 0.000820546 19.9582 0 19.9516 0C19.9294 0 19.9065 0.00246164 19.8827 0.00246164C13.7614 0.0377451 8.28506 2.83909 4.63527 7.21507C4.29884 7.61959 3.97965 8.03807 3.67523 8.46804C1.36457 11.7297 0 15.7069 0 20C0 24.2923 1.36375 28.2711 3.67523 31.532C3.97965 31.9619 4.29884 32.3812 4.63527 32.7849C8.28424 37.1609 13.7606 39.9623 19.8827 39.9975C19.9065 39.9975 19.9294 40 19.9516 40C19.9582 40 19.9631 39.9992 19.9688 39.9992C19.9787 39.9992 19.9877 40 19.9992 40C26.168 40 31.692 37.1913 35.3639 32.7858C35.7003 32.382 36.0195 31.9619 36.324 31.532C38.6346 28.2703 39.9992 24.2931 39.9992 19.9992C39.9992 15.7077 38.6346 11.7297 36.324 8.46804ZM14.1536 2.60113C12.3156 4.37433 10.7877 6.96644 9.73496 10.0771C8.32444 9.55034 7.05506 8.91606 5.96045 8.1989C8.10618 5.65028 10.928 3.68754 14.1536 2.60113ZM4.99713 9.45352C6.24108 10.2839 7.67867 11.0101 9.26807 11.6083C8.5821 14.1142 8.18823 16.8959 8.17346 19.831H1.64438C1.67966 15.9703 2.92279 12.3976 4.99713 9.45352ZM1.70592 21.4721H8.20546C8.31131 23.9288 8.68466 26.2599 9.26643 28.3925C7.67621 28.9907 6.23944 29.7169 4.99713 30.5481C3.15828 27.938 1.97259 24.8347 1.70592 21.4721ZM5.96537 31.7978C7.05998 31.0823 8.32609 30.4497 9.73332 29.9229C10.7861 33.0344 12.3148 35.6248 14.1536 37.398C10.928 36.3125 8.11192 34.3456 5.96537 31.7978ZM19.1795 38.2998C15.8119 37.8387 12.9056 34.385 11.2579 29.4108C13.6334 28.6986 16.3223 28.267 19.1795 28.1973V38.2998ZM19.1795 26.5578C16.1664 26.63 13.3265 27.0953 10.7976 27.8715C10.2798 25.9055 9.94831 23.7483 9.84902 21.4729H19.1795V26.5578ZM19.1795 19.831H9.81456C9.82933 17.0748 10.1879 14.4712 10.805 12.131C13.3306 12.9047 16.1689 13.3708 19.1786 13.4422V19.831H19.1795ZM19.1795 11.8027C16.324 11.733 13.6358 11.303 11.2628 10.5908C12.9097 5.6191 15.8136 2.16214 19.1795 1.70017V11.8027ZM38.3532 19.831H31.7297C31.7149 16.9082 31.326 14.138 30.6449 11.6411C32.2696 11.0372 33.7376 10.2995 35.0021 9.45434C37.0756 12.3985 38.3179 15.9703 38.3532 19.831ZM34.0371 8.20054C32.9203 8.93165 31.6222 9.57578 30.1781 10.1083C29.1154 6.95495 27.5654 4.33166 25.6987 2.5519C28.9842 3.62764 31.8577 5.61254 34.0371 8.20054ZM20.8205 1.71248C24.1511 2.22696 27.0198 5.67736 28.6494 10.6154C26.2985 11.3121 23.6408 11.7338 20.8205 11.8027V1.71248ZM20.8205 13.443C23.795 13.3724 26.6013 12.9162 29.1048 12.1589C29.7186 14.4925 30.0747 17.0862 30.0886 19.8318H20.8205V13.443ZM20.8205 21.4721H30.055C29.9557 23.7368 29.6258 25.8841 29.113 27.8444C26.6062 27.0846 23.7967 26.6292 20.8222 26.5578L20.8205 21.4721ZM20.8205 38.2875V28.1981C23.6424 28.267 26.3002 28.6888 28.6543 29.3854C27.0222 34.3251 24.1503 37.773 20.8205 38.2875ZM25.6987 37.4489C27.5654 35.67 29.1187 33.0483 30.1813 29.8941C31.6222 30.4259 32.9187 31.0692 34.0338 31.7986C31.8544 34.3858 28.9842 36.3724 25.6987 37.4489ZM35.0021 30.5481C33.7376 29.703 32.2696 28.9636 30.6441 28.3605C31.2202 26.237 31.5902 23.9165 31.6944 21.4729H38.2924C38.0258 24.8347 36.8434 27.9388 35.0021 30.5481Z" fill="#0C9347"/>
</svg>
