<svg width="40" height="40" viewBox="0 0 40 40" fill="none" xmlns="http://www.w3.org/2000/svg">
<path d="M32.0833 26.667C36.4483 26.667 40 23.1153 40 18.7503C40 14.4603 36.57 10.9562 32.3092 10.837C31.545 7.46283 28.5233 5.00033 25 5.00033C23.9933 5.00033 22.995 5.20616 22.0683 5.59949C20.5542 3.15366 17.915 1.66699 15 1.66699C10.405 1.66699 6.66667 5.40533 6.66667 10.0003C6.66667 10.307 6.685 10.617 6.72083 10.9303C2.88417 11.5028 0 14.7728 0 18.7503C0 23.1153 3.55167 26.667 7.91667 26.667H12.5V29.6553L11.0708 31.0845C10.745 30.9287 10.3842 30.8337 10 30.8337C8.62167 30.8337 7.5 31.9553 7.5 33.3337C7.5 34.712 8.62167 35.8337 10 35.8337C11.3783 35.8337 12.5 34.712 12.5 33.3337C12.5 32.9487 12.4058 32.5887 12.2492 32.2628L13.9225 30.5895C14.0792 30.4328 14.1667 30.222 14.1667 30.0003V26.667H19.1667V33.487C18.1992 33.832 17.5 34.7487 17.5 35.8337C17.5 37.212 18.6217 38.3337 20 38.3337C21.3783 38.3337 22.5 37.212 22.5 35.8337C22.5 34.7487 21.8008 33.832 20.8333 33.487V26.667H25.8333V30.0003C25.8333 30.222 25.9208 30.4337 26.0775 30.5895L27.7508 32.2628C27.595 32.5887 27.5 32.9495 27.5 33.3337C27.5 34.712 28.6217 35.8337 30 35.8337C31.3783 35.8337 32.5 34.712 32.5 33.3337C32.5 31.9553 31.3783 30.8337 30 30.8337C29.615 30.8337 29.255 30.9278 28.9292 31.0845L27.5 29.6553V26.667H32.0833ZM10 34.167C9.54 34.167 9.16667 33.7937 9.16667 33.3337C9.16667 32.8737 9.54 32.5003 10 32.5003C10.46 32.5003 10.8333 32.8737 10.8333 33.3337C10.8333 33.7937 10.46 34.167 10 34.167ZM20 36.667C19.54 36.667 19.1667 36.2937 19.1667 35.8337C19.1667 35.3737 19.54 35.0003 20 35.0003C20.46 35.0003 20.8333 35.3737 20.8333 35.8337C20.8333 36.2937 20.46 36.667 20 36.667ZM30.8333 33.3337C30.8333 33.7937 30.46 34.167 30 34.167C29.54 34.167 29.1667 33.7937 29.1667 33.3337C29.1667 32.8737 29.54 32.5003 30 32.5003C30.46 32.5003 30.8333 32.8737 30.8333 33.3337ZM7.91667 25.0003C4.47 25.0003 1.66667 22.197 1.66667 18.7503C1.66667 15.357 4.32583 12.617 7.72167 12.5112C7.97083 12.5037 8.2025 12.3845 8.35583 12.187C8.50833 11.9903 8.56417 11.7353 8.50833 11.492C8.3925 10.987 8.33417 10.4853 8.33417 9.99949C8.33417 6.32366 11.325 3.33283 15.0008 3.33283C17.555 3.33283 19.845 4.76283 20.9783 7.06449C21.08 7.27033 21.2617 7.42533 21.4808 7.49283C21.7 7.56116 21.9367 7.53449 22.1367 7.42199C23.0117 6.92783 24.0017 6.66616 25.0017 6.66616C27.935 6.66616 30.42 8.86033 30.7833 11.7695C30.835 12.1862 31.19 12.4995 31.61 12.4995H32.0842C35.5308 12.4995 38.3342 15.3028 38.3342 18.7495C38.3342 22.1962 35.5308 24.9995 32.0842 24.9995L7.91667 25.0003Z" fill="#0C9347"/>
</svg>
