<svg width="70" height="70" viewBox="0 0 70 70" fill="none" xmlns="http://www.w3.org/2000/svg">
<path d="M51.9807 34.253C48.9164 34.253 46.8907 34.6681 44.8287 35.4755C44.8345 34.6493 44.7938 14.8371 44.7583 13.5121C44.8782 13.2201 44.9477 12.9194 44.9477 12.6077C44.9477 8.54888 34.3553 6.12402 24.1147 6.12402C13.8741 6.12402 3.28125 8.54888 3.28125 12.6077C3.28125 12.9419 3.3597 13.2639 3.49725 13.5756C3.52927 14.5846 3.51598 54.7314 3.57095 55.151C3.50439 55.7468 4.04023 55.9495 4.5888 56.2979C12.5876 63.7358 31.0956 65.1371 43.2234 62.272C46.3604 63.6736 50.104 64.2148 53.3099 63.6617C60.8152 62.9867 66.7188 56.6687 66.7188 48.991C66.7188 40.8648 60.1074 34.253 51.9807 34.253ZM5.0113 54.8355C4.95831 51.4334 5.05385 49.1848 4.93635 45.3299C14.086 49.5847 26.6643 49.4256 35.4128 47.5294C34.9634 50.8785 35.6114 54.3729 37.3441 57.2515C27.8543 60.0017 12.4786 59.8839 5.0113 54.8355ZM35.7106 45.9669C26.231 48.1308 13.7053 47.9948 4.93594 43.7117C4.9344 42.8629 4.93825 41.7974 4.9449 40.5919C10.1001 43.5997 23.6815 45.9335 36.9355 42.6728C36.395 43.7169 35.9864 44.8242 35.7106 45.9669ZM4.99664 24.6682C11.8204 28.9106 30.1336 30.4755 43.3543 24.7994C43.3651 25.5666 43.3734 26.4601 43.3789 27.4412C33.32 32.2102 15.9007 33.1373 5.01314 27.7611C5.01266 26.6072 5.00774 25.559 4.99664 24.6682ZM43.3374 15.1807C43.391 18.2006 43.3609 20.9876 43.2492 23.2676C29.9912 29.205 11.2566 27.3838 5.03153 22.9525C4.99529 20.3281 5.04295 18.3395 5.00056 15.2618C12.2028 20.418 36.4759 20.29 43.3374 15.1807ZM38.0604 40.8814C28.0952 43.6808 11.824 43.5304 4.95564 38.8645C4.97623 35.7948 5.00388 32.3662 5.01136 29.38C16.0458 34.5769 33.2736 33.5795 43.3855 29.0416C43.3969 33.4208 43.3666 35.5639 43.366 36.1542C42.1237 36.849 39.5399 38.9192 38.0604 40.8814ZM51.9807 62.2708C44.6581 62.2708 38.7004 56.3131 38.7004 48.991C38.7004 41.669 44.6581 35.7113 51.9807 35.7113C59.3032 35.7113 65.2604 41.669 65.2604 48.991C65.2604 56.3131 59.3032 62.2708 51.9807 62.2708Z" fill="#0E0E0E"/>
<path d="M58.9382 42.893C55.7415 46.759 52.3681 50.576 49.235 54.4932C47.601 52.6456 46.7242 51.4968 45.4059 49.3454C45.1951 49.0007 44.7446 48.8934 44.4033 49.1042C44.0596 49.315 43.9518 49.7641 44.1621 50.1068C45.6751 52.5753 46.6729 53.8267 48.7247 56.112C49.0244 56.4466 49.558 56.4339 49.8398 56.0769C53.0729 51.9808 56.6924 47.8985 60.0624 43.8215C60.3187 43.512 60.2755 43.0515 59.965 42.7952C59.6531 42.5389 59.1946 42.5816 58.9382 42.893Z" fill="#0E0E0E"/>
</svg>
