<svg width="70" height="70" viewBox="0 0 70 70" fill="none" xmlns="http://www.w3.org/2000/svg">
<path d="M56.1036 13.6514C55.9144 13.4014 55.582 13.304 55.2889 13.4089C53.5995 14.0109 51.5275 14.911 49.8679 15.5046C49.646 15.5833 49.4774 15.7649 49.4156 15.9916C49.4027 16.0388 49.4149 16.0864 49.4118 16.1344C49.2026 16.2146 49.0176 16.3671 48.9054 16.5855C48.7655 16.8577 48.6463 17.1456 48.5499 17.41C48.4623 17.6503 48.471 17.9115 48.5805 18.1427C51.0932 23.4489 51.7581 24.8309 51.7941 24.942C53.3371 29.6891 53.4891 35.4303 50.9031 39.9764C48.7751 43.7178 46.2877 47.3604 42.8271 49.8074L41.3108 45.6886C41.103 45.1221 40.3282 45.049 40.0185 45.5678C36.5512 51.3792 34.1951 55.6187 30.7834 61.3344C30.521 61.7732 30.7872 62.3338 31.2872 62.4132C37.6462 63.4299 40.9312 65.1959 47.495 65.3264H47.509C48.0064 65.3264 48.357 64.8319 48.1842 64.3591L45.917 58.2006C53.0009 54.5203 58.5761 47.9535 60.8878 40.2975C63.5969 31.3284 61.7634 21.1176 56.1036 13.6514ZM59.5112 39.8818C57.3273 47.113 52.0884 53.3302 45.419 56.848L43.8499 52.5856C49.259 49.3019 53.6559 43.6734 55.3554 37.5135C57.3284 30.3601 55.7683 22.408 51.2894 16.5103C52.5898 16.0121 53.9971 15.4225 55.273 14.9456C60.4111 22.0109 62.0387 31.5138 59.5112 39.8818Z" fill="#0E0E0E"/>
<path d="M55.5029 5.83637V9.94448C55.5029 10.3415 55.8251 10.6637 56.2221 10.6637C56.6192 10.6637 56.9413 10.3415 56.9413 9.94448V5.83637C56.9413 5.43932 56.6192 5.11719 56.2221 5.11719C55.8251 5.11719 55.5029 5.43932 55.5029 5.83637Z" fill="#0E0E0E"/>
<path d="M61.3251 5.68776L58.8351 10.3362C58.6478 10.6855 58.7799 11.1219 59.1301 11.3091C59.4784 11.4969 59.9165 11.3643 60.1031 11.0142L62.593 6.36574C62.7803 6.01645 62.6483 5.58007 62.298 5.39279C61.9469 5.20363 61.5124 5.3366 61.3251 5.68776Z" fill="#0E0E0E"/>
<path d="M64.8706 11.7012C64.0456 12.3726 62.9266 12.662 61.8778 12.4784C61.4845 12.4101 61.1137 12.6714 61.0453 13.0618C60.976 13.4523 61.2373 13.826 61.6287 13.8943C63.0599 14.1499 64.6224 13.758 65.779 12.8174C66.0871 12.5665 66.1329 12.1132 65.8829 11.8052C65.631 11.498 65.1797 11.4502 64.8706 11.7012Z" fill="#0E0E0E"/>
<path d="M9.92028 54.0476C11.088 55.611 12.6188 57.1687 14.5664 57.289C14.5154 57.2355 14.4689 57.1781 14.4183 57.1242C14.9081 56.9993 18.0331 55.2787 19.7367 54.4724C20.1869 54.2593 20.2892 53.6601 19.9334 53.3103C14.739 48.1918 12.278 40.5468 13.5113 33.3587C14.5014 27.5923 18.0825 21.8915 22.7224 18.2863L25.2326 23.456C25.3534 23.7032 25.6044 23.8605 25.8797 23.8605H25.8844C26.1615 23.8587 26.4134 23.6976 26.5305 23.4466C29.3621 17.4117 31.2318 13.081 34.0472 7.07971C34.2626 6.62105 33.9476 6.08614 33.4385 6.05619C27.1322 5.68379 23.7097 4.27571 17.2561 4.78265C16.7487 4.82476 16.4458 5.36097 16.6662 5.81365L18.7477 10.1005C11.596 14.333 6.32001 21.633 4.59147 29.7649C2.81548 38.1204 4.80872 47.2035 9.92028 54.0476ZM7.72418 31.1703C9.18238 23.7462 13.7904 17.0309 20.0928 12.8707L22.0761 16.9555C17.0058 20.7576 13.1766 26.8054 12.0936 33.1153C10.8387 40.4288 13.1798 48.1871 18.2225 53.6118C17.0482 54.202 15.5447 55.0088 14.4131 55.5634C8.59974 49.0421 6.03861 39.7471 7.72418 31.1703Z" fill="#0E0E0E"/>
</svg>
