<svg width="70" height="70" viewBox="0 0 70 70" fill="none" xmlns="http://www.w3.org/2000/svg">
<path d="M53.0148 17.9117C49.9266 17.7058 46.4266 14.9264 46.3237 11.8381C46.3237 11.4264 46.0148 11.1176 45.6031 11.1176C38.3972 10.1911 30.059 10.294 20.1766 11.4264C19.7648 11.4264 19.5589 11.7352 19.456 12.147C19.2501 15.3381 16.7795 18.3234 13.6913 19.147C13.3825 19.2499 13.1766 19.4558 13.0737 19.8676C11.9413 33.7646 20.0737 49.3087 32.7354 57.647C32.9413 57.8528 33.2501 57.8528 33.5589 57.647C40.8678 53.7352 46.4266 48.1764 49.6178 41.6911C53.1178 34.6911 54.6619 26.044 53.6325 18.7352C53.6325 18.2205 53.3237 17.9117 53.0148 17.9117ZM48.2795 40.8676C45.1913 46.9411 40.0442 52.0881 33.2501 55.897C21.4119 47.9705 13.7942 33.4558 14.6178 20.3823C17.9119 19.2499 20.4854 16.2646 21.0001 12.8676C30.2648 11.9411 38.0884 11.8381 44.8825 12.5587C45.2942 15.9558 48.8972 18.8381 52.2942 19.3528C53.0148 26.3528 51.5737 34.2793 48.2795 40.8676Z" fill="#0E0E0E"/>
<path d="M61.9706 11.2203C57.853 11.1174 54.6618 9.05854 53.7353 4.73501C52.0883 4.2203 51.7794 3.49971 51.2647 3.39677C40.1471 1.13207 27.5883 1.13207 14.9265 3.39677C14.5147 3.49971 14.2059 3.91148 14.3088 4.32324C15.1324 8.44089 11.7353 12.2497 7.61767 11.9409C7.2059 11.9409 6.89708 12.1468 6.79414 12.5585C4.63237 22.3379 6.17649 34.2791 11.0147 44.4703C15.6471 54.1468 23.3677 62.0732 33.0441 66.8085H33.1471C33.7647 67.735 37.8824 68.3527 42.9265 68.3527C48.3824 68.3527 52.8088 67.5291 52.8088 66.4997C52.8088 65.5732 48.5883 64.7497 43.3383 64.7497C49 61.0438 56.7206 53.8379 60.6324 44.3674C64.1324 35.8232 65.2647 23.5732 63.9265 12.7644C63.6177 11.8379 62.7941 11.3232 61.9706 11.2203ZM55.1765 44.3674C50.853 54.1468 42.5147 62.1762 33.353 65.2644C24.2941 60.6321 16.7794 53.0144 12.353 43.7497C7.72061 34.0732 6.17649 22.7497 8.02943 13.485C12.6618 13.3821 16.2647 9.4703 15.853 4.83795C27.7941 2.77912 39.6324 2.77912 50.2353 4.83795C50.3383 8.23501 53.9412 13.485 59.0883 13.8968C59.5 24.2938 59.1912 35.2056 55.1765 44.3674Z" fill="#0E0E0E"/>
<path d="M39.7358 24.9118L33.3534 28.9265V21.8235C33.3534 21.4118 33.0446 21 32.5299 21C32.0152 21 31.7064 21.3088 31.7064 21.8235V29.1324L25.1181 25.8382C24.7064 25.6324 24.2946 25.8382 24.0887 26.1471C23.8829 26.5588 24.0887 26.9706 24.3976 27.1765L30.8829 30.3676L25.5299 33.7647C25.1181 33.9706 25.0152 34.4853 25.324 34.7941C25.5299 35.2059 26.0446 35.3088 26.3534 35L31.7064 31.7059V39.1176C31.7064 39.5294 32.0152 39.9412 32.5299 39.9412C33.0446 39.9412 33.3534 39.6324 33.3534 39.1176V31.6029L38.9123 34.2794C39.324 34.4853 39.7358 34.2794 39.9417 33.9706C40.1476 33.5588 39.9417 33.1471 39.6329 32.9412L34.2799 30.2647L40.6623 26.25C41.074 26.0441 41.177 25.5294 40.8681 25.2206C40.5593 24.8088 40.0446 24.7059 39.7358 24.9118Z" fill="#0E0E0E"/>
</svg>
