<svg width="273" height="204" viewBox="0 0 273 204" fill="none" xmlns="http://www.w3.org/2000/svg">
<line y1="-2" x2="155.401" y2="-2" transform="matrix(-0.729979 0.68347 0.46095 0.887426 195.074 45.9966)" stroke="#FFC900" stroke-width="4"/>
<circle cx="7.5" cy="7.5" r="5.5" transform="matrix(-0.983223 -0.182405 -0.182405 0.983223 207.504 33.7463)" stroke="#E5ABF3" stroke-width="4"/>
<path d="M71.4431 152.344C70.8938 155.304 72.8815 158.204 75.9515 158.774C79.0215 159.343 81.917 157.349 82.4663 154.389C83.0156 151.428 81.0279 148.528 77.9579 147.958C74.8879 147.389 71.9924 149.383 71.4431 152.344Z" stroke="#0C9347" stroke-width="4"/>
<line y1="-2" x2="155.401" y2="-2" transform="matrix(-0.729979 0.68347 0.46095 0.887426 128.758 43.8721)" stroke="#0E0E0E" stroke-width="4"/>
<circle cx="7.5" cy="7.5" r="5.5" transform="matrix(-0.983223 -0.182405 -0.182405 0.983223 139.77 32.7222)" stroke="#0C9347" stroke-width="4"/>
<circle cx="7.5" cy="7.5" r="5.5" transform="matrix(-0.983223 -0.182405 -0.182405 0.983223 17.4844 146.255)" stroke="#E5ABF3" stroke-width="4"/>
<line y1="-2" x2="155.401" y2="-2" transform="matrix(-0.729979 0.68347 0.46095 0.887426 260.777 58.1853)" stroke="#0C9347" stroke-width="4"/>
<circle cx="7.5" cy="7.5" r="5.5" transform="matrix(-0.983223 -0.182405 -0.182405 0.983223 272.379 46.9675)" stroke="#0E0E0E" stroke-width="4"/>
<circle cx="7.5" cy="7.5" r="5.5" transform="matrix(-0.983223 -0.182405 -0.182405 0.983223 150.5 160.568)" stroke="#FFC900" stroke-width="4"/>
<circle cx="7.5" cy="7.5" r="5.5" transform="matrix(-0.983223 -0.182405 -0.182405 0.983223 98.4102 102.213)" stroke="#FFC900" stroke-width="4"/>
<circle cx="7.5" cy="7.5" r="5.5" transform="matrix(-0.983223 -0.182405 -0.182405 0.983223 161.941 103.821)" stroke="#0E0E0E" stroke-width="4"/>
<circle cx="7.5" cy="7.5" r="5.5" transform="matrix(-0.983223 -0.182405 -0.182405 0.983223 242.426 108.573)" stroke="#E5ABF3" stroke-width="4"/>
</svg>
