<svg width="131" height="131" viewBox="0 0 131 131" fill="none" xmlns="http://www.w3.org/2000/svg">
<path d="M69.2276 114.274V126.117H64.3354C63.4487 126.117 62.6835 125.944 62.0397 125.597C61.392 125.254 60.8928 124.774 60.5419 124.157C60.1911 123.544 60.0157 122.831 60.0157 122.017C60.0157 121.2 60.195 120.485 60.5535 119.872C60.9082 119.263 61.4151 118.791 62.0744 118.455C62.7336 118.12 63.5162 117.952 64.4222 117.952H67.4408V120.207H64.9542C64.5224 120.207 64.1619 120.282 63.8728 120.433C63.5798 120.583 63.3581 120.793 63.2078 121.063C63.0574 121.337 62.9823 121.655 62.9823 122.017C62.9823 122.384 63.0574 122.7 63.2078 122.966C63.3581 123.236 63.5798 123.444 63.8728 123.59C64.1658 123.737 64.5263 123.81 64.9542 123.81H66.3652V114.274H69.2276Z" fill="#0E0E0E"/>
<path d="M49.165 123.973L51.9992 112.474L54.7448 113.15L51.9106 124.649L49.165 123.973Z" fill="#0E0E0E"/>
<path d="M43.279 108.92C43.7808 109.183 44.1824 109.501 44.4837 109.872C44.7799 110.246 44.951 110.662 44.9972 111.121C45.0381 111.583 44.9224 112.073 44.6501 112.592C44.4208 113.029 44.1505 113.357 43.8392 113.577C43.5279 113.796 43.1882 113.929 42.82 113.976C42.4518 114.022 42.0668 114.001 41.665 113.912C41.2615 113.826 40.851 113.696 40.4337 113.52C39.965 113.326 39.5825 113.18 39.2861 113.081C38.988 112.985 38.755 112.948 38.5874 112.969C38.4145 112.991 38.2859 113.083 38.2017 113.243L38.1883 113.269C38.0503 113.532 38.0342 113.782 38.1399 114.021C38.2456 114.259 38.452 114.459 38.7592 114.62C39.0903 114.794 39.3942 114.862 39.6709 114.824C39.9475 114.787 40.1794 114.656 40.3666 114.432L42.6329 115.726C42.3138 116.168 41.9141 116.502 41.4337 116.729C40.9481 116.957 40.3996 117.048 39.7884 117.002C39.1719 116.957 38.5121 116.75 37.8089 116.381C37.3071 116.118 36.8759 115.815 36.5153 115.473C36.153 115.135 35.8739 114.771 35.6781 114.381C35.4805 113.994 35.3814 113.594 35.381 113.18C35.3771 112.764 35.4844 112.348 35.703 111.932L38.5086 106.586L40.864 107.822L40.2889 108.918L40.3503 108.95C40.63 108.758 40.9275 108.626 41.2427 108.557C41.5545 108.485 41.8814 108.48 42.2233 108.542C42.5619 108.602 42.9137 108.728 43.279 108.92ZM41.6459 110.153C41.3762 110.011 41.1052 109.939 40.8328 109.935C40.557 109.93 40.304 109.988 40.074 110.112C39.8422 110.238 39.6591 110.429 39.5247 110.685L39.1323 111.433C39.2237 111.433 39.3287 111.445 39.4472 111.468C39.5623 111.489 39.6868 111.517 39.8206 111.552C39.9544 111.588 40.0898 111.628 40.2269 111.674C40.364 111.72 40.495 111.765 40.62 111.809C40.8753 111.895 41.1071 111.943 41.3156 111.952C41.5206 111.959 41.7007 111.923 41.8557 111.843C42.0056 111.765 42.1253 111.641 42.2149 111.47C42.351 111.211 42.3628 110.964 42.2501 110.731C42.134 110.496 41.9326 110.303 41.6459 110.153Z" fill="#0E0E0E"/>
<path d="M36.7435 101.061C36.9974 101.286 37.2191 101.518 37.4083 101.758C37.6002 101.995 37.7488 102.217 37.8541 102.423L36.0254 103.546C35.879 103.292 35.7272 103.086 35.57 102.926C35.41 102.764 35.24 102.662 35.06 102.621C34.8797 102.575 34.6835 102.604 34.4714 102.71L34.2127 102.836L30.4713 111.821L28.2551 109.857L31.233 104.028L31.1637 103.967L25.7186 107.61L23.4895 105.635L32.4494 100.571C32.8927 100.315 33.3482 100.146 33.8158 100.066C34.2831 99.9807 34.7616 100.013 35.2514 100.164C35.7383 100.312 36.2356 100.611 36.7435 101.061Z" fill="#0E0E0E"/>
<path d="M9.45442 81.5812L18.8402 81.281L19.9885 84.3089L12.762 90.3027L11.706 87.5181L16.8462 83.8184L16.8134 83.7319L10.5105 84.3658L9.45442 81.5812Z" fill="#0E0E0E"/>
<path d="M16.6445 72.3215L7.82691 73.3922L7.48606 70.585L16.3036 69.5144L16.6445 72.3215ZM6.62857 72.1105C6.67643 72.5047 6.58744 72.8592 6.36158 73.174C6.1319 73.4892 5.83145 73.6694 5.46022 73.7145C5.09283 73.7591 4.76181 73.6556 4.46719 73.404C4.16873 73.1528 3.99557 72.8302 3.94771 72.436C3.89938 72.038 3.99029 71.6833 4.22044 71.3718C4.44629 71.057 4.74291 70.8773 5.11031 70.8327C5.48154 70.7876 5.81638 70.8907 6.11483 71.1418C6.409 71.3896 6.58024 71.7125 6.62857 72.1105Z" fill="#0E0E0E"/>
<path d="M16.5439 59.8339C16.4649 60.4845 16.2247 61.0554 15.8233 61.5464C15.422 62.0375 14.8652 62.401 14.1531 62.6368C13.4409 62.8727 12.5855 62.93 11.5866 62.8087C10.5495 62.6828 9.716 62.4146 9.08623 62.0041C8.45645 61.5937 8.01313 61.1029 7.75625 60.532C7.49983 59.9571 7.40903 59.3616 7.48384 58.7455C7.54007 58.2824 7.66853 57.8961 7.86923 57.5865C8.06611 57.2764 8.30193 57.0293 8.57672 56.8452C8.8515 56.6611 9.12957 56.5298 9.41094 56.4513L9.41791 56.3939L4.96895 55.8537L5.3098 53.0466L17.0665 54.4741L16.7292 57.2525L15.2998 57.079L15.2893 57.1651C15.5466 57.3167 15.7807 57.516 15.9915 57.763C16.2023 58.0099 16.3604 58.3068 16.4659 58.6536C16.5718 58.9965 16.5978 59.39 16.5439 59.8339ZM14.4752 58.5924C14.5166 58.2518 14.4562 57.9494 14.2941 57.685C14.1282 57.4202 13.8771 57.2014 13.5409 57.0285C13.2046 56.8556 12.7991 56.7404 12.3246 56.6828C11.8424 56.6242 11.4192 56.6389 11.0552 56.7267C10.6916 56.8107 10.4011 56.9638 10.1839 57.1859C9.96708 57.4043 9.838 57.6838 9.79664 58.0244C9.75435 58.3726 9.81425 58.6789 9.97633 58.9433C10.1384 59.2076 10.3859 59.4241 10.7188 59.5926C11.0522 59.7574 11.4562 59.8686 11.9308 59.9262C12.4053 59.9838 12.8263 59.9709 13.1937 59.8873C13.5612 59.8038 13.8569 59.6552 14.0809 59.4416C14.3015 59.2238 14.4329 58.9407 14.4752 58.5924Z" fill="#0E0E0E"/>
<path d="M19.4464 47.8683C19.117 48.737 18.6614 49.4218 18.0797 49.9228C17.4958 50.4187 16.8206 50.7152 16.0541 50.812C15.2853 50.9039 14.4594 50.7824 13.5762 50.4475C12.7183 50.1221 12.0328 49.6683 11.5197 49.0862C11.0029 48.5026 10.683 47.835 10.5599 47.0833C10.4332 46.3302 10.5285 45.5355 10.8456 44.6992C11.0698 44.108 11.3668 43.6022 11.7366 43.1817C12.1063 42.7612 12.5391 42.4408 13.0349 42.2207C13.5307 42.0005 14.0812 41.8918 14.6862 41.8945C15.2877 41.8958 15.9291 42.0257 16.6103 42.2841L17.27 42.5342L14.5324 49.7525L12.9969 49.1702L14.8014 44.412C14.5189 44.309 14.243 44.2807 13.9739 44.3271C13.7049 44.3734 13.466 44.4869 13.2573 44.6676C13.0464 44.8432 12.8855 45.077 12.7748 45.369C12.6627 45.6646 12.6289 45.9548 12.6734 46.2397C12.7143 46.5232 12.8224 46.7765 12.9975 46.9996C13.169 47.2213 13.3958 47.3898 13.6779 47.505L15.2405 48.0976C15.5793 48.2261 15.902 48.2722 16.2085 48.2359C16.5114 48.1983 16.7796 48.0835 17.0132 47.8917C17.2467 47.6999 17.4277 47.4346 17.5562 47.0958C17.6451 46.8615 17.6933 46.6365 17.7009 46.4208C17.7085 46.2052 17.6751 46.0049 17.6009 45.8201C17.5267 45.6353 17.4107 45.4738 17.2528 45.3356L18.2438 42.9345C18.7498 43.2418 19.1398 43.6433 19.4136 44.1388C19.6852 44.6294 19.8282 45.1929 19.8425 45.8291C19.8533 46.464 19.7212 47.1437 19.4464 47.8683Z" fill="#0E0E0E"/>
<path d="M25.1145 37.107C24.5846 37.8748 23.972 38.4263 23.2768 38.7616C22.5807 39.0915 21.8473 39.2106 21.0767 39.1191C20.3051 39.0221 19.5449 38.7152 18.7962 38.1984C18.0442 37.6794 17.4877 37.0774 17.1266 36.3925C16.7646 35.7023 16.6159 34.9743 16.6807 34.2086C16.7445 33.4376 17.0414 32.6681 17.5713 31.9003C18.1013 31.1325 18.7144 30.5837 19.4105 30.2538C20.1057 29.9185 20.839 29.7994 21.6106 29.8963C22.3812 29.9879 23.1425 30.2932 23.8945 30.8122C24.6432 31.3291 25.1986 31.9326 25.5607 32.6229C25.9218 33.3077 26.0704 34.0357 26.0066 34.8068C25.9419 35.5725 25.6445 36.3392 25.1145 37.107ZM23.3683 35.8806C23.561 35.6014 23.6385 35.3059 23.6007 34.9941C23.563 34.6823 23.4269 34.3705 23.1924 34.0587C22.9601 33.7438 22.644 33.4484 22.2443 33.1724C21.8381 32.8921 21.4467 32.6992 21.0698 32.5936C20.6951 32.4849 20.3554 32.4682 20.0504 32.5435C19.7455 32.6188 19.4967 32.796 19.304 33.0752C19.1047 33.3639 19.0217 33.6674 19.0551 33.9855C19.0906 34.3005 19.2246 34.6154 19.4569 34.9304C19.6914 35.2421 20.0117 35.5382 20.4178 35.8185C20.8176 36.0944 21.2048 36.2868 21.5794 36.3955C21.9563 36.501 22.2983 36.5145 22.6054 36.4361C22.9147 36.3545 23.169 36.1693 23.3683 35.8806Z" fill="#0E0E0E"/>
<path d="M42.827 21.6124C42.4583 21.8058 42.0745 21.8418 41.6755 21.7204C41.2799 21.5971 40.9871 21.3502 40.797 20.9798C40.6037 20.6197 40.5695 20.2436 40.6946 19.8514C40.8213 19.454 41.0689 19.1586 41.4376 18.9651C41.7858 18.7824 42.1611 18.7508 42.5635 18.8705C42.9676 18.985 43.2662 19.2223 43.4596 19.5823C43.5852 19.8299 43.6376 20.0875 43.617 20.3552C43.5999 20.6211 43.5219 20.8667 43.3832 21.0918C43.2479 21.3152 43.0625 21.4887 42.827 21.6124Z" fill="#0E0E0E"/>
<path d="M61.3124 16L61.3124 4.15691L66.2046 4.15691C67.0913 4.15691 67.8566 4.33039 68.5004 4.67736C69.148 5.02047 69.6473 5.50044 69.9981 6.11727C70.3489 6.73024 70.5243 7.44345 70.5243 8.25689C70.5243 9.07418 70.3451 9.78932 69.9865 10.4023C69.6319 11.0114 69.1249 11.4837 68.4657 11.8191C67.8064 12.1545 67.0238 12.3222 66.1179 12.3222L63.0993 12.3222V10.0669L65.5859 10.0669C66.0176 10.0669 66.3781 9.99171 66.6672 9.84136C66.9602 9.69101 67.1819 9.4809 67.3323 9.21104C67.4826 8.93732 67.5578 8.61927 67.5578 8.25689C67.5578 7.89065 67.4826 7.57452 67.3323 7.30851C67.1819 7.03865 66.9602 6.83047 66.6672 6.68398C66.3742 6.53748 66.0138 6.46423 65.5859 6.46423H64.1749V16H61.3124Z" fill="#0E0E0E"/>
<path d="M81.3741 6.30077L78.5399 17.7997L75.7943 17.123L78.6285 5.62404L81.3741 6.30077Z" fill="#0E0E0E"/>
<path d="M87.2601 21.3542C86.7583 21.0908 86.3567 20.7734 86.0553 20.4019C85.7592 20.0288 85.588 19.6124 85.5419 19.1528C85.501 18.6916 85.6167 18.2015 85.889 17.6827C86.1183 17.2457 86.3886 16.9174 86.6999 16.6976C87.0111 16.4778 87.3509 16.3448 87.7191 16.2986C88.0873 16.2524 88.4723 16.2738 88.874 16.3627C89.2776 16.4483 89.688 16.5788 90.1053 16.7543C90.574 16.948 90.9565 17.0943 91.2529 17.1933C91.5511 17.2888 91.784 17.3262 91.9517 17.3053C92.1246 17.2829 92.2531 17.1914 92.3373 17.031L92.3508 17.0054C92.4887 16.7425 92.5049 16.4919 92.3992 16.2536C92.2935 16.0153 92.0871 15.8155 91.7798 15.6543C91.4487 15.4805 91.1448 15.4124 90.8682 15.4501C90.5915 15.4877 90.3596 15.6186 90.1724 15.8425L87.9061 14.5486C88.2252 14.1065 88.625 13.7721 89.1054 13.5453C89.591 13.3168 90.1394 13.2259 90.7507 13.2724C91.3671 13.3173 92.027 13.5243 92.7302 13.8934C93.232 14.1567 93.6631 14.4592 94.0237 14.8009C94.3861 15.1391 94.6652 15.5032 94.861 15.8934C95.0586 16.2801 95.1576 16.6804 95.1581 17.0942C95.162 17.5099 95.0546 17.926 94.8361 18.3424L92.0304 23.6881L89.6751 22.4519L90.2502 21.3561L90.1887 21.3239C89.909 21.5167 89.6116 21.6479 89.2964 21.7176C88.9846 21.7891 88.6577 21.7938 88.3157 21.7319C87.9772 21.6718 87.6253 21.5459 87.2601 21.3542ZM88.8932 20.1215C89.1629 20.263 89.4339 20.3356 89.7063 20.3392C89.9821 20.3447 90.235 20.2858 90.4651 20.1627C90.6969 20.0363 90.88 19.845 91.0144 19.589L91.4067 18.8414C91.3153 18.8413 91.2104 18.8298 91.0918 18.8068C90.9767 18.7855 90.8523 18.7572 90.7185 18.7218C90.5846 18.6864 90.4492 18.6458 90.3122 18.6C90.1751 18.5542 90.0441 18.5094 89.9191 18.4655C89.6638 18.3795 89.432 18.3318 89.2235 18.3225C89.0184 18.315 88.8384 18.3511 88.6833 18.4309C88.5335 18.509 88.4138 18.6333 88.3242 18.804C88.188 19.0635 88.1763 19.3098 88.289 19.5431C88.4051 19.7782 88.6065 19.971 88.8932 20.1215Z" fill="#0E0E0E"/>
<path d="M93.7965 29.213C93.5426 28.9881 93.321 28.7557 93.1317 28.5159C92.9398 28.279 92.7912 28.0572 92.6859 27.8505L94.5147 26.7281C94.6611 26.9814 94.8129 27.188 94.97 27.3478C95.13 27.5102 95.3 27.6118 95.48 27.6528C95.6604 27.6993 95.8566 27.6697 96.0687 27.564L96.3273 27.4377L100.069 18.4531L102.285 20.4164L99.3071 26.2456L99.3763 26.307L104.821 22.6636L107.051 24.6384L98.0906 29.7029C97.6473 29.9592 97.1919 30.1274 96.7242 30.2075C96.257 30.2931 95.7784 30.2606 95.2887 30.11C94.8018 29.962 94.3044 29.663 93.7965 29.213Z" fill="#0E0E0E"/>
<path d="M121.085 48.6932L111.699 48.9934L110.551 45.9655L117.777 39.9717L118.833 42.7563L113.693 46.456L113.726 46.5425L120.029 45.9086L121.085 48.6932Z" fill="#0E0E0E"/>
<path d="M113.896 57.9527L122.713 56.882L123.054 59.6892L114.236 60.7598L113.896 57.9527ZM123.911 58.1637C123.864 57.7695 123.953 57.415 124.178 57.1002C124.408 56.7849 124.709 56.6048 125.08 56.5597C125.447 56.5151 125.778 56.6186 126.073 56.8702C126.371 57.1213 126.544 57.444 126.592 57.8382C126.641 58.2362 126.55 58.5909 126.32 58.9024C126.094 59.2172 125.797 59.3969 125.43 59.4415C125.059 59.4865 124.724 59.3835 124.425 59.1324C124.131 58.8846 123.96 58.5617 123.911 58.1637Z" fill="#0E0E0E"/>
<path d="M113.995 70.4396C114.074 69.789 114.314 69.2182 114.716 68.7271C115.117 68.2361 115.674 67.8726 116.386 67.6367C117.098 67.4009 117.954 67.3436 118.952 67.4649C119.99 67.5908 120.823 67.859 121.453 68.2694C122.083 68.6799 122.526 69.1706 122.783 69.7416C123.039 70.3164 123.13 70.9119 123.055 71.5281C122.999 71.9912 122.871 72.3775 122.67 72.6871C122.473 72.9972 122.237 73.2443 121.962 73.4284C121.688 73.6125 121.409 73.7438 121.128 73.8222L121.121 73.8796L125.57 74.4198L125.229 77.227L113.473 75.7995L113.81 73.021L115.239 73.1946L115.25 73.1085C114.992 72.9568 114.758 72.7575 114.548 72.5106C114.337 72.2636 114.179 71.9668 114.073 71.62C113.967 71.277 113.941 70.8836 113.995 70.4396ZM116.064 71.6811C116.022 72.0217 116.083 72.3242 116.245 72.5885C116.411 72.8533 116.662 73.0722 116.998 73.245C117.335 73.4179 117.74 73.5332 118.214 73.5908C118.697 73.6493 119.12 73.6347 119.484 73.5469C119.847 73.4629 120.138 73.3098 120.355 73.0876C120.572 72.8693 120.701 72.5898 120.742 72.2492C120.785 71.9009 120.725 71.5946 120.563 71.3303C120.401 71.066 120.153 70.8495 119.82 70.6809C119.487 70.5162 119.083 70.405 118.608 70.3474C118.134 70.2897 117.713 70.3027 117.345 70.3862C116.978 70.4698 116.682 70.6183 116.458 70.8319C116.238 71.0498 116.106 71.3328 116.064 71.6811Z" fill="#0E0E0E"/>
<path d="M111.093 82.406C111.422 81.5373 111.878 80.8525 112.459 80.3515C113.043 79.8555 113.718 79.5591 114.485 79.4623C115.254 79.3704 116.08 79.4919 116.963 79.8268C117.821 80.1522 118.506 80.6059 119.019 81.1881C119.536 81.7717 119.856 82.4393 119.979 83.191C120.106 83.9441 120.011 84.7388 119.693 85.5751C119.469 86.1663 119.172 86.6721 118.802 87.0926C118.433 87.5131 118 87.8335 117.504 88.0536C117.008 88.2738 116.458 88.3825 115.853 88.3798C115.251 88.3785 114.61 88.2486 113.929 87.9902L113.269 87.7401L116.007 80.5217L117.542 81.1041L115.738 85.8622C116.02 85.9653 116.296 85.9936 116.565 85.9472C116.834 85.9008 117.073 85.7874 117.282 85.6067C117.493 85.4311 117.654 85.1973 117.764 84.9053C117.876 84.6097 117.91 84.3195 117.866 84.0346C117.825 83.7511 117.717 83.4978 117.542 83.2747C117.37 83.053 117.143 82.8845 116.861 82.7693L115.299 82.1767C114.96 82.0481 114.637 82.0021 114.331 82.0384C114.028 82.076 113.759 82.1908 113.526 82.3826C113.292 82.5744 113.111 82.8397 112.983 83.1785C112.894 83.4128 112.846 83.6378 112.838 83.8535C112.831 84.0691 112.864 84.2694 112.938 84.4542C113.012 84.639 113.128 84.8005 113.286 84.9387L112.295 87.3398C111.789 87.0325 111.399 86.631 111.125 86.1354C110.854 85.6449 110.711 85.0814 110.697 84.4452C110.686 83.8103 110.818 83.1305 111.093 82.406Z" fill="#0E0E0E"/>
<path d="M105.426 93.1663C105.955 92.3985 106.568 91.847 107.263 91.5117C107.959 91.1818 108.693 91.0627 109.463 91.1543C110.235 91.2512 110.995 91.5581 111.744 92.0749C112.496 92.594 113.052 93.1959 113.413 93.8808C113.775 94.571 113.924 95.299 113.859 96.0647C113.796 96.8358 113.499 97.6052 112.969 98.373C112.439 99.1408 111.826 99.6896 111.13 100.02C110.434 100.355 109.701 100.474 108.929 100.377C108.159 100.285 107.398 99.9801 106.646 99.4611C105.897 98.9442 105.341 98.3407 104.979 97.6505C104.618 96.9656 104.47 96.2376 104.533 95.4665C104.598 94.7009 104.896 93.9341 105.426 93.1663ZM107.172 94.3927C106.979 94.6719 106.902 94.9674 106.939 95.2792C106.977 95.591 107.113 95.9028 107.348 96.2146C107.58 96.5295 107.896 96.825 108.296 97.1009C108.702 97.3812 109.093 97.5741 109.47 97.6797C109.845 97.7884 110.185 97.8051 110.49 97.7298C110.795 97.6545 111.043 97.4773 111.236 97.1981C111.435 96.9094 111.518 96.606 111.485 96.2878C111.449 95.9728 111.315 95.6579 111.083 95.343C110.849 95.0312 110.528 94.7351 110.122 94.4548C109.722 94.1789 109.335 93.9866 108.961 93.8779C108.584 93.7723 108.242 93.7588 107.935 93.8372C107.625 93.9188 107.371 94.104 107.172 94.3927Z" fill="#0E0E0E"/>
<path d="M87.713 108.662C88.0817 108.468 88.4656 108.432 88.8646 108.554C89.2602 108.677 89.553 108.924 89.7431 109.294C89.9364 109.654 89.9705 110.031 89.8455 110.423C89.7188 110.82 89.4711 111.116 89.1024 111.309C88.7542 111.492 88.3789 111.523 87.9765 111.404C87.5725 111.289 87.2738 111.052 87.0805 110.692C86.9549 110.444 86.9024 110.187 86.923 109.919C86.9402 109.653 87.0181 109.408 87.1568 109.182C87.2921 108.959 87.4775 108.785 87.713 108.662Z" fill="#0E0E0E"/>
</svg>
