<svg width="70" height="70" viewBox="0 0 70 70" fill="none" xmlns="http://www.w3.org/2000/svg">
<rect x="1" y="56" width="11" height="13" fill="#FFC900"/>
<rect x="1" y="41" width="8" height="8" rx="4" fill="#FFC900"/>
<rect x="15" y="22" width="8" height="8" rx="4" fill="#FFC900"/>
<rect x="39" y="16" width="8" height="8" rx="4" fill="#FFC900"/>
<rect x="55" y="1" width="8" height="8" rx="4" fill="#FFC900"/>
<rect x="38" y="32" width="11" height="37" fill="#FFC900"/>
<path d="M14.7922 69.3912V57.0198C14.6826 56.9327 12.4046 55.1208 12.5455 55.2328L12.5441 55.309C12.217 55.2104 13.1466 55.2879 0.816341 55.2623C0.365653 55.2623 0 55.6279 0 56.0786V69.1177C0 69.5684 0.365653 69.9341 0.816341 69.9341H12.2839L12.2836 69.9476L14.7922 69.3912ZM11.4957 68.3014H1.63268V56.8949H11.4957V68.3014Z" fill="black"/>
<path d="M32.7136 69.1818V44.9284L30.8947 43.0783L30.8914 43.264C30.4373 42.8726 30.7469 43.1407 18.8535 43.0586C18.4028 43.0586 18.0371 43.4243 18.0371 43.875V69.1178C18.0371 69.5684 18.4028 69.9341 18.8535 69.9341C21.1135 69.9326 30.0325 69.9403 30.4037 69.9261L30.4024 70L32.7136 69.1818ZM29.5477 68.3014H19.6698V44.6913H29.5477V68.3014Z" fill="black"/>
<path d="M49.3888 30.788C49.239 30.6078 49.0219 30.4861 48.7693 30.4861H37.2587C36.808 30.4861 36.4424 30.8518 36.4424 31.3025V69.1178C36.4424 69.5684 36.808 69.9341 37.2587 69.9341H48.7693C49.0272 69.9341 49.2475 69.8068 49.3971 69.62L51.5327 68.8217L51.5573 32.9468L49.389 30.7784L49.3888 30.788ZM47.953 68.3014H38.0751V32.1188H47.953V68.3014Z" fill="black"/>
<path d="M67.1741 17.7709L67.1705 18.0008C67.0312 17.75 66.7736 17.5735 66.4666 17.5735H54.956C54.5053 17.5735 54.1396 17.9392 54.1396 18.3898V69.1178C54.1396 69.5685 54.5053 69.9341 54.956 69.9341H66.378L66.3778 69.9477L66.4158 69.9341H66.4666C66.6712 69.9341 66.8526 69.8517 66.9959 69.7274L69.7554 68.7431L69.7402 20.3372L67.1741 17.7709ZM65.6503 68.3014H55.7723V19.2062H65.6503V68.3014Z" fill="black"/>
<path d="M62.2267 9.79912C64.0323 8.60863 64.9932 6.10141 64.4102 3.93035C63.9661 2.27667 62.6278 0.957027 61.0803 0.508731C58.8838 -0.668207 56.0351 0.292394 54.6529 2.40901L54.7227 2.27455C54.3047 2.69691 54.2239 3.19908 54.1771 3.325L54.1212 3.43262C54.1142 3.47036 54.1144 3.50942 54.1082 3.54742C53.705 4.80342 53.7976 6.32326 54.6946 7.63019C51.4095 10.7693 48.5118 13.1386 45.6877 15.8489C42.6827 13.2915 37.3207 16.0296 37.8134 20.3876C37.8023 20.3895 37.7911 20.3919 37.78 20.394C37.752 20.28 29.7779 21.9989 23.9505 23.6211C23.49 22.8436 22.833 22.2005 22.0648 21.7782C18.5671 18.6101 11.6495 22.8756 14.9446 28.6983C11.0431 34.8965 11.0227 35.0558 7.59986 40.0431C5.73286 39.1956 3.45367 39.8001 2.00054 41.3058C-0.146167 43.5302 0.533079 47.774 2.61506 49.4501C4.30879 50.8139 6.79781 50.9855 8.60348 49.7953C11.0261 48.1985 12.0292 44.1463 9.40508 41.6486C9.25846 41.4161 9.09822 41.1995 8.92024 41.005C12.3911 35.9491 12.4768 35.6832 16.0133 30.0657C17.82 31.7627 20.4686 31.8825 22.2895 30.6822C24.0024 29.5529 24.938 27.2415 24.5338 25.1533C28.9383 23.932 33.4275 22.8821 37.9144 22.0315C39.1823 25.804 43.1492 26.8635 45.768 25.1369C48.182 23.5454 49.128 19.603 46.7204 17.1231C49.6679 14.2858 52.1944 12.2666 55.6896 8.93734C57.4808 10.856 60.3125 11.0611 62.2267 9.79912ZM8.52808 43.7389C9.12562 46.1973 6.6306 48.8136 3.95423 47.4071C3.20273 47.0128 2.64469 46.374 2.42253 45.6543C1.22159 41.7629 7.3986 39.1007 8.52808 43.7389ZM21.9552 24.7888C22.3474 26.3981 21.3259 28.238 19.7698 28.7259C18.2289 29.2124 16.3206 28.2323 15.8507 26.7052C14.65 22.8202 20.8243 20.1445 21.9552 24.7888ZM45.6705 18.9489C46.2681 21.4073 43.7713 24.0239 41.0956 22.6161C40.3452 22.2217 39.7871 21.5829 39.565 20.8633C38.3656 16.9771 44.5401 14.3067 45.6705 18.9489ZM56.4222 2.78263C57.3214 1.85149 58.6767 1.43269 59.7843 1.72926C60.7771 1.99818 61.4659 2.8124 61.7752 4.08261C62.3713 6.52841 59.8816 9.15937 57.2013 7.75083C55.248 6.7258 54.9679 4.29012 56.4222 2.78263Z" fill="black"/>
</svg>
