<svg width="629" height="270" viewBox="0 0 629 270" fill="none" xmlns="http://www.w3.org/2000/svg">
<path d="M109.509 267.04V268.04H110.509H160.304H161.304V267.04V213.494H193.005H194.005V212.494V168.565V167.565H193.005H161.304V11.518V10.518H160.304H126.116H125.631L125.331 10.8988L1.21473 168.312L1 168.584V168.931V212.494V213.494H2H109.509V267.04ZM350.333 217.063L350.341 217.06C362.356 211.388 372.625 203.617 381.141 193.747C389.9 183.64 396.649 171.816 401.394 158.285C406.391 144.499 408.884 129.497 408.884 113.288C408.884 97.0805 406.392 82.1998 401.394 68.6557C396.651 54.8869 389.903 43.0613 381.143 33.1952C372.629 23.084 362.36 15.1896 350.345 9.51727C338.559 3.8364 325.777 1 312.01 1C297.998 1 284.969 3.83582 272.937 9.51544L272.929 9.51899C261.16 15.1928 250.894 23.0873 242.136 33.1938L242.135 33.1954C233.623 43.0606 226.876 54.8845 221.885 68.6513L221.882 68.6612C217.133 82.2035 214.765 97.0822 214.765 113.288C214.765 129.493 217.133 144.492 221.88 158.275L221.883 158.285L221.887 158.295C226.878 171.816 233.623 183.634 242.127 193.736L242.135 193.747L242.144 193.756C250.902 203.616 261.165 211.385 272.929 217.056L272.941 217.061L272.952 217.067C284.981 222.498 298.004 225.209 312.01 225.209C325.771 225.209 338.55 222.497 350.333 217.063ZM353.408 86.8234L353.41 86.8307C355.612 94.7843 356.718 103.601 356.718 113.288C356.718 122.974 355.612 131.791 353.41 139.744C351.207 147.702 348.032 154.546 343.9 160.294L343.891 160.305L343.883 160.317C340 166.056 335.282 170.459 329.733 173.549L329.724 173.553L329.716 173.558C324.428 176.637 318.534 178.181 312.01 178.181C305.233 178.181 299.085 176.633 293.545 173.549C287.992 170.457 283.147 166.05 279.014 160.305C275.125 154.555 272.072 147.706 269.868 139.744C267.666 131.791 266.56 122.974 266.56 113.288C266.56 103.601 267.666 94.7843 269.868 86.8307L269.87 86.8234C272.075 78.6163 275.129 71.6494 279.014 65.9038C283.148 60.1587 287.992 55.752 293.545 52.6602C299.085 49.5756 305.233 48.0275 312.01 48.0275C318.534 48.0275 324.428 49.5724 329.716 52.6507L329.724 52.6556L329.733 52.6602C335.282 55.7504 340 60.1532 343.883 65.8918L343.891 65.9036L343.9 65.9152C348.029 71.6577 351.203 78.6204 353.408 86.8234ZM534.736 267.04V268.04H535.736H585.531H586.531V267.04V213.494H618.232H619.232V212.494V168.565V167.565H618.232H586.531V11.518V10.518H585.531H551.343H550.858L550.558 10.8988L426.442 168.312L426.227 168.584V168.931V212.494V213.494H427.227H534.736V267.04ZM115.083 88.7484V167.565H53.8385L115.083 88.7484ZM540.31 88.7484V167.565H479.066L540.31 88.7484Z" stroke="#0E0E0E" stroke-width="2"/>
<path d="M110.509 267.04V212.494H2V168.931L126.116 11.518H160.304V168.565H193.005V212.494H160.304V267.04H110.509ZM51.795 168.565H116.083V85.8317L51.795 168.565Z" fill="#E5ABF3"/>
<path d="M407.884 113.288C407.884 129.395 405.407 144.282 400.452 157.949C395.745 171.372 389.056 183.086 380.386 193.092C371.963 202.854 361.805 210.542 349.914 216.155C338.27 221.524 325.636 224.209 312.01 224.209C298.137 224.209 285.255 221.524 273.364 216.155C261.72 210.542 251.563 202.854 242.892 193.092C234.469 183.086 227.78 171.372 222.825 157.949C218.118 144.282 215.765 129.395 215.765 113.288C215.765 97.1801 218.118 82.415 222.825 68.9921C227.78 55.3253 234.469 43.6108 242.892 33.8487C251.563 23.8426 261.72 16.033 273.364 10.4198C285.255 4.80659 298.137 2 312.01 2C325.636 2 338.27 4.80659 349.914 10.4198C361.805 16.033 371.963 23.8426 380.386 33.8487C389.056 43.6108 395.745 55.3253 400.452 68.9921C405.407 82.415 407.884 97.1801 407.884 113.288ZM357.718 113.288C357.718 103.525 356.603 94.6176 354.373 86.5639C352.144 78.2661 348.923 71.1886 344.712 65.3314C340.748 59.4741 335.917 54.9592 330.219 51.7865C324.769 48.6138 318.699 47.0275 312.01 47.0275C305.074 47.0275 298.757 48.6138 293.059 51.7865C287.361 54.9592 282.406 59.4741 278.194 65.3314C274.231 71.1886 271.134 78.2661 268.904 86.5639C266.675 94.6176 265.56 103.525 265.56 113.288C265.56 123.05 266.675 131.957 268.904 140.011C271.134 148.065 274.231 155.02 278.194 160.878C282.406 166.735 287.361 171.25 293.059 174.422C298.757 177.595 305.074 179.181 312.01 179.181C318.699 179.181 324.769 177.595 330.219 174.422C335.917 171.25 340.748 166.735 344.712 160.878C348.923 155.02 352.144 148.065 354.373 140.011C356.603 131.957 357.718 123.05 357.718 113.288Z" fill="#E5ABF3"/>
<path d="M535.736 267.04V212.494H427.227V168.931L551.343 11.518H585.531V168.565H618.232V212.494H585.531V267.04H535.736ZM477.022 168.565H541.31V85.8317L477.022 168.565Z" fill="#E5ABF3"/>
<path d="M120.509 269.042V213.673H12V169.452L136.116 9.66171H170.304V169.08H203.005V213.673H170.304V269.042H120.509ZM61.795 169.08H126.083V85.0975L61.795 169.08Z" fill="#0E0E0E"/>
<path d="M417.884 112.968C417.884 129.318 415.407 144.43 410.452 158.304C405.745 171.929 399.056 183.82 390.386 193.978C381.963 203.887 371.805 211.691 359.914 217.389C348.27 222.839 335.636 225.564 322.01 225.564C308.137 225.564 295.255 222.839 283.364 217.389C271.72 211.691 261.563 203.887 252.892 193.978C244.469 183.82 237.78 171.929 232.825 158.304C228.118 144.43 225.765 129.318 225.765 112.968C225.765 96.6172 228.118 81.6292 232.825 68.0036C237.78 54.1304 244.469 42.2391 252.892 32.3296C261.563 22.1724 271.72 14.2448 283.364 8.54691C295.255 2.84897 308.137 0 322.01 0C335.636 0 348.27 2.84897 359.914 8.54691C371.805 14.2448 381.963 22.1724 390.386 32.3296C399.056 42.2391 405.745 54.1304 410.452 68.0036C415.407 81.6292 417.884 96.6172 417.884 112.968ZM367.718 112.968C367.718 103.058 366.603 94.016 364.373 85.8407C362.144 77.4176 358.923 70.2333 354.712 64.2876C350.748 58.3419 345.917 53.7588 340.219 50.5382C334.769 47.3176 328.699 45.7074 322.01 45.7074C315.074 45.7074 308.757 47.3176 303.059 50.5382C297.361 53.7588 292.406 58.3419 288.194 64.2876C284.231 70.2333 281.134 77.4176 278.904 85.8407C276.675 94.016 275.56 103.058 275.56 112.968C275.56 122.877 276.675 131.92 278.904 140.095C281.134 148.27 284.231 155.331 288.194 161.276C292.406 167.222 297.361 171.805 303.059 175.026C308.757 178.246 315.074 179.857 322.01 179.857C328.699 179.857 334.769 178.246 340.219 175.026C345.917 171.805 350.748 167.222 354.712 161.276C358.923 155.331 362.144 148.27 364.373 140.095C366.603 131.92 367.718 122.877 367.718 112.968Z" fill="#0E0E0E"/>
<path d="M545.736 269.042V213.673H437.227V169.452L561.343 9.66171H595.531V169.08H628.232V213.673H595.531V269.042H545.736ZM487.022 169.08H551.31V85.0975L487.022 169.08Z" fill="#0E0E0E"/>
</svg>
