<svg width="60" height="60" viewBox="0 0 60 60" fill="none" xmlns="http://www.w3.org/2000/svg">
<path d="M12.8571 60H19.5238C20.6601 59.9988 21.7494 59.5468 22.5529 58.7434C23.3564 57.9399 23.8083 56.8505 23.8095 55.7143V40.4762C23.8083 39.3399 23.3564 38.2506 22.5529 37.4471C21.7494 36.6436 20.6601 36.1917 19.5238 36.1905H15.7143C15.3355 36.1901 14.9724 36.0394 14.7046 35.7716C14.4368 35.5038 14.2861 35.1407 14.2857 34.7619V25.2381C14.2861 24.8593 14.4368 24.4962 14.7046 24.2284C14.9724 23.9606 15.3355 23.8099 15.7143 23.8095H19.5238C20.6601 23.8083 21.7494 23.3564 22.5529 22.5529C23.3564 21.7494 23.8083 20.6601 23.8095 19.5238V4.28571C23.8083 3.14945 23.3564 2.06008 22.5529 1.25662C21.7494 0.453165 20.6601 0.00123776 19.5238 0H12.8571C9.44838 0.00379883 6.18033 1.35961 3.76997 3.76997C1.35961 6.18033 0.00379883 9.44838 0 12.8571V47.1429C0.00379883 50.5516 1.35961 53.8197 3.76997 56.23C6.18033 58.6404 9.44838 59.9962 12.8571 60ZM2.85714 12.8571C2.86012 10.2059 3.91464 7.66408 5.78936 5.78936C7.66408 3.91464 10.2059 2.86012 12.8571 2.85714H19.5238C19.9026 2.85756 20.2657 3.0082 20.5335 3.27602C20.8013 3.54384 20.952 3.90696 20.9524 4.28571V19.5238C20.952 19.9026 20.8013 20.2657 20.5335 20.5335C20.2657 20.8013 19.9026 20.952 19.5238 20.9524H15.7143C14.578 20.9536 13.4887 21.4055 12.6852 22.209C11.8817 23.0125 11.4298 24.1018 11.4286 25.2381V34.7619C11.4298 35.8982 11.8817 36.9875 12.6852 37.791C13.4887 38.5945 14.578 39.0464 15.7143 39.0476H19.5238C19.9026 39.048 20.2657 39.1987 20.5335 39.4665C20.8013 39.7343 20.952 40.0974 20.9524 40.4762V55.7143C20.952 56.093 20.8013 56.4562 20.5335 56.724C20.2657 56.9918 19.9026 57.1424 19.5238 57.1429H12.8571C10.2059 57.1399 7.66408 56.0854 5.78936 54.2106C3.91464 52.3359 2.86012 49.7941 2.85714 47.1429V12.8571Z" fill="#0E0E0E"/>
<path d="M32.3809 10.952C32.3809 11.3309 32.5314 11.6942 32.7993 11.9621C33.0672 12.23 33.4306 12.3806 33.8094 12.3806H41.4285C41.8074 12.3806 42.1707 12.2301 42.4386 11.9622C42.7065 11.6943 42.857 11.3309 42.857 10.952C42.857 10.5731 42.7065 10.2098 42.4386 9.94186C42.1707 9.67395 41.8074 9.52344 41.4285 9.52344H33.8094C33.4306 9.52346 33.0672 9.67397 32.7993 9.94188C32.5314 10.2098 32.3809 10.5731 32.3809 10.952Z" fill="#0E0E0E"/>
<path d="M36.8367 1.14416L30.2388 4.95368C29.911 5.14323 29.6718 5.45522 29.5739 5.82105C29.476 6.18688 29.5274 6.57661 29.7168 6.90456C29.9062 7.23251 30.218 7.47184 30.5838 7.56993C30.9496 7.66802 31.3394 7.61684 31.6674 7.42765L38.2652 3.61812C38.5931 3.42857 38.8323 3.11659 38.9301 2.75076C39.028 2.38493 38.9766 1.99519 38.7873 1.66724C38.5979 1.33929 38.286 1.09996 37.9203 1.00187C37.5545 0.903786 37.1647 0.954965 36.8367 1.14416Z" fill="#0E0E0E"/>
<path d="M30.2388 16.9511L36.8367 20.7607C37.1647 20.9498 37.5545 21.001 37.9203 20.9029C38.286 20.8048 38.5979 20.5655 38.7873 20.2376C38.9766 19.9096 39.028 19.5199 38.9301 19.1541C38.8323 18.7882 38.5931 18.4762 38.2652 18.2867L31.6674 14.4772C31.3394 14.288 30.9496 14.2368 30.5838 14.3349C30.218 14.433 29.9062 14.6723 29.7168 15.0002C29.5274 15.3282 29.476 15.7179 29.5739 16.0838C29.6718 16.4496 29.911 16.7616 30.2388 16.9511Z" fill="#0E0E0E"/>
<path d="M56.6667 30.4766H26.1905C25.9082 30.4771 25.6324 30.5612 25.3979 30.7183C25.1633 30.8753 24.9805 31.0983 24.8725 31.3591C24.7645 31.6199 24.7361 31.9069 24.7909 32.1838C24.8457 32.4607 24.9813 32.7152 25.1805 32.9152L30.4762 38.2109V56.667C30.4773 57.5508 30.8288 58.398 31.4537 59.0229C32.0786 59.6478 32.9259 59.9993 33.8096 60.0004H56.6667C57.5505 59.9993 58.3977 59.6478 59.0226 59.0229C59.6475 58.398 59.999 57.5508 60.0001 56.667V33.8099C59.999 32.9262 59.6475 32.0789 59.0226 31.4541C58.3977 30.8292 57.5505 30.4776 56.6667 30.4766ZM44.5927 53.01C44.3755 53.0162 44.1593 52.9783 43.9571 52.8986C43.7549 52.819 43.5709 52.6992 43.4162 52.5466C43.2616 52.3939 43.1394 52.2116 43.0571 52.0105C42.9747 51.8094 42.934 51.5937 42.9372 51.3764C42.934 51.0496 43.0278 50.7292 43.2069 50.4559C43.386 50.1825 43.6422 49.9685 43.9431 49.8409C44.244 49.7134 44.576 49.678 44.8969 49.7394C45.2179 49.8007 45.5135 49.956 45.7461 50.1856C45.9787 50.4151 46.1379 50.7086 46.2035 51.0287C46.2692 51.3489 46.2382 51.6813 46.1147 51.9838C45.9911 52.2864 45.7805 52.5454 45.5096 52.7281C45.2386 52.9108 44.9195 53.0089 44.5927 53.01H44.5927ZM45.8446 45.7142L45.5944 47.3037H43.7538C43.5416 45.2237 43.5575 45.5213 43.5575 45.3436C43.5575 43.4392 46.7811 43.1549 46.7811 40.8031C46.7744 40.5583 46.7166 40.3176 46.6115 40.0964C46.5065 39.8752 46.3564 39.6783 46.1709 39.5184C45.9854 39.3586 45.7686 39.2391 45.5343 39.1678C45.3 39.0965 45.0534 39.0749 44.8103 39.1043C44.188 39.0877 43.5728 39.24 43.0302 39.5452C42.494 39.8469 42.3776 39.986 42.1531 39.986C42.0372 39.9929 41.9217 39.9656 41.821 39.9076C41.7204 39.8496 41.6389 39.7634 41.5867 39.6596L40.879 38.5379C42.0135 37.4905 43.5063 36.9177 45.0503 36.9373C47.4705 36.9373 49.2746 38.2933 49.2746 40.6505C49.2746 43.9409 46.059 44.3396 45.8446 45.7142Z" fill="#FFC900"/>
</svg>
