<svg width="62" height="70" viewBox="0 0 62 70" fill="none" xmlns="http://www.w3.org/2000/svg">
<path d="M26.5 58.999L29.5 57.499L34 55.499V52.999L32 49.999L27 46.499L22 43.499L19 42.999H18L17 44.499L16.5 45.999L17.5 47.999V49.499L17 50.999L18 53.499L21 55.999L26.5 58.999Z" fill="#FFC900"/>
<path d="M1 40.499L18 39.499L19 30.999L21.5 23.999L23.5 19.499L20.5 20.499L14.5 23.499L9.5 26.999L5.5 31.499L2 37.499L1 40.499Z" fill="#FFC900"/>
<path d="M42.0099 66.8592L36.8636 51.1018L44.2082 47.1697L49.6599 42.4126L53.0247 38.9986L53.1868 42.0725L52.605 48.5764L51.2143 54.3523L48.5615 59.5782L44.3718 64.8852L42.0099 66.8592Z" fill="#FFC900"/>
<path d="M0.253463 41.0557C0.297098 41.0972 0.351116 41.1201 0.401454 41.15C0.685411 41.7296 1.2181 42.1844 1.84398 42.345C6.92208 40.5483 12.4426 40.2905 17.6973 41.4557C17.8055 42.0841 17.8011 42.2418 17.9708 42.4641C15.5015 43.6183 14.8078 47.0732 17.1673 48.9173C16.6897 49.3195 16.1543 50.7142 16.4069 52.0633C16.7706 54.0202 18.2847 54.6447 18.4404 54.7871C19.418 55.8264 20.5017 56.8077 21.4422 57.6007C22.7358 58.6916 24.1635 59.7191 25.819 60.0569C27.4745 60.3944 29.4061 59.8758 30.2957 58.434C32.9536 59.5188 35.7672 57.2028 35.2522 54.3838C35.7721 54.3023 36.286 54.198 36.7964 54.0826C39.1626 58.2563 40.2995 63.0712 40.014 67.8434C40.0015 68.0537 40.0781 68.2516 40.2089 68.4073C40.2019 68.4133 40.1954 68.4201 40.1884 68.4264C40.3482 68.5377 39.7779 68.1402 41.5134 69.3512C50.0346 63.0393 54.9524 52.1739 54.0918 41.6064C60.1507 32.6421 61.5374 21.2678 60.621 10.4044C60.3953 7.72868 59.6687 3.54734 58.432 1.56352C57.2057 -1.58344 51.1825 0.795907 47.9545 1.97121C38.39 5.27608 29.5728 10.7477 23.68 18.8254C13.447 21.0708 3.73895 29.843 0.0473777 40.1977C-0.0609204 40.4994 0.0200411 40.8359 0.253463 41.0557ZM26.5165 57.2259C25.9267 57.372 25.3326 57.2827 24.8426 56.9693L18.9261 53.1799C18.4362 52.8666 18.105 52.365 17.9935 51.7678C17.8131 50.7962 18.2583 50.1885 18.4089 49.8387C21.32 52.0039 24.5207 54.024 28.1173 55.961C28.0211 56.0687 27.6281 56.9451 26.5165 57.2259ZM32.5392 54.3123C31.9262 55.225 30.8012 55.5678 29.9232 55.1083C25.4167 52.7541 21.5463 50.2947 18.0913 47.5925C16.5198 46.3646 17.5656 43.7232 19.5339 43.7232C19.8419 43.7232 20.15 43.7936 20.4381 43.9429C24.4452 46.0206 28.3944 48.5556 32.1765 51.4776C33.0134 52.1243 33.1733 53.3692 32.5392 54.3123ZM41.6711 66.0833C41.6183 61.7592 40.476 57.4725 38.3951 53.6602C43.5982 52.0993 48.2165 48.8161 51.8072 44.6119C51.3476 52.5291 47.5981 60.5953 41.6711 66.0833ZM48.4823 3.49792C50.2838 2.84426 56.5958 0.448405 56.977 2.29506C57.4596 4.63243 57.855 7.94134 58.0621 11.3712C58.8119 23.7802 55.8757 33.2149 51.2981 39.9117C47.7166 45.1505 40.9886 49.5842 34.0859 51.2828C33.8598 50.8712 33.5538 50.4998 33.1649 50.1991C29.306 47.2182 25.2737 44.6306 21.1804 42.5088C20.6133 42.2157 20.0027 42.1013 19.4005 42.1234C19.4185 42.0251 19.4214 41.9221 19.4003 41.818C16.6939 28.5002 25.6856 11.3759 48.4823 3.49792ZM22.3102 20.8447C18.604 26.716 17.1065 32.929 17.3677 38.4654C12.3738 37.1992 7.084 37.4035 2.22703 39.0632C5.89494 30.518 13.7901 23.3629 22.3102 20.8447Z" fill="#0E0E0E"/>
<path d="M46.7407 21.453C51.8288 21.453 54.8545 16.0713 52.3533 12.1067C51.0726 10.0732 48.6123 8.81567 46.2118 8.95026C43.9995 9.08484 42.2173 10.3539 41.1932 12.5231C39.4485 16.2218 41.9627 21.453 46.7407 21.453Z" fill="#0E0E0E"/>
<path d="M16.5034 56.9385C16.8367 56.642 16.8672 56.132 16.5706 55.7987C16.2741 55.4654 15.7642 55.437 15.4309 55.7314C13.6865 57.2813 12.0915 59.0109 10.6888 60.8741C10.2866 61.4089 10.6745 62.1673 11.3334 62.1673C11.5784 62.1673 11.8213 62.0559 11.98 61.8456C13.3175 60.0676 14.8389 58.4168 16.5034 56.9385Z" fill="#0E0E0E"/>
<path d="M14.0846 68.9192C14.4595 69.1554 14.9592 69.0454 15.1981 68.6658L19.6331 61.6085C19.8708 61.231 19.7572 60.7316 19.3797 60.495C19.0012 60.2553 18.5028 60.372 18.2662 60.7484L13.8312 67.8057C13.5936 68.1842 13.7072 68.6826 14.0846 68.9192Z" fill="#0E0E0E"/>
<path d="M23.3417 62.3217L22.2335 69.0604C22.161 69.501 22.4596 69.9163 22.8991 69.9889C23.3386 70.0604 23.7549 69.7639 23.8275 69.3233L24.9357 62.5846C25.0083 62.144 24.7097 61.7287 24.2702 61.6561C23.8181 61.5804 23.4143 61.8833 23.3417 62.3217Z" fill="#0E0E0E"/>
</svg>
