<svg width="59" height="70" viewBox="0 0 59 70" fill="none" xmlns="http://www.w3.org/2000/svg">
<path d="M57.7605 38.7477C58.3744 37.5391 58.3423 36.1939 57.6719 35.0579C56.9181 33.7789 55.4981 32.9504 53.9682 32.8959C52.8814 32.8671 51.8511 33.0785 50.9265 33.2707C48.566 33.7629 46.0923 34.6618 43.7008 35.5319C41.0725 36.4875 38.3818 37.4578 35.767 37.9319C35.9067 37.3268 35.9286 36.6301 35.9963 36.1125C36.4762 32.4429 36.9447 29.5849 36.917 26.2873C36.9002 24.2973 36.6971 22.4342 35.8528 20.474C35.4255 19.4822 34.2297 17.7268 32.8821 17.4834C32.3942 17.2575 31.8751 17.139 31.361 17.1547C30.1033 17.1963 28.8606 18.0398 28.1186 19.3583C27.6147 20.2519 27.3744 21.216 27.1428 22.148L27.0189 22.6402C26.0527 26.3609 24.1587 30.1639 21.2259 34.2668C20.0334 35.9355 18.702 37.632 17.1572 39.4534C16.4835 40.2462 15.8968 41.0969 15.3577 41.9463C15.1286 40.9738 14.5591 40.1136 13.2699 39.811C12.3881 39.6069 11.4304 39.816 10.5846 40.3589C10.4996 40.3431 10.4129 40.3306 10.3221 40.3438C8.73029 40.5659 6.62064 40.7335 4.57932 40.8958C3.20207 41.0057 1.86111 41.1125 0.734757 41.231C0.284214 41.279 -0.0424827 41.6826 0.00449325 42.1321C0.049334 42.5538 0.404857 42.8666 0.8191 42.8666C0.847926 42.8666 0.876753 42.8655 0.905579 42.8623C2.02126 42.7449 3.34727 42.6392 4.70957 42.5314C6.13727 42.4177 7.58826 42.3001 8.89598 42.1636C8.62847 42.6017 8.40133 43.0575 8.189 43.504C6.59502 46.8521 5.73023 49.6397 5.46759 52.2789C5.12381 55.7103 5.85942 58.942 7.53561 61.3784C7.93223 61.9538 8.36082 62.4347 8.81277 62.8381C8.14736 62.9039 7.43432 62.976 6.70285 63.0503C4.61989 63.2617 2.4654 63.4795 1.63584 63.5211C1.18316 63.5435 0.835115 63.929 0.857535 64.3806C0.878888 64.8194 1.24188 65.1599 1.67535 65.1599C1.68922 65.1599 1.7031 65.1599 1.71698 65.1589C2.58924 65.1151 4.66793 64.9048 6.86833 64.6816C8.96731 64.4692 11.1389 64.2493 11.9738 64.2076C11.9967 64.2065 12.0155 64.1943 12.0379 64.1913C12.0464 64.1914 12.055 64.1937 12.0635 64.1937C12.7919 64.1937 13.4901 64.0009 14.0753 63.6354C15.3753 64.8535 18.3329 66.1025 19.6469 66.7036C23.3473 68.3962 27.0216 69.266 31.0671 69.7913C37.6683 70.6486 45.2705 68.8346 50.4221 64.787C51.565 63.889 52.6764 62.3498 53.2921 61.0337C53.6407 60.2888 53.7462 59.693 53.6882 59.0688C53.7961 58.4825 53.7137 57.8832 53.4131 57.3011C53.0319 56.5613 52.3812 55.9624 51.6968 55.5252C52.6051 55.209 53.4459 54.5902 54.1956 54.0181C54.5138 53.7747 54.8234 53.5376 55.1213 53.3412C56.5113 52.4241 57.4156 51.0885 57.6014 49.6781C57.7674 48.4255 57.303 47.1887 56.466 46.3873C57.1012 45.8421 57.5939 45.1399 57.8886 44.262C58.3407 42.9173 57.9241 40.9901 56.7644 39.9059C57.1693 39.5886 57.5264 39.2086 57.7605 38.7477ZM55.3209 40.8584C56.1281 41.2673 56.6587 42.7748 56.3341 43.741C55.9765 44.8044 55.2942 45.4716 54.2469 45.7791C53.286 46.0599 52.3198 46.2478 51.3845 46.4293C50.8945 46.5243 50.4162 46.6162 49.956 46.7186L48.7913 46.9759C48.0823 47.1308 47.4738 47.2642 46.5855 47.4724C46.1446 47.576 45.8702 48.0169 45.9738 48.4578C46.0624 48.8358 46.3997 49.0909 46.7713 49.0909C46.8332 49.0909 46.8962 49.0845 46.9592 49.0696C47.8389 48.8635 48.4411 48.7311 49.1425 48.5774L50.3126 48.3201C50.7589 48.2208 51.2212 48.1311 51.6963 48.0393C52.6689 47.8503 53.6736 47.656 54.7081 47.3528C54.7774 47.3325 54.8327 47.2944 54.9003 47.2717C55.6185 47.606 56.096 48.553 55.9765 49.4625C55.8537 50.3881 55.1971 51.3266 54.2181 51.9725C53.8914 52.1882 53.5508 52.4476 53.2006 52.7145C52.4404 53.2942 51.6547 53.8942 50.9361 54.0619C50.4504 54.175 49.9464 54.3288 49.4212 54.4889C48.5895 54.7441 47.7279 55.0067 46.8172 55.137C46.3688 55.201 46.057 55.6163 46.1211 56.0637C46.1787 56.4736 46.53 56.7683 46.9314 56.7683C46.9699 56.7683 47.0094 56.7662 47.0478 56.7598C47.8326 56.6483 48.5561 56.4506 49.2395 56.2492C49.3176 56.2896 49.3987 56.3264 49.4906 56.3402C50.1899 56.4459 51.4988 57.1655 51.9557 58.0516C52.1447 58.4189 52.1522 58.7499 51.9771 59.0947C50.7408 61.5364 47.287 63.3524 41.9509 64.3528C37.4551 65.1962 36.7643 65.3265 32.6155 64.9774C24.7747 64.3176 18.8675 62.2773 14.5553 58.7392C14.2062 58.453 13.6895 58.5032 13.4012 58.8534C13.149 59.1608 13.1721 59.5882 13.4149 59.8843C13.4575 59.9936 13.5186 60.0966 13.6094 60.1826C13.8731 60.4314 13.9105 60.789 13.9094 60.9791C13.9073 61.3891 13.7354 61.8012 13.461 62.0563C12.8994 62.5763 11.9417 62.7001 11.078 62.367C10.2912 62.0617 9.55344 61.4157 8.88724 60.4474C7.42991 58.3313 6.79467 55.4882 7.09894 52.4412C7.34236 49.9963 8.15911 47.3806 9.66875 44.2086C10.0392 43.4314 10.4503 42.6253 11.0417 42.0616C11.4848 41.6399 12.2044 41.2449 12.8962 41.4082C13.8806 41.6388 13.9628 42.6531 13.7706 44.5695L13.7663 44.6143C13.7631 44.6473 13.7753 44.6761 13.7759 44.7082C13.6426 44.9662 13.4993 45.2357 13.3788 45.477C13.1759 45.8816 13.3404 46.3749 13.7461 46.5767C13.8635 46.6354 13.9884 46.6631 14.1112 46.6631C14.4123 46.6631 14.7027 46.4966 14.8457 46.2094C15.6934 44.5108 16.8646 42.3296 18.4074 40.5146C19.9821 38.658 21.3402 36.9273 22.5605 35.2213C25.6118 30.9507 27.589 26.9706 28.6054 23.0513L28.7335 22.5441C28.9492 21.6804 29.1521 20.8637 29.5471 20.1633C29.9101 19.5185 30.5912 18.8213 31.4144 18.7946C31.9226 18.7444 32.5674 19.0786 33.0244 19.6028C33.428 20.0661 33.7418 20.7003 34.0119 21.5982C35.355 26.0577 33.6532 33.1479 32.0208 38.8277C31.9493 39.0754 31.9995 39.3423 32.1543 39.5484C32.3101 39.7534 32.5514 39.874 32.8087 39.874H32.8119C36.602 39.8591 40.4957 38.4434 44.2613 37.0736C46.7062 36.1843 49.0155 35.344 51.2618 34.8764C52.1372 34.6938 53.0458 34.5091 53.9106 34.5358C54.8714 34.5689 55.7939 35.1017 56.2594 35.8917C56.5316 36.353 56.7601 37.095 56.2978 38.0046C56.0426 38.5074 55.3284 39.0028 54.3376 39.3626C52.2365 40.1271 50.918 40.2552 49.0934 40.4324C48.4752 40.4933 47.8112 40.5573 47.0563 40.6534C46.6069 40.7111 46.2898 41.121 46.3464 41.5705C46.404 42.02 46.8129 42.3392 47.2635 42.2805C48.0001 42.1865 48.6482 42.1235 49.2525 42.0648C51.124 41.8833 52.6017 41.7392 54.8981 40.9043C55.0018 40.8665 55.1105 40.8234 55.2198 40.7787C55.255 40.8042 55.281 40.8382 55.3209 40.8584Z" fill="#0E0E0E"/>
<path d="M2.92398 48.059H2.94106C3.42684 48.059 3.87738 47.8369 4.14856 47.459C4.39625 47.1141 4.47953 46.6668 4.37703 46.2322C4.27134 45.7828 3.98735 45.4059 3.59873 45.1988C2.86526 44.808 1.89371 45.0696 1.43783 45.7881C1.22964 46.1137 1.26594 46.5088 1.52004 46.7682C1.53285 47.0138 1.60972 47.2508 1.74958 47.4547C2.00581 47.8284 2.44461 48.0536 2.92398 48.059Z" fill="#0E0E0E"/>
<path d="M7.5 24.999L12 23.499L16 25.499V21.499L19.5 18.999L15 17.499L13 12.999L10.5 16.999H6L9 20.499L7.5 24.999Z" fill="#FFC900"/>
<path d="M27.5 12.999L32 11.499L36 13.499V9.49902L39.5 6.99902L35 5.49902L33 0.999023L30.5 4.99902H26L29 8.49902L27.5 12.999Z" fill="#FFC900"/>
<path d="M44.5 25.999L49 24.499L53 26.499V22.499L56.5 19.999L52 18.499L50 13.999L47.5 17.999H43L46 21.499L44.5 25.999Z" fill="#FFC900"/>
<path d="M7.85457 20.9584L6.57981 25.2151C6.49013 25.5141 6.57874 25.8376 6.80721 26.05C7.03462 26.2635 7.36452 26.3276 7.65705 26.2166L11.8102 24.6397L15.4647 27.1689C15.6045 27.265 15.7679 27.3141 15.9312 27.3141C16.0679 27.3141 16.2056 27.2799 16.3295 27.2105C16.4837 27.125 16.5972 26.9921 16.6687 26.8387C16.9137 26.6093 17.1612 26.3799 17.3942 26.1506C17.3663 24.906 17.3384 23.6614 17.3105 22.4167C18.2728 21.6245 19.2876 20.8205 20.2977 20.214C20.2808 19.7866 20.2693 19.5117 20.2534 19.1156C20.3677 18.94 20.4173 18.7263 20.3758 18.5136C20.316 18.2071 20.0876 17.9616 19.7865 17.8794L16.332 16.9403C15.8664 15.7414 15.3683 14.3735 14.9949 13.2031C14.6442 12.9207 14.2935 12.6382 13.9427 12.3558C13.8457 12.2025 13.7026 12.0871 13.5322 12.0253C13.5225 12.0174 13.5126 12.0096 13.5029 12.0017C13.5056 12.0075 13.5073 12.0135 13.51 12.0194C13.4587 12.0024 13.4078 11.9841 13.3529 11.9775C13.0433 11.9369 12.7379 12.081 12.5671 12.3415L10.135 16.0591L5.69153 16.1616C5.37978 16.169 5.09899 16.3527 4.96767 16.6356C4.83529 16.9185 4.87586 17.2516 5.07124 17.495L7.85457 20.9584ZM10.6037 17.6893C10.8728 17.6829 11.1226 17.5441 11.271 17.3189L13.0294 14.6306L14.0928 17.6627C14.1825 17.9178 14.3917 18.1121 14.6511 18.1826L17.7526 19.026L15.1967 20.9734C14.9821 21.1367 14.8625 21.3962 14.8754 21.6652L15.0312 24.8745L12.3888 23.0457C12.25 22.9496 12.0867 22.9005 11.9223 22.9005C11.824 22.9005 11.7258 22.9176 11.6308 22.9539L8.62754 24.0941L9.54998 21.0161C9.62685 20.7577 9.5724 20.478 9.40371 20.2677L7.39014 17.763L10.6037 17.6893Z" fill="#0E0E0E"/>
<path d="M27.8721 8.9868L26.5963 13.2445C26.5066 13.5435 26.5952 13.867 26.8237 14.0794C27.0511 14.293 27.381 14.357 27.6736 14.246L31.8277 12.668L35.4812 15.1972C35.6211 15.2933 35.7844 15.3424 35.9478 15.3424C36.0844 15.3424 36.2221 15.3083 36.346 15.2389C36.5 15.1535 36.6134 15.021 36.685 14.8678C36.93 14.6383 37.1777 14.4087 37.4109 14.1793C37.3829 12.9346 37.355 11.69 37.3271 10.4453C38.2895 9.65308 39.3043 8.84914 40.3144 8.24259C40.2973 7.815 40.2858 7.54002 40.2701 7.14379C40.3842 6.96817 40.4338 6.75451 40.3923 6.54191C40.3325 6.2355 40.1041 5.98994 39.803 5.90774L36.3485 4.96868C35.883 3.76986 35.3851 2.40208 35.0117 1.23175C34.6615 0.949761 34.3113 0.667905 33.9611 0.385915C33.8637 0.231174 33.7197 0.115069 33.548 0.0531457C33.5384 0.0455388 33.529 0.0379322 33.5195 0.0303252C33.5221 0.0359971 33.5238 0.0417356 33.5264 0.0474074C33.4755 0.0305921 33.4249 0.0124423 33.3705 0.00583631C33.0641 -0.0347339 32.7555 0.10833 32.5847 0.369901L30.1515 4.08848L25.7091 4.19098C25.3974 4.19845 25.1166 4.38208 24.9853 4.66501C24.8529 4.94793 24.8934 5.28103 25.0888 5.52445L27.8721 8.9868ZM30.6202 5.7177C30.8893 5.71129 31.1391 5.5725 31.2875 5.34723L33.047 2.65892L34.1093 5.69101C34.199 5.94617 34.4082 6.14048 34.6677 6.21094L37.7691 7.05438L35.2132 9.00175C34.9986 9.1651 34.879 9.42453 34.8919 9.69358L35.0477 12.9029L32.4064 11.074C32.2676 10.9779 32.1043 10.9288 31.9398 10.9288C31.8416 10.9288 31.7434 10.9459 31.6484 10.9822L28.6451 12.1225L29.5676 9.04552C29.6444 8.78609 29.59 8.50636 29.4213 8.29604L27.4077 5.79243L30.6202 5.7177Z" fill="#0E0E0E"/>
<path d="M44.1612 21.7429L42.8864 26.0007C42.7968 26.2996 42.8854 26.6231 43.1139 26.8355C43.3413 27.0491 43.6712 27.1142 43.9637 27.0021L48.1168 25.4241L51.7713 27.9534C51.9112 28.0494 52.0745 28.0986 52.2379 28.0986C52.3745 28.0986 52.5123 28.0644 52.6361 27.995C52.7904 27.9095 52.9037 27.7767 52.9754 27.6233C53.2201 27.394 53.4675 27.1646 53.7005 26.9354C53.6728 25.6908 53.6448 24.4461 53.6169 23.2015C54.5792 22.4093 55.594 21.6053 56.6043 20.9987C56.5872 20.5705 56.5757 20.2955 56.5598 19.8982C56.6734 19.7228 56.7228 19.5101 56.6814 19.298C56.6216 18.9916 56.3931 18.7461 56.0921 18.6638L52.6382 17.7247C52.1728 16.5259 51.6747 15.1582 51.3014 13.9879C50.9508 13.7055 50.6001 13.4233 50.2497 13.141C50.1525 12.9871 50.0089 12.8714 49.8381 12.8095C49.8285 12.8018 49.8189 12.7941 49.8093 12.7864C49.8119 12.7922 49.8137 12.798 49.8162 12.8037C49.7651 12.7868 49.7143 12.7686 49.6595 12.7619C49.351 12.7203 49.0446 12.8655 48.8738 13.126L46.4417 16.8435L41.9982 16.946C41.6864 16.9535 41.4056 17.1371 41.2743 17.42C41.1419 17.703 41.1825 18.0361 41.3779 18.2795L44.1612 21.7429ZM46.9104 18.4738C47.1794 18.4674 47.4292 18.3286 47.5776 18.1033L49.336 15.415L50.3994 18.4471C50.4891 18.7023 50.6984 18.8966 50.9578 18.9671L54.0582 19.8105L51.5033 21.7579C51.2888 21.9223 51.1692 22.1806 51.182 22.4497L51.3379 25.659L48.6955 23.8301C48.5567 23.7341 48.3933 23.6849 48.2289 23.6849C48.1307 23.6849 48.0325 23.702 47.9374 23.7383L44.9342 24.8786L45.8566 21.8006C45.9335 21.5422 45.879 21.2625 45.7103 21.0522L43.6968 18.5475L46.9104 18.4738Z" fill="#0E0E0E"/>
</svg>
