<svg width="57" height="70" viewBox="0 0 57 70" fill="none" xmlns="http://www.w3.org/2000/svg">
<path d="M15 46.999C15.3333 51.499 16 60.599 16 60.999L24 40.999V38.499L14.5 41.999L11.5 29.499L6 49.499L15 46.999Z" fill="#FFC900"/>
<path d="M46.9274 3.76059C43.704 1.85536 39.7675 0.223172 36.0225 0.225415C35.7896 0.18988 35.5567 0.153616 35.3247 0.126965C28.0406 -0.733293 20.3317 2.8048 16.1455 8.92684C11.8972 15.1406 11.3483 23.791 14.7793 30.4503C16.3378 33.4871 18.6328 36.0853 20.0851 39.1035C18.1215 39.8682 16.4125 40.6141 14.9325 41.3541C13.9673 37.3075 13.1233 32.5037 12.1216 28.5378C12.0309 28.1787 11.7095 27.9257 11.3393 27.9225C10.9368 27.9193 10.6429 28.166 10.5459 28.5234L4.93404 49.1532C4.8488 49.4655 4.92401 49.7987 5.30086 50.0335C5.60854 50.3634 5.97893 50.6356 6.39892 50.8005C8.97624 50.0606 11.778 49.2571 14.388 48.5079C14.3229 53.0374 14.6609 56.1178 15.1256 61.2594C15.1811 61.8867 15.8955 62.2126 16.4065 61.8521C16.6275 61.8177 16.9124 61.7484 17.374 61.5946C18.883 57.0795 20.4713 52.6699 22.1333 48.2706C22.6072 49.4326 23.5715 50.5795 24.2105 50.7418L24.4877 51.2656C23.7406 52.7849 23.4469 54.4768 24.5036 55.8003C23.5075 57.1512 23.5726 58.9866 24.5174 60.2506C24.3206 60.8133 24.2617 61.4445 24.3604 62.039C24.6016 63.4825 25.5389 64.0339 25.8152 64.3429C27.0079 65.8971 28.2335 67.6737 29.6476 69.0176L29.7601 69.226C30.2743 70.1777 33.9292 70.1433 35.444 69.6981C37.9007 70.0888 41.7815 68.0893 42.9631 64.6298C44.365 64.2595 45.2897 62.3641 44.873 60.7773C44.6078 59.7673 44.9171 59.8007 45.2177 59.4744C45.999 58.626 46.3265 57.3651 45.9939 56.2562C45.8467 55.7654 45.4376 55.2368 44.933 55.3428C46.0336 54.4013 46.5117 52.6445 45.4819 51.1226C46.3908 50.5894 47.2142 49.848 47.4375 49.2404C48.3617 46.7261 47.8476 44.0189 49.0329 41.3976C50.1671 38.8894 51.9673 36.7345 53.4306 34.4181C57.2798 28.3246 57.859 20.5864 54.9714 13.95C53.2158 9.91512 50.7294 6.00769 46.9274 3.76059ZM26.6157 62.8487C25.9403 62.2794 25.8106 61.5112 26.0528 60.8049C30.6457 61.9545 30.1404 58.9632 28.7508 59.2641C27.0028 59.6268 25.9146 59.002 25.6397 58.9775C24.8857 57.4676 26.0931 56.5284 26.2364 56.2398C27.883 56.69 29.5447 56.8462 31.2133 56.7083C31.6614 56.6706 31.9945 56.2766 31.9574 55.8284C31.9197 55.3802 31.5283 55.053 31.0775 55.0843C29.2068 55.2401 27.297 54.9658 25.5401 54.3019C25.1433 53.0168 26.1883 51.7789 26.2188 51.3134C30.3801 52.014 35.8551 51.9138 40.1648 51.3887C40.2539 51.5721 40.8491 52.4448 40.9561 53.3261C41.1257 54.7287 40.2984 54.5792 40.2163 55.2949C40.224 55.4169 40.0307 55.9316 40.4889 56.2951C41.2386 56.8886 41.4683 58.1439 40.857 59.0493C39.4817 59.6671 41.6423 60.8767 40.4871 62.3858C40.361 62.4076 33.1862 64.9749 26.6157 62.8487ZM15.0238 45.815C12.303 46.5957 9.63436 47.3864 6.88633 48.1826L11.2714 32.0626C12.0313 35.5275 12.7635 39.4469 13.5981 42.7516C13.7284 43.2702 14.3117 43.5172 14.7713 43.2709C16.7809 42.199 19.3834 41.0757 22.5242 39.9242C20.1291 46.3385 18.3412 51.4985 16.4001 57.253C16.0856 53.6915 15.9074 50.8928 16.0628 46.6276C16.0829 46.076 15.5588 45.6622 15.0238 45.815ZM23.1442 45.5959C23.8348 43.8055 24.5392 42.014 25.2595 40.2151C25.1272 39.8945 24.8895 39.2997 24.6819 38.7832C24.8632 38.1348 24.2443 37.5813 23.6359 37.7964C22.9324 38.042 22.263 38.2845 21.6119 38.5254C20.0219 35.1611 17.8126 32.79 16.2277 29.7056C13.0625 23.5613 13.57 15.5803 17.4905 9.8465C21.3436 4.21133 28.4283 0.948506 35.1353 1.74512C35.408 1.77694 35.68 1.81884 35.9426 1.85915C42.2906 2.91564 48.1039 7.5325 50.7536 13.6222C52.5431 17.7315 52.7881 22.6533 51.4421 27.4855C49.4691 34.7285 45.0731 37.3936 43.4727 42.8551C42.4627 46.365 43.6895 48.4554 41.9153 49.4991C37.5826 49.9665 33.083 50.8067 24.9921 49.4083C24.286 48.6564 23.5204 48.4084 23.1442 45.5959ZM31.0239 68.1377C30.5908 67.461 30.669 68.0664 28.3019 64.9322C31.632 65.545 35.0039 65.381 38.2982 64.6602C38.1129 64.878 37.9283 65.0971 37.7453 65.3146C35.2283 68.3057 35.509 67.6951 35.2616 68.0513C34.02 68.4798 32.5986 68.5085 31.0239 68.1377Z" fill="#0E0E0E"/>
<path d="M9.43234 20.919C9.34748 20.4767 8.91523 20.1908 8.47926 20.2714L0.662159 21.7617C0.220362 21.8461 -0.0697495 22.2725 0.0145791 22.7148C0.0978449 23.1494 0.515939 23.4462 0.967651 23.3624L8.78475 21.8721C9.22655 21.7877 9.51666 21.3613 9.43234 20.919Z" fill="#0E0E0E"/>
<path d="M1.63555 13.3209L7.93898 15.6211C8.36396 15.7749 8.83032 15.5565 8.98381 15.1353C9.13814 14.7126 8.92069 14.2448 8.49799 14.0904L2.1935 11.7902C1.77238 11.6375 1.30301 11.8533 1.1492 12.2766C0.994863 12.6993 1.21284 13.1665 1.63555 13.3209Z" fill="#0E0E0E"/>
<path d="M10.1686 10.352C10.5224 10.6348 11.0339 10.5743 11.3141 10.2257C11.5952 9.87464 11.539 9.36178 11.1879 9.08015C10.0132 8.13875 9.00864 7.01649 8.20194 5.74413C7.96063 5.3628 7.45678 5.25142 7.07809 5.49221C6.69782 5.733 6.58485 6.23632 6.82617 6.61606C7.72886 8.04063 8.85324 9.2976 10.1686 10.352Z" fill="#0E0E0E"/>
<path d="M23.5 20.499L20.5 22.499L28.5 33.999L47.5 13.499L44 11.999L28.5 27.499L23.5 20.499Z" fill="#FFC900"/>
<path d="M29.1997 34.1526C35.3739 27.4812 41.6399 20.8675 47.7457 14.268C48.1162 13.8682 47.9952 13.2273 47.5118 12.9861C46.3774 12.4195 45.2229 11.9223 44.1429 11.3828C43.8337 11.2285 43.4608 11.2852 43.2115 11.5271C38.4361 16.1599 33.641 21.2615 28.9473 26.7004C27.1302 24.3944 25.9793 22.6998 24.2047 19.7626C23.9862 19.3999 23.5253 19.2657 23.1466 19.4534C21.947 20.0456 20.8865 20.8871 19.8196 21.7107C19.4929 21.9621 19.4054 22.4187 19.617 22.7736C22.273 27.2295 24.9013 30.0119 27.9497 34.0874C28.2538 34.494 28.8538 34.527 29.1997 34.1526ZM21.3911 22.5566C21.9841 22.101 22.5908 21.6486 23.2156 21.2726C24.9939 24.1796 26.2026 25.8916 28.2875 28.4888C28.6127 28.8936 29.2182 28.8866 29.5418 28.5084C34.2732 22.983 39.1134 17.8003 43.936 13.0954C44.5918 13.4109 45.2712 13.7202 45.8019 13.9694C40.1317 20.0858 34.3332 26.2169 28.6651 32.3324C26.0118 28.8594 23.6852 26.2719 21.3911 22.5566Z" fill="#0E0E0E"/>
</svg>
