<svg width="27" height="28" viewBox="0 0 27 28" fill="none" xmlns="http://www.w3.org/2000/svg">
<path d="M22.5274 24.0437C25.658 21.1218 27.0493 16.252 26.2146 11.5908H13.7617V16.7389H20.8577C20.5795 18.4086 19.6054 19.7999 18.2141 20.7044L22.5274 24.0437Z" fill="#4285F4"/>
<path d="M1.93945 19.9392C2.05345 20.1636 2.17365 20.3846 2.30003 20.6023C2.42652 20.82 2.559 21.0339 2.69749 21.2441C2.83607 21.4542 2.98036 21.6603 3.13055 21.8623C3.28075 22.0643 3.43646 22.2618 3.59788 22.4551C3.7592 22.6483 3.92585 22.8368 4.09791 23.0206C4.26988 23.2043 4.44698 23.3831 4.62911 23.5569C4.81124 23.7306 4.99811 23.8991 5.18972 24.0623C5.38133 24.2255 5.5774 24.3831 5.77801 24.5353C5.97853 24.6874 6.18321 24.8337 6.39205 24.9742C6.60089 25.1147 6.8135 25.2493 7.02998 25.3778C7.24637 25.5063 7.46624 25.6286 7.6896 25.7448C7.91295 25.8608 8.13941 25.9705 8.36896 26.0738C8.59851 26.177 8.83076 26.2738 9.06583 26.3639C9.3008 26.4541 9.53819 26.5375 9.7779 26.6143C10.0176 26.691 10.2593 26.761 10.503 26.824C10.7467 26.8871 10.9919 26.9432 11.2388 26.9925C11.4857 27.0416 11.7337 27.0838 11.983 27.119C12.2322 27.1542 12.4823 27.1823 12.7331 27.2033C12.9839 27.2243 13.2352 27.2384 13.4868 27.2451C13.7384 27.252 13.99 27.2517 14.2416 27.2444C14.4932 27.237 14.7444 27.2225 14.9952 27.2009C15.2459 27.1793 15.4959 27.1507 15.7451 27.115C15.9943 27.0793 16.2422 27.0365 16.489 26.9868C16.7358 26.937 16.9809 26.8804 17.2244 26.8168C17.468 26.7532 17.7095 26.6828 17.9491 26.6056C18.1887 26.5283 18.4259 26.4443 18.6607 26.3537C18.8955 26.263 19.1276 26.1658 19.3569 26.062C19.5863 25.9582 19.8124 25.8481 20.0355 25.7315C20.2587 25.615 20.4783 25.4922 20.6944 25.3632C20.9105 25.2342 21.1229 25.0992 21.3314 24.9583C21.54 24.8173 21.7444 24.6705 21.9446 24.5179C22.1448 24.3654 22.3406 24.2073 22.5318 24.0437L18.2186 20.7044C14.5315 23.1393 8.40941 22.2349 6.32227 16.5303L1.93945 19.9392Z" fill="#34A853"/>
<path d="M6.32029 16.5304C5.76374 14.7912 5.76374 13.1911 6.32029 11.4518L1.93747 8.04297C0.337402 11.2432 -0.149567 15.7651 1.93747 19.9393L6.32029 16.5304Z" fill="#FBBC02"/>
<path d="M6.32227 11.4516C7.85286 6.65144 14.3923 3.86869 18.7751 7.97319L22.6014 4.2165C17.175 -1.0011 6.6006 -0.792454 1.93945 8.04277L6.32227 11.4516Z" fill="#EA4335"/>
</svg>
