<svg width="57" height="55" viewBox="0 0 57 55" fill="none" xmlns="http://www.w3.org/2000/svg">
<path d="M1.61896 28.611C1.18268 28.5252 0.934793 28.1487 0.945715 27.6813C0.956646 27.2134 1.22303 26.844 1.66474 26.7753C10.9443 25.3305 16.9417 23.507 20.9743 19.7234C25.0149 15.9322 26.9904 10.2619 28.4909 1.4016C28.5647 0.965933 28.9625 0.682858 29.4987 0.682921C30.035 0.682984 30.4327 0.966161 30.5064 1.40187C31.9577 9.97951 33.8561 15.5666 37.6438 19.3533C41.4315 23.1401 47.02 25.0382 55.5984 26.491C56.0341 26.5647 56.3171 26.9625 56.3171 27.4987C56.317 28.035 56.0338 28.4328 55.5981 28.5065C47.0205 29.9577 41.4334 31.8561 37.6466 35.6438C33.8599 39.4315 31.9618 45.02 30.509 53.5984C30.438 54.018 30.0227 54.3237 29.4184 54.3289C28.8142 54.3341 28.378 54.0339 28.2899 53.6096C26.4915 44.953 23.9155 39.4614 19.6801 35.7504C15.4584 32.0515 9.66496 30.193 1.61896 28.611Z" fill="white" stroke="white" stroke-width="1.1102"/>
</svg>
