<svg width="60" height="60" viewBox="0 0 60 60" fill="none" xmlns="http://www.w3.org/2000/svg">
<path d="M55.7815 5.425H55.7812L4.21875 5.425L4.21853 5.425C3.29562 5.42602 2.4108 5.7931 1.7582 6.4457C1.1056 7.09829 0.73852 7.98312 0.7375 8.90603V8.90625L0.7375 43.5938L0.7375 43.594C0.73852 44.5169 1.1056 45.4017 1.7582 46.0543C2.41079 46.7069 3.29562 47.074 4.21853 47.075H4.21875H21.1123L20.6298 49.4875H15.9375C15.6358 49.4875 15.3465 49.6073 15.1332 49.8207C14.9198 50.034 14.8 50.3233 14.8 50.625V53.4375C14.8 53.7392 14.9198 54.0285 15.1332 54.2418C15.3465 54.4552 15.6358 54.575 15.9375 54.575H44.0625C44.3642 54.575 44.6535 54.4552 44.8668 54.2418C45.0802 54.0285 45.2 53.7392 45.2 53.4375V50.625C45.2 50.3233 45.0802 50.034 44.8668 49.8207C44.6535 49.6073 44.3642 49.4875 44.0625 49.4875H39.3475L38.8047 47.075H55.7812H55.7815C56.7044 47.074 57.5892 46.7069 58.2418 46.0543C58.8944 45.4017 59.2615 44.5169 59.2625 43.594V43.5938V8.90625V8.90603C59.2615 7.98312 58.8944 7.09829 58.2418 6.4457C57.5892 5.7931 56.7044 5.42602 55.7815 5.425ZM3.0125 8.90642C3.01277 8.58654 3.13996 8.27983 3.36615 8.05365C3.59233 7.82746 3.89904 7.70027 4.21892 7.7H32.3323L25.3372 39.175H3.0125V8.90642ZM42.925 51.7625V52.3H17.075V51.7625H42.925ZM36.4728 47.075L37.0156 49.4875H22.9502L23.4327 47.075H36.4728ZM56.9875 43.5936C56.9872 43.9135 56.86 44.2202 56.6339 44.4464C56.4077 44.6725 56.101 44.7997 55.7811 44.8H4.21892C3.89904 44.7997 3.59233 44.6725 3.36615 44.4464C3.13996 44.2202 3.01277 43.9135 3.0125 43.5936V41.45H56.9875V43.5936ZM56.9875 39.175H27.6677L34.6628 7.7H55.7811C56.101 7.70027 56.4077 7.82746 56.6339 8.05365C56.86 8.27984 56.9872 8.58654 56.9875 8.90642V39.175Z" fill="#E5ABF3" stroke="#E5ABF3" stroke-width="0.4"/>
<path d="M13.9434 26.4501L12.2041 31.3202C12.1538 31.4609 12.0764 31.5903 11.9761 31.701C11.8759 31.8117 11.7548 31.9017 11.6198 31.9656C11.4848 32.0295 11.3385 32.0663 11.1893 32.0737C11.0401 32.0811 10.8909 32.059 10.7502 32.0088C10.6095 31.9586 10.4801 31.8811 10.3694 31.7808L10.5036 31.6326L10.3694 31.7808C10.2586 31.6806 10.1687 31.5595 10.1048 31.4245C10.0408 31.2895 10.0041 31.1432 9.99671 30.994C9.9893 30.8448 10.0114 30.6956 10.0616 30.5549L13.9434 26.4501ZM13.9434 26.4501H17.6972L19.4366 31.3202L19.6249 31.2529L19.4366 31.3202C19.4868 31.4609 19.5643 31.5903 19.6646 31.701C19.7648 31.8117 19.8859 31.9016 20.0209 31.9656C20.1559 32.0295 20.3022 32.0663 20.4514 32.0737C20.6006 32.0811 20.7498 32.059 20.8905 32.0088C21.0311 31.9585 21.1605 31.8811 21.2713 31.7808C21.382 31.6806 21.4719 31.5595 21.5359 31.4245C21.5998 31.2895 21.6365 31.1432 21.644 30.994C21.6514 30.8448 21.6293 30.6956 21.5791 30.5549L16.8916 17.4299C16.8916 17.4299 16.8916 17.4299 16.8916 17.4299C16.8127 17.209 16.6674 17.0178 16.4756 16.8827C16.2838 16.7475 16.055 16.675 15.8203 16.675C15.5857 16.675 15.3568 16.7475 15.1651 16.8827C14.9733 17.0178 14.828 17.209 14.7491 17.4299C14.7491 17.4299 14.7491 17.4299 14.7491 17.4299L10.0616 30.5549L13.9434 26.4501ZM14.7564 24.1751L15.8204 21.1947L16.8848 24.1751H14.7564Z" fill="#E5ABF3" stroke="#E5ABF3" stroke-width="0.4"/>
<path d="M47.075 20.156V20.1562V22.0311V22.0312H46.875C46.8752 22.4478 46.7959 22.86 46.6418 23.2456L47.075 20.156ZM47.075 20.156C47.074 19.2331 46.7069 18.3483 46.0543 17.6957C45.4017 17.0431 44.5169 16.676 43.594 16.675H43.5938H39.375C39.0733 16.675 38.784 16.7948 38.5707 17.0082C38.3573 17.2215 38.2375 17.5108 38.2375 17.8125V30.9375C38.2375 31.2392 38.3573 31.5285 38.5707 31.7418C38.784 31.9552 39.0733 32.075 39.375 32.075H46.4062H46.4065C47.3294 32.074 48.2142 31.7069 48.8668 31.0543C49.5194 30.4017 49.8865 29.5169 49.8875 28.594V28.5938V26.7188V26.7185C49.8865 25.8232 49.541 24.9625 48.9225 24.3151C48.3696 23.7364 47.6366 23.3677 46.8485 23.2661L47.075 20.156ZM40.5125 18.95H43.5936C43.9135 18.9503 44.2202 19.0775 44.4464 19.3036C44.6725 19.5298 44.7997 19.8365 44.8 20.1564V22.0311C44.7997 22.351 44.6725 22.6577 44.4464 22.8839C44.2202 23.11 43.9135 23.2372 43.5936 23.2375H40.5125V18.95ZM47.6125 28.5936C47.6122 28.9135 47.485 29.2202 47.2589 29.4464C47.0327 29.6725 46.726 29.7997 46.4061 29.8H40.5125V25.5125H46.4061C46.726 25.5128 47.0327 25.64 47.2589 25.8661C47.485 26.0923 47.6122 26.399 47.6125 26.7189V28.5936Z" fill="#E5ABF3" stroke="#E5ABF3" stroke-width="0.4"/>
</svg>
