<svg width="60" height="60" viewBox="0 0 60 60" fill="none" xmlns="http://www.w3.org/2000/svg">
<path d="M39.3753 0.6875H39.375L20.625 0.6875L20.6247 0.6875C18.5701 0.689808 16.6002 1.50703 15.1474 2.95989C13.6945 4.41274 12.8773 6.38257 12.875 8.43722V8.4375L12.875 51.5625L12.875 51.5628C12.8773 53.6174 13.6945 55.5873 15.1474 57.0401C16.6002 58.493 18.5701 59.3102 20.6247 59.3125H20.625H39.375H39.3753C41.4299 59.3102 43.3998 58.493 44.8526 57.0401C46.3055 55.5873 47.1227 53.6174 47.125 51.5628V51.5625V8.4375V8.43722C47.1227 6.38257 46.3055 4.41274 44.8526 2.95989C43.3998 1.50703 41.4299 0.689808 39.3753 0.6875ZM15.25 10.5625H44.75V45.6875H15.25V10.5625ZM20.6252 3.0625H39.3748C39.3748 3.0625 39.3749 3.0625 39.375 3.0625C40.8001 3.06399 42.1664 3.63076 43.1741 4.63845C44.1227 5.58705 44.6805 6.85344 44.7439 8.1875H15.2561C15.3195 6.85344 15.8773 5.58705 16.8259 4.63845C17.8336 3.63076 19.1999 3.06399 20.625 3.0625C20.6251 3.0625 20.6252 3.0625 20.6252 3.0625ZM39.3748 56.9375H20.6252C19.2001 56.9361 17.8337 56.3693 16.8259 55.3616C15.8183 54.3539 15.2515 52.9876 15.25 51.5625C15.25 51.5624 15.25 51.5623 15.25 51.5623L15.25 48.0625H44.75V51.5623C44.7486 52.9874 44.1818 54.3538 43.1741 55.3616C42.1663 56.3693 40.7999 56.9361 39.3748 56.9375Z" fill="#E5ABF3" stroke="#E5ABF3" stroke-width="0.5"/>
<path d="M30 49.6875C29.4437 49.6875 28.9 49.8525 28.4375 50.1615C27.9749 50.4705 27.6145 50.9098 27.4016 51.4237C27.1887 51.9376 27.133 52.5031 27.2415 53.0487C27.3501 53.5943 27.6179 54.0954 28.0113 54.4887C28.4046 54.8821 28.9057 55.1499 29.4513 55.2585C29.9969 55.367 30.5624 55.3113 31.0763 55.0984C31.5902 54.8855 32.0295 54.5251 32.3385 54.0625C32.6476 53.6 32.8125 53.0563 32.8125 52.5C32.8125 51.7541 32.5162 51.0387 31.9887 50.5113C31.4613 49.9838 30.7459 49.6875 30 49.6875ZM30 53.4375C29.8146 53.4375 29.6333 53.3825 29.4792 53.2795C29.325 53.1765 29.2048 53.0301 29.1339 52.8588C29.0629 52.6875 29.0443 52.499 29.0805 52.3171C29.1167 52.1352 29.206 51.9682 29.3371 51.8371C29.4682 51.706 29.6352 51.6167 29.8171 51.5805C29.999 51.5443 30.1875 51.5629 30.3588 51.6339C30.5301 51.7048 30.6765 51.825 30.7795 51.9792C30.8825 52.1333 30.9375 52.3146 30.9375 52.5C30.9375 52.7486 30.8387 52.9871 30.6629 53.1629C30.4871 53.3387 30.2486 53.4375 30 53.4375Z" fill="#E5ABF3"/>
<path d="M32.8125 4.6875H27.1875C26.9389 4.6875 26.7004 4.78627 26.5246 4.96209C26.3488 5.1379 26.25 5.37636 26.25 5.625C26.25 5.87364 26.3488 6.1121 26.5246 6.28791C26.7004 6.46373 26.9389 6.5625 27.1875 6.5625H32.8125C33.0611 6.5625 33.2996 6.46373 33.4754 6.28791C33.6512 6.1121 33.75 5.87364 33.75 5.625C33.75 5.37636 33.6512 5.1379 33.4754 4.96209C33.2996 4.78627 33.0611 4.6875 32.8125 4.6875Z" fill="#E5ABF3"/>
</svg>
