<svg width="60" height="60" viewBox="0 0 60 60" fill="none" xmlns="http://www.w3.org/2000/svg">
<path d="M54.7266 8.90625H5.27344C2.3598 8.90625 0 11.2807 0 14.1797V45.8203C0 48.7365 2.37715 51.0938 5.27344 51.0938H54.7266C57.6158 51.0938 60 48.7465 60 45.8203V14.1797C60 11.2859 57.6496 8.90625 54.7266 8.90625ZM53.988 12.4219C52.9106 13.4936 34.3691 31.9375 33.7289 32.5743C32.7328 33.5704 31.4086 34.1188 30 34.1188C28.5914 34.1188 27.2672 33.5702 26.2678 32.571C25.8373 32.1427 7.50035 13.9024 6.01195 12.4219H53.988ZM3.51562 45.1048V14.8975L18.7076 30.0094L3.51562 45.1048ZM6.01418 47.5781L21.2002 32.4887L23.7852 35.0602C25.4453 36.7202 27.6524 37.6344 30 37.6344C32.3476 37.6344 34.5547 36.7202 36.2115 35.0634L38.7998 32.4887L53.9858 47.5781H6.01418ZM56.4844 45.1048L41.2924 30.0094L56.4844 14.8975V45.1048Z" fill="#E5ABF3"/>
</svg>
